<svg width="24" height="24" viewBox="0 0 24 24" fill="none" xmlns="http://www.w3.org/2000/svg">
<path d="M19.3978 22H4.54598C4.24411 22 4 21.8329 4 21.6262V2.37385C4 2.16715 4.24411 2 4.54598 2H19.3978C19.6997 2 19.9438 2.16715 19.9438 2.37385V21.6262C19.9438 21.8324 19.699 22 19.3978 22ZM5.09167 21.2523H18.8515V2.74774H5.09167V21.2523Z" fill="#737373"/>
<path d="M13.026 4.8855H10.9171V5.31255H13.026V4.8855Z" fill="#737373"/>
<path d="M13.026 10.1943H10.9171V10.6214H13.026V10.1943Z" fill="#737373"/>
<path d="M13.026 15.502H10.9171V15.929H13.026V15.502Z" fill="#737373"/>
<path d="M19.5363 7.51562H4.54541V7.94268H19.5363V7.51562Z" fill="#737373"/>
<path d="M19.5363 12.8718H4.54541V13.299H19.5363V12.8718Z" fill="#737373"/>
</svg>
