<svg width="100" height="100" viewBox="0 0 100 100" fill="none" xmlns="http://www.w3.org/2000/svg">
<mask id="mask0_552_4352" style="mask-type:alpha" maskUnits="userSpaceOnUse" x="0" y="0" width="100" height="100">
<rect width="100" height="100" fill="#C4C4C4"/>
</mask>
<g mask="url(#mask0_552_4352)">
<path fill-rule="evenodd" clip-rule="evenodd" d="M75.5402 30.9722V45.4908H66.1747V30.9724C66.1747 21.8144 58.7262 14.3659 49.57 14.3659C40.4138 14.3659 32.9635 21.8142 32.9635 30.9724V45.4908H23.5977V30.9722C23.5977 16.628 35.2259 5 49.5699 5C63.9121 5 75.5402 16.628 75.5402 30.9722ZM32.9635 45.4908H66.1747V45.491H32.9635V45.4908Z" fill="#ECEFF1"/>
<path d="M51.0848 5.04518C50.5833 5.01635 50.0786 5 49.5699 5C35.2259 5 23.5977 16.628 23.5977 30.9722V45.4908H26.6276V30.9722C26.6276 17.1367 37.446 5.82986 51.0848 5.04518Z" fill="#C4CCCF"/>
<path d="M52.599 14.3652C52.0884 14.3652 51.5832 14.3897 51.084 14.435C59.5327 15.2028 66.1737 22.3244 66.1737 30.9717V45.4903H69.2036V30.9717C69.2038 21.8137 61.7554 14.3652 52.599 14.3652Z" fill="#C4CCCF"/>
<rect x="15" y="45.4902" width="69.1366" height="49.5092" fill="#FCC368"/>
<rect x="15" y="45.4902" width="6.05967" height="49.5092" fill="#E6A235"/>
<path d="M57.005 65.5972C57.005 61.4898 53.6752 58.1602 49.5679 58.1602C45.4607 58.1602 42.1309 61.4898 42.1309 65.5972C42.1309 68.4262 43.7108 70.8861 46.036 72.1433L44.8393 81.2976H54.2968L53.1001 72.1433C55.4255 70.8861 57.005 68.4264 57.005 65.5972Z" fill="#35505C"/>
</g>
</svg>
