<svg width="24" height="24" viewBox="0 0 24 24" fill="none" xmlns="http://www.w3.org/2000/svg">
<path d="M6.36389 11.2901C7.30846 11.2901 8.07399 10.5241 8.07399 9.5812C8.07399 8.6383 7.30842 7.87226 6.36389 7.87226C5.421 7.87226 4.65259 8.63847 4.65259 9.5812C4.65259 10.5243 5.421 11.2901 6.36389 11.2901ZM6.36389 8.45917C6.98335 8.45917 7.48695 8.96226 7.48695 9.58124C7.48695 10.2002 6.98335 10.7033 6.36389 10.7033C5.74525 10.7033 5.24135 10.2002 5.24135 9.58124C5.24152 8.9623 5.74512 8.45917 6.36389 8.45917ZM7.34088 11.5362H5.38592C4.43331 11.5362 3.6355 12.3123 3.60661 13.2656V13.3435V14.8336C3.60661 14.9958 3.73876 15.1273 3.90081 15.1273H8.82807C8.99062 15.1273 9.12227 14.9958 9.12227 14.8336V13.2753C9.12227 13.2593 9.1211 13.2459 9.11892 13.2321C9.07509 12.2943 8.28452 11.5361 7.34064 11.5361L7.34088 11.5362ZM8.53546 14.5406H4.19369V13.3437H3.90067L4.19538 13.2825C4.21351 12.6446 4.74717 12.1242 5.38575 12.1242H7.34071C7.98032 12.1242 8.51651 12.6433 8.53276 13.2825C8.53394 13.303 8.53679 13.3232 8.54149 13.3425L8.53546 14.5406ZM19.7308 4H3.93577C2.31801 4 1 5.31685 1 6.93525V16.0637C1 17.6832 2.31801 19 3.93577 19H19.7308C21.3492 19 22.666 17.6832 22.666 16.0637V6.93525C22.666 5.31685 21.3492 4 19.7311 4H19.7308ZM21.4916 16.0637C21.4916 17.0359 20.7017 17.8258 19.7306 17.8258H3.9356C2.9645 17.8258 2.17395 17.0359 2.17395 16.0637V6.93521C2.17395 5.96377 2.96454 5.17404 3.9356 5.17404H19.7306C20.7017 5.17404 21.4916 5.96394 21.4916 6.93521V16.0637ZM20.3198 6.62355C20.3198 6.78677 20.1884 6.91724 20.0251 6.91724H13.2253C13.0633 6.91724 12.9318 6.78676 12.9318 6.62355C12.9318 6.4615 13.0633 6.33136 13.2253 6.33136H20.0251C20.1885 6.33103 20.32 6.4615 20.32 6.62355H20.3198ZM20.3198 8.16591C20.3198 8.32795 20.1884 8.45943 20.0251 8.45943L13.2253 8.45926C13.0633 8.45926 12.9318 8.32778 12.9318 8.16574C12.9318 8.00252 13.0633 7.87221 13.2253 7.87221H20.0251C20.1885 7.87238 20.32 8.00269 20.32 8.16591H20.3198ZM17.6771 9.70711C17.6771 9.86915 17.5466 10.0008 17.3834 10.0008H13.2253C13.0633 10.0008 12.9318 9.86932 12.9318 9.70711C12.9318 9.54389 13.0633 9.41358 13.2253 9.41358H17.3832C17.5464 9.41358 17.6771 9.54406 17.6771 9.70711H17.6771Z" fill="#8C8C8C"/>
</svg>
