<svg width="37" height="37" viewBox="0 0 37 37" fill="none" xmlns="http://www.w3.org/2000/svg">
<mask id="path-1-inside-1_2086_9159" fill="white">
<path d="M27.5772 9.19238C32.654 14.2692 32.654 22.5003 27.5772 27.5772C22.5003 32.654 14.2692 32.654 9.19239 27.5772C4.11557 22.5003 4.11557 14.2692 9.19239 9.19238C14.2692 4.11556 22.5003 4.11556 27.5772 9.19238Z"/>
</mask>
<path d="M27.5772 9.19238C32.654 14.2692 32.654 22.5003 27.5772 27.5772C22.5003 32.654 14.2692 32.654 9.19239 27.5772C4.11557 22.5003 4.11557 14.2692 9.19239 9.19238C14.2692 4.11556 22.5003 4.11556 27.5772 9.19238Z" fill="white"/>
<path d="M26.8701 9.89948C31.5563 14.5858 31.5563 22.1838 26.8701 26.87L28.2843 28.2843C33.7516 22.8169 33.7516 13.9526 28.2843 8.48527L26.8701 9.89948ZM26.8701 26.87C22.1838 31.5563 14.5858 31.5563 9.89949 26.87L8.48528 28.2843C13.9526 33.7516 22.8169 33.7516 28.2843 28.2843L26.8701 26.87ZM9.89949 26.87C5.2132 22.1838 5.2132 14.5858 9.89949 9.89948L8.48528 8.48527C3.01794 13.9526 3.01794 22.8169 8.48528 28.2843L9.89949 26.87ZM9.89949 9.89948C14.5858 5.21319 22.1838 5.21319 26.8701 9.89948L28.2843 8.48527C22.8169 3.01793 13.9526 3.01793 8.48528 8.48527L9.89949 9.89948Z" fill="#691338" fill-opacity="0.27" mask="url(#path-1-inside-1_2086_9159)"/>
<path d="M18.385 8.65165L12.7235 22.4565L13.2535 22.9864L18.385 20.7207L23.5111 22.9918L24.041 22.4619L18.385 8.65165Z" fill="#0066FF"/>
</svg>
