<svg width="19" height="18" viewBox="0 0 19 18" fill="none" xmlns="http://www.w3.org/2000/svg">
<path d="M11.6032 6.37834C10.2026 4.97773 7.78001 4.97773 6.39835 6.37834C5.6981 7.0786 5.31946 8.00605 5.31946 8.99028C5.31946 9.9745 5.69796 10.9019 6.39835 11.6022C7.09861 12.3025 8.02606 12.6811 9.01029 12.6811C9.99451 12.6811 10.9219 12.3026 11.6222 11.6022C12.3225 10.902 12.7011 9.9745 12.7011 8.99028C12.701 8.00605 12.2846 7.0787 11.6032 6.37834ZM10.6758 10.6747C9.78622 11.5643 8.21526 11.5643 7.3257 10.6747C6.87142 10.2205 6.62544 9.63372 6.62544 8.99024C6.62544 8.34677 6.87153 7.76007 7.3257 7.30576C7.77998 6.85148 8.36671 6.6055 9.01019 6.6055C9.65366 6.6055 10.2404 6.85159 10.6947 7.30576C11.1489 7.76003 11.3949 8.34677 11.3949 8.99024C11.3951 9.63372 11.1111 10.2204 10.6758 10.6747H10.6758Z" fill="#737373"/>
<path d="M0.663571 3.97473C1.02321 3.97473 1.32608 3.67187 1.32608 3.31222V2.23333L4.31651 5.22376C4.44906 5.35632 4.61937 5.41309 4.78968 5.41309C4.95999 5.41309 5.1303 5.35632 5.26285 5.22376C5.52782 4.9588 5.52782 4.5424 5.26285 4.29632L2.23439 1.30598H3.31329C3.67293 1.30598 3.9758 1.00312 3.9758 0.643478C3.9758 0.283834 3.69182 0 3.33218 0H0.663604C0.303961 0 0.00109863 0.302859 0.00109863 0.662506V3.33122C0.00109863 3.69073 0.303958 3.9747 0.663604 3.9747L0.663571 3.97473Z" fill="#737373"/>
<path d="M4.29752 12.7566L1.30708 15.7471V14.6682C1.30708 14.3085 1.00422 14.0057 0.644576 14.0057C0.284933 14.0057 0.00109863 14.2896 0.00109863 14.6493V17.3179C0.00109863 17.6775 0.303958 17.9804 0.663604 17.9804H3.33232C3.69196 17.9804 3.99482 17.6775 3.99482 17.3179C3.99482 16.9582 3.69196 16.6553 3.33232 16.6553H2.25342L5.24386 13.6649C5.50883 13.3999 5.50883 12.9835 5.24386 12.7375C4.97889 12.4916 4.56249 12.4916 4.29752 12.7566V12.7566Z" fill="#737373"/>
<path d="M17.3191 14.0061C16.9595 14.0061 16.6566 14.309 16.6566 14.6686V15.7475L13.6852 12.7571C13.4202 12.4921 13.0038 12.4921 12.7577 12.7571C12.5117 13.022 12.4928 13.4384 12.7577 13.6845L15.7482 16.675H14.6693C14.3096 16.675 14.0068 16.9778 14.0068 17.3375C14.0068 17.6971 14.3096 18 14.6693 18L17.3191 17.9997C17.6788 17.9997 17.9816 17.6968 17.9816 17.3372V14.6497C17.9816 14.2901 17.6788 14.0061 17.3191 14.0061L17.3191 14.0061Z" fill="#737373"/>
<path d="M17.3192 0H14.6506C14.291 0 13.9881 0.302859 13.9881 0.662506C13.9881 1.02215 14.291 1.32501 14.6506 1.32501H15.7295L12.7579 4.29645C12.493 4.56142 12.493 4.97782 12.7579 5.2239C12.8905 5.35645 13.0608 5.41322 13.2311 5.41322C13.4014 5.41322 13.5717 5.35645 13.7043 5.2239L16.6947 2.23346V3.31236C16.6947 3.672 16.9976 3.97487 17.3572 3.97487C17.7169 3.97487 18.0197 3.67201 18.0197 3.31236L18.0196 0.66254C17.9817 0.302897 17.6788 3.38115e-05 17.3192 3.38115e-05L17.3192 0Z" fill="#737373"/>
</svg>
