<svg width="30" height="30" viewBox="0 0 30 30" fill="none" xmlns="http://www.w3.org/2000/svg">
<path d="M12.5329 1.51346C13.5379 -0.50449 16.4621 -0.504487 17.4672 1.51346L29.7164 26.109C30.6105 27.9043 29.2818 30 27.2493 30H2.7507C0.718209 30 -0.610556 27.9043 0.283588 26.109L12.5329 1.51346Z" fill="#38B22D"/>
<path d="M13.32 9H16.28L15.78 18.36H13.8L13.32 9ZM14.8 23.14C14.3333 23.14 13.9467 22.9933 13.64 22.7C13.3333 22.3933 13.18 22.02 13.18 21.58C13.18 21.14 13.3333 20.7733 13.64 20.48C13.9467 20.1867 14.3333 20.04 14.8 20.04C15.2533 20.04 15.6267 20.1867 15.92 20.48C16.2267 20.7733 16.38 21.14 16.38 21.58C16.38 22.02 16.2267 22.3933 15.92 22.7C15.6267 22.9933 15.2533 23.14 14.8 23.14Z" fill="white"/>
</svg>
