<svg width="24" height="24" viewBox="0 0 24 24" fill="none" xmlns="http://www.w3.org/2000/svg">
<mask id="mask0_3044_25379" style="mask-type:alpha" maskUnits="userSpaceOnUse" x="0" y="0" width="24" height="24">
<rect width="24" height="24" fill="#8C8C8C"/>
</mask>
<g mask="url(#mask0_3044_25379)">
<path d="M15.4613 1.2002H7.33827C5.93704 1.2002 4.7998 2.29983 4.7998 3.65474V20.3456C4.7998 21.7006 5.93704 22.8002 7.33827 22.8002H15.4613C16.8626 22.8002 17.9998 21.7006 17.9998 20.3456V3.65474C17.9998 2.29983 16.8626 1.2002 15.4613 1.2002ZM11.3998 21.8184C10.557 21.8184 9.87673 21.1606 9.87673 20.3456C9.87673 19.5307 10.557 18.8729 11.3998 18.8729C12.2426 18.8729 12.9229 19.5307 12.9229 20.3456C12.9229 21.1606 12.2426 21.8184 11.3998 21.8184ZM15.969 17.8911H6.83057V4.14565H15.969V17.8911Z" fill="#8C8C8C"/>
</g>
</svg>
