<svg width="20" height="20" viewBox="0 0 20 20" fill="none" xmlns="http://www.w3.org/2000/svg">
<mask id="path-1-inside-1_38_32583" fill="white">
<path d="M20 10C20 15.5228 15.5228 20 10 20C4.47715 20 0 15.5228 0 10C0 4.47715 4.47715 0 10 0C15.5228 0 20 4.47715 20 10Z"/>
</mask>
<path d="M20 10C20 15.5228 15.5228 20 10 20C4.47715 20 0 15.5228 0 10C0 4.47715 4.47715 0 10 0C15.5228 0 20 4.47715 20 10Z" fill="white"/>
<path d="M19 10C19 14.9706 14.9706 19 10 19V21C16.0751 21 21 16.0751 21 10H19ZM10 19C5.02944 19 1 14.9706 1 10H-1C-1 16.0751 3.92487 21 10 21V19ZM1 10C1 5.02944 5.02944 1 10 1V-1C3.92487 -1 -1 3.92487 -1 10H1ZM10 1C14.9706 1 19 5.02944 19 10H21C21 3.92487 16.0751 -1 10 -1V1Z" fill="#691338" fill-opacity="0.27" mask="url(#path-1-inside-1_38_32583)"/>
<path d="M15.5882 5L5 9.42941V10.0059L9.02353 11.5647L10.5765 15.5882H11.1529L15.5882 5Z" fill="#691338"/>
</svg>
