<svg width="19" height="25" viewBox="0 0 19 25" fill="none" xmlns="http://www.w3.org/2000/svg">
<path d="M18.2751 6.35167L15.7693 3.90723L14.972 4.685L15.9402 5.62945V8.185C15.9402 8.79612 16.4527 9.29612 17.0791 9.29612H17.6486V17.6294C17.6486 18.5739 16.9083 19.2961 15.9402 19.2961H14.2317V1.51834C14.2317 0.907227 13.7192 0.407227 13.0927 0.407227H1.70294C1.07651 0.407227 0.563965 0.907227 0.563965 1.51834V24.2961C0.563965 24.6294 0.848709 24.8517 1.13345 24.8517H13.6622C14.0039 24.8517 14.2317 24.6294 14.2317 24.2961V20.4072H15.9402C17.5347 20.4072 18.7876 19.185 18.7876 17.6294V7.51834C18.7876 7.07389 18.6168 6.685 18.2751 6.35167ZM7.39816 18.7402C6.37308 18.7402 5.51885 17.9069 5.51885 16.9069C5.5758 15.4069 7.39816 13.7402 7.39816 13.7402C7.39816 13.7402 9.27747 15.4069 9.27747 16.9069C9.27747 17.9069 8.42324 18.7402 7.39816 18.7402ZM11.9541 8.74024C11.9541 9.07358 11.7263 9.2958 11.3846 9.2958H3.41174C3.07004 9.2958 2.84225 9.07358 2.84225 8.74024V3.18469C2.84225 2.85135 3.07004 2.62913 3.41174 2.62913H11.3846C11.7263 2.62913 11.9541 2.85135 11.9541 3.18469V8.74024ZM17.649 8.18469H17.0795V6.74024L17.4781 7.12913C17.592 7.24024 17.649 7.35135 17.649 7.51802V8.18469Z" fill="#89A619"/>
</svg>
