<svg width="16" height="16" viewBox="0 0 16 16" fill="none" xmlns="http://www.w3.org/2000/svg">
<g clip-path="url(#clip0_2071_10026)">
<path d="M7.99594 1.33594C4.31594 1.33594 1.33594 4.3226 1.33594 8.0026C1.33594 11.6826 4.31594 14.6693 7.99594 14.6693C11.6826 14.6693 14.6693 11.6826 14.6693 8.0026C14.6693 4.3226 11.6826 1.33594 7.99594 1.33594ZM8.0026 13.3359C5.05594 13.3359 2.66927 10.9493 2.66927 8.0026C2.66927 5.05594 5.05594 2.66927 8.0026 2.66927C10.9493 2.66927 13.3359 5.05594 13.3359 8.0026C13.3359 10.9493 10.9493 13.3359 8.0026 13.3359ZM8.33594 4.66927H7.33594V8.66927L10.8359 10.7693L11.3359 9.94927L8.33594 8.16927V4.66927Z" fill="#878787"/>
</g>
<defs>
<clipPath id="clip0_2071_10026">
<rect width="16" height="16" fill="white"/>
</clipPath>
</defs>
</svg>
