<svg width="18" height="18" viewBox="0 0 18 18" fill="none" xmlns="http://www.w3.org/2000/svg">
<path d="M15.1875 15.1877C14.9638 15.1875 14.7493 15.0984 14.5911 14.9404C14.4329 14.7822 14.344 14.5677 14.3438 14.3439V10.9689H13.7812V14.3439C13.7812 14.8463 14.0493 15.3106 14.4844 15.5617C14.9194 15.813 15.4554 15.813 15.8906 15.5617C16.3257 15.3106 16.5938 14.8463 16.5938 14.3439V7.45316C16.7428 7.45303 16.8858 7.39364 16.9913 7.28818C17.0967 7.18271 17.156 7.03982 17.1562 6.89067V5.76567C17.1559 5.64915 17.1192 5.53564 17.0514 5.44086C16.9837 5.34607 16.8881 5.27475 16.7779 5.2367L17.0658 4.73283L17.8076 4.48561C17.955 4.43652 18.0346 4.27718 17.9856 4.12992C17.9365 3.98251 17.7771 3.90291 17.6299 3.952L16.7861 4.23325C16.7204 4.2551 16.6652 4.30042 16.6308 4.36056L16.1493 5.20319H16.0313C15.8821 5.20331 15.7391 5.2627 15.6336 5.36817C15.5283 5.47364 15.4689 5.61653 15.4688 5.76568V6.89068C15.4689 7.03984 15.5283 7.18273 15.6336 7.28819C15.7391 7.39366 15.8821 7.45305 16.0313 7.45318V14.344C16.031 14.5677 15.942 14.7822 15.7838 14.9404C15.6257 15.0985 15.4111 15.1875 15.1875 15.1877L15.1875 15.1877Z" fill="#161614"/>
<path d="M0.562511 12.5153V14.484C0.561632 14.8576 0.709413 15.2161 0.9732 15.4806C1.237 15.7451 1.59523 15.8937 1.96876 15.8937C2.34229 15.8937 2.70053 15.7452 2.96445 15.4806C3.22825 15.2162 3.37591 14.8576 3.37501 14.484V10.9682H2.81251V14.484C2.81326 14.7083 2.72462 14.9236 2.56642 15.0823C2.40809 15.2411 2.19302 15.3304 1.96875 15.3304C1.74449 15.3304 1.52955 15.2411 1.37122 15.0823C1.21289 14.9236 1.12437 14.7083 1.125 14.484V12.5153C1.27416 12.5152 1.41717 12.4558 1.52264 12.3503C1.62798 12.2448 1.68737 12.1019 1.68749 11.9528V10.8278C1.68724 10.6814 1.62986 10.5409 1.52753 10.436C1.4252 10.3313 1.28608 10.2705 1.13983 10.2668L1.3475 9.64388L1.68763 9.5305L1.68751 8.9375L1.0361 9.15472C0.952101 9.18271 0.886182 9.24863 0.858183 9.33263L0.576933 10.1764C0.56739 10.205 0.562494 10.235 0.562494 10.2653C0.413457 10.2654 0.270447 10.3248 0.164983 10.4303C0.0595191 10.5357 0.000250714 10.6786 0 10.8278V11.9528C0.0002511 12.1019 0.0595159 12.2448 0.164983 12.3503C0.27045 12.4557 0.413463 12.5151 0.562494 12.5153L0.562511 12.5153Z" fill="#161614"/>
<path d="M11.3908 2.6927L11.3906 1.6875H5.76562V2.6927C7.59414 2.10221 9.56202 2.10221 11.3906 2.6927H11.3908Z" fill="#161614"/>
<path d="M8.56254 4.50065L8.87367 3.56725C8.92276 3.41985 9.0821 3.34024 9.22936 3.38934C9.37677 3.43843 9.45637 3.59776 9.40728 3.74503L9.1195 4.60861C9.5489 4.78866 9.86181 5.16886 9.95586 5.62487H11.3909L11.3906 3.2905C9.5698 2.65317 7.5862 2.65317 5.76562 3.2905V5.62487H7.20026C7.26504 5.31022 7.43543 5.02708 7.68327 4.82255C7.93112 4.61814 8.24136 4.50452 8.56266 4.50061L8.56254 4.50065Z" fill="#161614"/>
<path d="M8.57774 5.0625C8.40347 5.06275 8.23346 5.11699 8.0912 5.21769C7.94906 5.31839 7.84146 5.46064 7.7832 5.625H9.37228C9.31415 5.46065 9.20655 5.31839 9.06429 5.21769C8.92203 5.11699 8.75203 5.06275 8.57774 5.0625Z" fill="#161614"/>
<path d="M17.7188 17.4375H13.2188V10.4063H14.3438C14.4929 10.4063 14.6361 10.347 14.7415 10.2415C14.847 10.1361 14.9063 9.99291 14.9063 9.84375V8.4375C14.9063 8.28834 14.847 8.1452 14.7415 8.03973C14.6361 7.93427 14.4929 7.875 14.3438 7.875H13.2188V0.5625C13.2188 0.413338 13.1595 0.270199 13.054 0.164732C12.9486 0.059265 12.8054 0 12.6563 0H4.5C4.35084 0 4.2077 0.059265 4.10223 0.164732C3.99677 0.270199 3.9375 0.413338 3.9375 0.5625V7.875H2.8125C2.66334 7.875 2.5202 7.93427 2.41473 8.03973C2.30927 8.1452 2.25 8.28834 2.25 8.4375V9.84375C2.25 9.99291 2.30927 10.1361 2.41473 10.2415C2.5202 10.347 2.66334 10.4063 2.8125 10.4063H3.9375V17.4375H0.28125C0.125936 17.4375 0 17.5634 0 17.7188C0 17.8741 0.125936 18 0.28125 18H17.7188C17.8741 18 18 17.8741 18 17.7188C18 17.5634 17.8741 17.4375 17.7188 17.4375ZM13.2188 8.4375H14.3438V9.84375H13.2188V8.4375ZM3.9375 9.84375H2.8125V8.4375H3.9375V9.84375ZM5.20313 1.6875C5.20313 1.53834 5.26239 1.3952 5.36786 1.28973C5.47332 1.18427 5.61646 1.125 5.76563 1.125H11.3906C11.5398 1.125 11.6829 1.18427 11.7884 1.28973C11.8939 1.3952 11.9531 1.53834 11.9531 1.6875V5.625C11.9531 5.77416 11.8939 5.9173 11.7884 6.02277C11.6829 6.12824 11.5398 6.1875 11.3906 6.1875H5.76563C5.61646 6.1875 5.47332 6.12824 5.36786 6.02277C5.26239 5.9173 5.20313 5.77416 5.20313 5.625V1.6875ZM11.6719 8.15625V14.9063C11.6714 15.0614 11.5458 15.187 11.3906 15.1875H5.76563C5.61044 15.187 5.48488 15.0614 5.48438 14.9063V8.15625C5.48488 8.00106 5.61044 7.8755 5.76563 7.875H11.3906C11.5458 7.8755 11.6714 8.00106 11.6719 8.15625ZM12.6563 17.4375H4.5V16.5938H12.6563V17.4375Z" fill="#161614"/>
<path d="M10.2 11.5975L8.82995 8.87356C8.78224 8.77864 8.68493 8.71875 8.57871 8.71875C8.47249 8.71875 8.37518 8.77864 8.32747 8.87356L6.95738 11.5975C6.65466 12.1933 6.68504 12.904 7.03749 13.4718C7.36255 14.0128 7.94751 14.3438 8.5787 14.3438C9.20989 14.3438 9.79486 14.0128 10.1199 13.4718C10.4724 12.904 10.5027 12.1933 10.2 11.5975H10.2Z" fill="#161614"/>
</svg>
