<svg width="41" height="41" viewBox="0 0 41 41" fill="none" xmlns="http://www.w3.org/2000/svg">
<path d="M34.5938 34.5942C34.0841 34.5936 33.5956 34.3909 33.2353 34.0308C32.8749 33.6705 32.6724 33.182 32.6719 32.6723V24.9848H31.3906V32.6723C31.3906 33.8166 32.0012 34.8742 32.9922 35.4462C33.9831 36.0185 35.2041 36.0185 36.1953 35.4462C37.1863 34.8742 37.7969 33.8166 37.7969 32.6723V16.9766C38.1363 16.9764 38.4621 16.8411 38.7023 16.6008C38.9425 16.3606 39.0775 16.0351 39.0781 15.6954V13.1329C39.0773 12.8675 38.9937 12.609 38.8393 12.3931C38.6852 12.1772 38.4672 12.0147 38.2164 11.928L38.8722 10.7803L40.5618 10.2172C40.8976 10.1054 41.0789 9.74247 40.9671 9.40703C40.8553 9.07128 40.4923 8.88995 40.1569 9.00177L38.235 9.6424C38.0854 9.69216 37.9596 9.7954 37.8813 9.93239L36.7845 11.8517H36.5157C36.1759 11.852 35.8502 11.9873 35.6099 12.2275C35.37 12.4677 35.2347 12.7932 35.2344 13.1329V15.6954C35.2347 16.0352 35.37 16.3607 35.6099 16.6009C35.8502 16.8411 36.1759 16.9764 36.5157 16.9767V32.6724C36.5151 33.182 36.3123 33.6705 35.952 34.0308C35.5919 34.3909 35.1031 34.5937 34.5938 34.5943L34.5938 34.5942Z" fill="#4F5053"/>
<path d="M1.28127 28.5088V32.9931C1.27927 33.844 1.61589 34.6607 2.21673 35.2631C2.8176 35.8657 3.63358 36.204 4.4844 36.204C5.33522 36.204 6.1512 35.8657 6.75236 35.2631C7.35323 34.6608 7.68957 33.844 7.68752 32.9931V24.985H6.40627V32.9931C6.40799 33.5039 6.20608 33.9944 5.84573 34.3559C5.48509 34.7177 4.9952 34.921 4.48439 34.921C3.97357 34.921 3.48398 34.7177 3.12333 34.3559C2.76269 33.9944 2.56107 33.5039 2.5625 32.9931V28.5088C2.90225 28.5085 3.228 28.3732 3.46823 28.133C3.70817 27.8927 3.84345 27.5673 3.84374 27.2275V24.665C3.84317 24.3316 3.71246 24.0115 3.47938 23.7727C3.24629 23.5342 2.92942 23.3958 2.59627 23.3872L3.0693 21.9684L3.84405 21.7101L3.84377 20.3594L2.36001 20.8541C2.16867 20.9179 2.01853 21.0681 1.95475 21.2594L1.31412 23.1813C1.29239 23.2465 1.28124 23.3148 1.28124 23.3838C0.941763 23.384 0.616018 23.5193 0.375795 23.7595C0.135571 23.9998 0.000571071 24.3252 0 24.665V27.2275C0.00057195 27.5672 0.135564 27.8927 0.375795 28.1329C0.616025 28.3732 0.941778 28.5084 1.28124 28.5087L1.28127 28.5088Z" fill="#4F5053"/>
<path d="M25.9456 6.13338L25.9453 3.84375H13.1328V6.13338C17.2978 4.78836 21.7802 4.78836 25.9453 6.13338H25.9456Z" fill="#4F5053"/>
<path d="M19.5036 10.2515L20.2122 8.12541C20.3241 7.78966 20.687 7.60833 21.0224 7.72015C21.3582 7.83197 21.5395 8.1949 21.4277 8.53034L20.7722 10.4974C21.7503 10.9075 22.463 11.7735 22.6772 12.8122H25.9459L25.9453 7.49502C21.7979 6.04333 17.2797 6.04333 13.1328 7.49502V12.8122H16.4006C16.5482 12.0955 16.9363 11.4506 17.5008 10.9847C18.0653 10.5191 18.772 10.2603 19.5038 10.2514L19.5036 10.2515Z" fill="#4F5053"/>
<path d="M19.5403 11.5312C19.1433 11.5318 18.7561 11.6554 18.432 11.8847C18.1083 12.1141 17.8632 12.4381 17.7305 12.8125H21.35C21.2176 12.4381 20.9725 12.1141 20.6485 11.8847C20.3245 11.6554 19.9372 11.5318 19.5403 11.5312Z" fill="#4F5053"/>
<path d="M40.3594 39.7188H30.1094V23.7031H32.6719C33.0116 23.7031 33.3377 23.5681 33.5779 23.3279C33.8181 23.0877 33.9531 22.7616 33.9531 22.4219V19.2188C33.9531 18.879 33.8181 18.553 33.5779 18.3127C33.3377 18.0725 33.0116 17.9375 32.6719 17.9375H30.1094V1.28125C30.1094 0.941492 29.9744 0.615454 29.7342 0.375223C29.4939 0.134993 29.1679 0 28.8281 0H10.25C9.91024 0 9.5842 0.134993 9.34397 0.375223C9.10374 0.615454 8.96875 0.941492 8.96875 1.28125V17.9375H6.40625C6.06649 17.9375 5.74045 18.0725 5.50022 18.3127C5.25999 18.553 5.125 18.879 5.125 19.2188V22.4219C5.125 22.7616 5.25999 23.0877 5.50022 23.3279C5.74045 23.5681 6.06649 23.7031 6.40625 23.7031H8.96875V39.7188H0.640625C0.286854 39.7188 0 40.0056 0 40.3594C0 40.7131 0.286854 41 0.640625 41H40.3594C40.7131 41 41 40.7131 41 40.3594C41 40.0056 40.7131 39.7188 40.3594 39.7188ZM30.1094 19.2188H32.6719V22.4219H30.1094V19.2188ZM8.96875 22.4219H6.40625V19.2188H8.96875V22.4219ZM11.8516 3.84375C11.8516 3.50399 11.9866 3.17795 12.2268 2.93772C12.467 2.69749 12.7931 2.5625 13.1328 2.5625H25.9453C26.2851 2.5625 26.6111 2.69749 26.8513 2.93772C27.0916 3.17795 27.2266 3.50399 27.2266 3.84375V12.8125C27.2266 13.1523 27.0916 13.4783 26.8513 13.7185C26.6111 13.9588 26.2851 14.0938 25.9453 14.0938H13.1328C12.7931 14.0938 12.467 13.9588 12.2268 13.7185C11.9866 13.4783 11.8516 13.1523 11.8516 12.8125V3.84375ZM26.5859 18.5781V33.9531C26.5848 34.3066 26.2988 34.5926 25.9453 34.5938H13.1328C12.7793 34.5926 12.4933 34.3066 12.4922 33.9531V18.5781C12.4933 18.2246 12.7793 17.9386 13.1328 17.9375H25.9453C26.2988 17.9386 26.5848 18.2246 26.5859 18.5781ZM28.8281 39.7188H10.25V37.7969H28.8281V39.7188Z" fill="#4F5053"/>
<path d="M23.2334 26.4166L20.1127 20.212C20.004 19.9958 19.7823 19.8594 19.5404 19.8594C19.2984 19.8594 19.0768 19.9958 18.9681 20.212L15.8474 26.4166C15.1578 27.7736 15.227 29.3924 16.0298 30.6857C16.7702 31.918 18.1027 32.6719 19.5404 32.6719C20.9781 32.6719 22.3105 31.918 23.0509 30.6857C23.8537 29.3924 23.9229 27.7737 23.2334 26.4166H23.2334Z" fill="#4F5053"/>
</svg>
