<svg width="30" height="30" viewBox="0 0 30 30" fill="none" xmlns="http://www.w3.org/2000/svg">
<rect x="0.5" y="0.5" width="29" height="29" rx="3.5" fill="white" stroke="#DEDEDE"/>
<path d="M8.92709 4.28516C6.36719 4.28516 4.28516 6.36791 4.28516 8.92769C4.28516 10.6935 5.40999 12.5129 6.50192 13.9233C7.5939 15.3336 8.6873 16.3359 8.6873 16.3359C8.82378 16.461 9.03344 16.461 9.16991 16.3359C9.16991 16.3359 10.2606 15.3335 11.3524 13.9233C12.4444 12.5129 13.5698 10.6936 13.5698 8.92769C13.5698 6.36791 11.487 4.28516 8.92709 4.28516ZM8.92709 6.42852C10.3035 6.42852 11.4264 7.55121 11.4264 8.92769C11.4264 10.304 10.3036 11.4296 8.92709 11.4296C7.55068 11.4296 6.4278 10.304 6.4278 8.92769C6.4278 7.55133 7.55055 6.42852 8.92709 6.42852ZM14.1747 9.99969C13.8504 11.6515 12.8473 13.1592 11.9168 14.361C10.7842 15.8239 9.65267 16.8629 9.65267 16.8629C9.24786 17.2336 8.61012 17.2336 8.20531 16.8629C8.20531 16.8629 7.0706 15.8244 5.93765 14.361C5.86367 14.2655 5.7889 14.1632 5.71444 14.0638V20.7132H8.34687C8.89882 20.2676 9.59827 19.9983 10.3572 19.9983C11.116 19.9983 11.8149 20.2676 12.3667 20.7132H18.5719V11.0726C18.5719 10.4853 18.0858 9.99985 17.4984 9.99985L14.1747 9.99969ZM19.642 12.8566C19.4457 12.8573 19.2869 13.0169 19.2863 13.2131V20.7134H19.7752C20.3272 20.2678 21.0266 19.9985 21.7856 19.9985C22.5443 19.9985 23.2433 20.2678 23.7951 20.7134H25.7132V17.4993C25.7131 17.4646 25.7078 17.4302 25.6978 17.3968L24.6348 13.8536C24.5831 13.6125 24.483 13.3756 24.3083 13.184C24.1335 12.9924 23.866 12.8568 23.5696 12.8568L19.642 12.8566ZM20.3562 14.283H23.0062C23.1645 14.283 23.3039 14.3873 23.3487 14.5391L24.2053 17.3967C24.2736 17.6258 24.1018 17.8556 23.8628 17.8556H22.1413C22.0465 17.8563 21.9553 17.8191 21.8881 17.7523L21.2792 17.1406H20.3564C20.1592 17.1413 19.9986 16.9822 19.9978 16.7849V14.6416C19.9972 14.4433 20.1581 14.2822 20.3564 14.283L20.3562 14.283ZM20.3562 18.5701H21.0712C21.5578 18.5592 21.5578 19.2948 21.0712 19.2843H20.3562C19.8696 19.2951 19.8696 18.5595 20.3562 18.5701ZM10.3573 20.7134C8.98085 20.7134 7.85798 21.8355 7.85798 23.2118C7.85798 24.5882 8.98073 25.7137 10.3573 25.7137C11.7337 25.7137 12.8558 24.5882 12.8558 23.2118C12.8558 21.8355 11.7337 20.7134 10.3573 20.7134ZM21.7856 20.7134C20.4092 20.7134 19.2863 21.8355 19.2863 23.2118C19.2863 24.5882 20.409 25.7137 21.7856 25.7137C23.162 25.7137 24.2849 24.5882 24.2849 23.2118C24.2849 21.8355 23.1621 20.7134 21.7856 20.7134ZM5.71451 21.4277V23.2118C5.71387 23.409 5.87299 23.5696 6.07021 23.5704H7.16537C7.15182 23.4526 7.14448 23.3331 7.14448 23.2118C7.14448 22.5524 7.34473 21.9386 7.68782 21.4277H5.71451ZM13.0262 21.4277C13.3693 21.9386 13.5695 22.5524 13.5695 23.2118C13.5695 23.333 13.5614 23.4524 13.5486 23.5704H18.5946C18.5811 23.4526 18.5731 23.3331 18.5731 23.2118C18.5731 22.5524 18.7734 21.9386 19.1165 21.4277H13.0262ZM24.4545 21.4277C24.7976 21.9386 24.9987 22.5524 24.9987 23.2118C24.9987 23.333 24.9905 23.4524 24.9771 23.5704H25.3552C25.5535 23.571 25.7145 23.4102 25.7137 23.2118V21.4277H24.4545ZM10.3573 22.1419C10.9448 22.1419 11.4272 22.6243 11.4272 23.2118C11.4272 23.7993 10.9448 24.2853 10.3573 24.2853C9.76973 24.2853 9.28378 23.7993 9.28378 23.2118C9.28378 22.6243 9.76973 22.1419 10.3573 22.1419ZM21.7856 22.1419C22.3731 22.1419 22.8556 22.6243 22.8556 23.2118C22.8556 23.7993 22.3731 24.2853 21.7856 24.2853C21.198 24.2853 20.7121 23.7993 20.7121 23.2118C20.7121 22.6243 21.198 22.1419 21.7856 22.1419Z" fill="#343434"/>
</svg>
