<svg width="98" height="41" viewBox="0 0 98 41" fill="none" xmlns="http://www.w3.org/2000/svg">
<path d="M38.2986 18.3121C39.6382 18.3121 41.0527 18.5354 42.318 19.0567L42.8393 18.0888C39.6388 16.8235 36.0654 16.9725 32.9392 18.4611L32.1204 16.7492C35.7675 14.8878 40.0105 14.8136 43.7323 16.3764L45.6676 12.8036C44.03 14.367 41.2011 14.8878 40.7546 14.8878H40.5313C40.0848 14.8878 39.7125 14.6645 39.415 14.3665C37.4798 11.9101 37.4798 8.41142 39.415 5.8807C39.7125 5.50841 40.2338 5.28514 40.7546 5.35939C41.2759 5.43364 45.5186 6.10397 46.5607 8.78375H47.7518L52.0691 0.744579C52.3666 0.298038 52.8137 0 53.3345 0L60.9271 0.000519229C61.746 0.149539 62.2667 0.968355 62.1183 1.78713C61.9692 2.38269 61.5227 2.82922 60.9271 2.97824H54.2281L52.2182 6.77438C52.3672 6.70013 52.4414 6.55111 52.5905 6.47686C55.791 4.24362 60.9272 5.65803 62.4164 6.17934C64.203 6.70065 65.8407 7.59377 67.3293 8.71005L87.5017 8.70954C89.4369 8.63529 91.0745 10.0491 91.1492 11.9849C91.1492 12.4314 91.075 12.9527 90.926 13.3993L90.8517 13.5483C90.5542 14.4414 90.0329 15.2602 89.2883 15.8557C92.8611 16.8231 95.8383 19.0563 97.6992 22.1083L96.0616 23.1504C93.9032 19.6519 90.1814 17.4186 86.0872 17.2701H85.7149H77.8248L74.0286 25.4584H74.9217C77.2291 19.6519 83.854 16.749 89.6602 19.0564C95.4663 21.3638 98.295 27.9145 95.9876 33.7948C93.6802 39.6752 87.1295 42.4296 81.3235 40.1222C78.3463 38.9311 76.0383 36.6237 74.922 33.6464L63.2351 33.7206H62.5653C59.141 33.6464 56.0895 31.5622 54.8984 28.3612L50.5067 16.3768C49.9112 14.8134 49.6879 13.1763 49.7621 11.5387H49.6879L46.3384 17.8661C50.2835 20.5458 52.6658 24.9375 52.6658 29.7014H50.7305C50.7305 25.6821 48.7206 21.8854 45.4453 19.578L44.924 20.5459C49.9854 24.1934 51.1022 31.2649 47.4547 36.3264C43.8071 41.388 36.7356 42.5047 31.6741 38.8572C26.6127 35.2096 25.4958 28.1381 29.1434 23.0766C31.3018 20.0245 34.6514 18.3126 38.299 18.3126L38.2986 18.3121ZM41.2758 8.48617C40.7545 9.52826 40.7545 10.7936 41.2758 11.8357C42.6154 11.4634 43.9556 10.7936 43.9556 10.1981C43.9556 9.60256 42.616 8.78365 41.2758 8.48617ZM85.4913 37.9631C90.1062 37.9631 93.9027 34.2413 93.9027 29.5516C93.9027 24.9367 90.1809 21.1402 85.4913 21.1402C82.4392 21.1402 79.611 22.7778 78.1219 25.4575C81.6947 25.5317 84.8209 25.6065 85.4913 25.6065H85.7888C87.9472 25.7555 89.5849 27.6907 89.4363 29.8497C89.2873 31.7849 87.7244 33.3482 85.7888 33.4972H85.4913H78.1219C79.5363 36.2507 82.3651 37.9631 85.4913 37.9631V37.9631ZM84.3749 29.6258C84.3749 30.2214 84.8215 30.6679 85.417 30.6679C86.0126 30.6679 86.4591 30.2213 86.4591 29.6258C86.4591 29.0302 86.0126 28.5837 85.417 28.5837C84.8957 28.5095 84.4492 29.0303 84.3749 29.6258ZM77.1546 30.6679H81.6952C81.4719 29.9233 81.4719 29.1793 81.6952 28.5095L77.1546 28.4352C77.0798 29.1793 77.0798 29.9238 77.1546 30.6679V30.6679ZM74.6233 17.2693H68.2218L68.7431 20.4698C68.7431 20.544 68.8173 20.6188 68.8921 20.6188H72.9862L74.6233 17.2693ZM68.6688 30.7423H74.1772C74.1772 30.37 74.103 29.9977 74.103 29.626C74.103 29.1794 74.103 28.8072 74.1772 28.3606L68.5202 28.2864C68.7429 29.1047 68.7429 29.9235 68.6687 30.7424L68.6688 30.7423ZM59.2895 22.3308H62.7133C62.9366 22.4051 63.2346 22.4051 63.4579 22.4799V20.6932H59.3643L59.2895 22.3308ZM55.8657 22.3308H57.3543V20.6932C57.3543 19.6511 58.2473 18.758 59.2895 18.758H63.4578C64.4999 18.758 65.393 19.6511 65.393 20.6932V23.373C66.2119 23.8943 66.8816 24.5641 67.403 25.3082H67.4772L70.8267 25.3824L72.1663 22.5537H68.9658C67.9237 22.5537 67.0306 21.8091 66.8816 20.7671L66.286 17.2686L66.0633 17.2696H54.0046L55.8657 22.3308ZM52.9626 14.3658H62.1925C62.0435 13.9193 61.9692 13.4728 61.9692 13.0263C61.9692 11.7609 62.5648 10.5698 63.5327 9.75091C62.8629 9.45338 62.2673 9.15534 61.5228 8.93207C60.1083 8.48553 58.6197 8.1875 57.1311 8.1875C56.089 8.11325 55.1212 8.33651 54.1539 8.8573C52.2925 10.1974 52.6648 12.8772 52.9628 14.3658L52.9626 14.3658ZM38.2986 37.9623C42.9135 37.9623 46.7101 34.2405 46.7101 29.6255C46.7101 27.02 45.519 24.6383 43.5096 23.0006L41.3512 27.0948C41.9467 27.8394 42.2442 28.7324 42.2442 29.6255C42.2442 31.7839 40.4576 33.5707 38.2991 33.5707C36.1406 33.5707 34.354 31.784 34.354 29.6255C34.354 27.4671 36.1406 25.6804 38.2991 25.6804C38.4481 25.6804 38.5966 25.6804 38.8204 25.7546L40.9788 21.7353C36.5872 20.2467 31.8232 22.6284 30.3346 27.0206C28.846 31.4122 31.2277 36.1762 35.6199 37.6648C36.4377 37.8133 37.405 37.9623 38.2986 37.9623L38.2986 37.9623ZM38.2986 28.5087C37.703 28.5087 37.2565 28.9552 37.2565 29.5508C37.2565 30.1463 37.703 30.5929 38.2986 30.5929C38.8942 30.5929 39.3407 30.1463 39.3407 29.5508C39.3407 29.0295 38.8941 28.5087 38.2986 28.5087Z" fill="#4F5053"/>
<path d="M0 37.5695H18.45V21.0156H0V37.5695ZM8.53313 23.2918C8.9429 23.016 9.5071 23.016 9.91688 23.2918C10.4358 23.6414 14.9906 26.8095 14.9906 30.3272C14.9906 32.1752 13.8916 33.8832 12.1078 34.807C10.3241 35.7313 8.12591 35.7313 6.34219 34.807C4.55847 33.8833 3.45938 32.1752 3.45938 30.3272C3.45938 26.8095 8.01415 23.6414 8.53313 23.2918Z" fill="#4F5053"/>
<path d="M0 38.9297H18.45V40.9989H0V38.9297Z" fill="#4F5053"/>
<path d="M14.9906 16.9082H3.45931C2.54196 16.9082 1.66162 17.2352 1.0131 17.8172C0.364585 18.3992 0 19.189 0 20.012H18.45C18.45 19.1889 18.0855 18.3991 17.4369 17.8172C16.7883 17.2353 15.9079 16.9082 14.9907 16.9082H14.9906Z" fill="#4F5053"/>
<path d="M17.2961 9.16406H14.9898V11.2333H12.6836V9.16406H10.3773V11.2333H8.07109V9.16406H5.76484V11.2333H3.45859V9.16406H1.15234V13.3025H17.2961V9.16406Z" fill="#4F5053"/>
<path d="M11.5622 5.42341C11.5391 5.34165 11.5278 5.2576 11.5278 5.17307V2.06921C11.5278 1.32973 11.0881 0.646637 10.3746 0.27713C9.66113 -0.0923767 8.78187 -0.0923767 8.06838 0.27713C7.35489 0.646637 6.91526 1.32976 6.91526 2.06921V5.17307C6.91526 5.25759 6.90393 5.34165 6.88077 5.42341L6.08594 8.27695H12.3566L11.5622 5.42341Z" fill="#4F5053"/>
<path d="M5.76562 14.0703H12.6844V16.1396H5.76562V14.0703Z" fill="#4F5053"/>
<path d="M9.22506 33.431C10.1424 33.431 11.0228 33.104 11.6713 32.522C12.3198 31.94 12.6844 31.1502 12.6844 30.3272C12.6844 28.5601 10.5866 26.5301 9.225 25.457C7.86339 26.53 5.76562 28.5609 5.76562 30.3272C5.76562 31.1503 6.13009 31.9401 6.77873 32.522C7.42736 33.1039 8.3077 33.431 9.22493 33.431H9.22506Z" fill="#4F5053"/>
</svg>
