<svg width="24" height="24" viewBox="0 0 24 24" fill="none" xmlns="http://www.w3.org/2000/svg">
<mask id="mask0_38_16059" style="mask-type:alpha" maskUnits="userSpaceOnUse" x="0" y="0" width="24" height="24">
<rect width="24" height="24" fill="#3E3E3E"/>
</mask>
<g mask="url(#mask0_38_16059)">
<path d="M18.0823 2.00025C15.7678 2.00025 13.8232 3.59332 13.3076 5.72158H6.16728L5.66963 3.84972C5.59492 3.56969 5.33815 3.37448 5.04439 3.3743H1.66424C1.64348 3.37341 1.62291 3.37341 1.60234 3.3743C1.25119 3.39866 0.983937 3.69487 1.00075 4.04138C1.01771 4.38774 1.3122 4.65763 1.66424 4.64876H4.54291L7.00979 13.9022C6.44372 14.1824 6.04728 14.7555 6.04728 15.4156C6.04728 16.3452 6.827 17.1145 7.7702 17.1145H17.8817C18.2332 17.1069 18.5142 16.8238 18.5142 16.4773C18.5142 16.1307 18.2332 15.8477 17.8817 15.84H7.7702C7.52064 15.84 7.34073 15.6606 7.34073 15.4156C7.34073 15.1706 7.52064 14.9925 7.7702 14.9925H17.9487C18.2311 14.9921 18.4807 14.8113 18.5651 14.5457L19.5466 11.4578C21.5429 10.8428 23 9.00387 23 6.84021C23 4.17518 20.7886 2 18.0826 2L18.0823 2.00025ZM18.0823 3.27471C20.0897 3.27471 21.7062 4.86478 21.7062 6.84046C21.7062 8.53276 20.519 9.93575 18.9172 10.3042C18.8854 10.3097 18.8542 10.3177 18.8237 10.3278C18.5846 10.3762 18.3363 10.4012 18.0822 10.4012C16.0749 10.4012 14.4634 8.81618 14.4634 6.8405C14.4634 4.86481 16.0749 3.27475 18.0822 3.27475L18.0823 3.27471ZM20.1967 4.85535C20.0296 4.85962 19.8706 4.92736 19.7534 5.04453L17.4191 7.29722L16.4162 6.33765C16.1576 6.10135 15.755 6.11202 15.5096 6.36147C15.2644 6.61093 15.2664 7.00794 15.5143 7.25491L16.9745 8.64762C17.2269 8.88676 17.6266 8.88463 17.8763 8.64264L20.6552 5.95185C20.8466 5.77032 20.906 5.49191 20.8048 5.24972C20.7036 5.00774 20.4623 4.85127 20.1967 4.85536L20.1967 4.85535ZM6.50695 6.99603H13.1775C13.2619 9.58887 15.4296 11.6769 18.0824 11.6769C18.0952 11.6769 18.1075 11.6746 18.1203 11.6744L17.471 13.718H8.29585L6.50695 6.99603ZM9.44627 17.392C8.4426 17.392 7.61345 18.204 7.61345 19.1929C7.61345 20.1818 8.4426 21 9.44627 21C10.4499 21 11.274 20.1818 11.274 19.1929C11.274 18.2039 10.4499 17.392 9.44627 17.392ZM15.6003 17.392C14.5966 17.392 13.7662 18.204 13.7662 19.1929C13.7662 20.1818 14.5967 21 15.6003 21C16.604 21 17.428 20.1818 17.428 19.1929C17.428 18.2039 16.6039 17.392 15.6003 17.392ZM9.44627 18.6664C9.75141 18.6664 9.98564 18.8931 9.98564 19.1929C9.98564 19.4926 9.75142 19.7243 9.44627 19.7243C9.14113 19.7243 8.9069 19.4926 8.9069 19.1929C8.9069 18.8931 9.14112 18.6664 9.44627 18.6664ZM15.6003 18.6664C15.9054 18.6664 16.1346 18.8931 16.1346 19.1929C16.1346 19.4926 15.9054 19.7243 15.6003 19.7243C15.2952 19.7243 15.0609 19.4926 15.0609 19.1929C15.0609 18.8931 15.2952 18.6664 15.6003 18.6664Z" fill="#3E3E3E"/>
</g>
</svg>
