<svg width="20" height="20" viewBox="0 0 20 20" fill="none" xmlns="http://www.w3.org/2000/svg">
<g clip-path="url(#clip0_2425_13839)">
<path d="M9.99935 5.83268C7.69935 5.83268 5.83268 7.69935 5.83268 9.99935C5.83268 12.2993 7.69935 14.166 9.99935 14.166C12.2993 14.166 14.166 12.2993 14.166 9.99935C14.166 7.69935 12.2993 5.83268 9.99935 5.83268ZM9.99935 1.66602C5.39935 1.66602 1.66602 5.39935 1.66602 9.99935C1.66602 14.5993 5.39935 18.3327 9.99935 18.3327C14.5993 18.3327 18.3327 14.5993 18.3327 9.99935C18.3327 5.39935 14.5993 1.66602 9.99935 1.66602ZM9.99935 16.666C6.31602 16.666 3.33268 13.6827 3.33268 9.99935C3.33268 6.31602 6.31602 3.33268 9.99935 3.33268C13.6827 3.33268 16.666 6.31602 16.666 9.99935C16.666 13.6827 13.6827 16.666 9.99935 16.666Z" fill="black"/>
</g>
<defs>
<clipPath id="clip0_2425_13839">
<rect width="20" height="20" fill="white"/>
</clipPath>
</defs>
</svg>
