<svg width="23" height="25" viewBox="0 0 23 25" fill="none" xmlns="http://www.w3.org/2000/svg">
<path d="M11.2189 6.29969C11.5726 6.29969 11.9118 6.15918 12.1619 5.90909C12.412 5.65899 12.5525 5.31978 12.5525 4.96609C12.5525 4.6124 12.412 4.27319 12.1619 4.02309C11.9118 3.77299 11.5726 3.63249 11.2189 3.63249C10.8652 3.63249 10.526 3.77299 10.2759 4.02309C10.0258 4.27319 9.8853 4.6124 9.8853 4.96609C9.8853 5.31978 10.0258 5.65899 10.2759 5.90909C10.526 6.15918 10.8652 6.29969 11.2189 6.29969ZM20.8189 18.2453V9.70129H20.9661C22.3949 9.70129 22.9821 7.86449 21.8141 7.03729L12.4541 0.394089C12.0932 0.137729 11.6616 0 11.2189 0C10.7762 0 10.3446 0.137729 9.9837 0.394089L0.620502 7.03729C-0.544297 7.86449 0.0397024 9.69969 1.4685 9.69969H1.6189V18.2437C0.657302 18.8613 0.0189026 19.9397 0.0189026 21.1669V23.2997C0.0189026 23.5119 0.103188 23.7153 0.253217 23.8654C0.403246 24.0154 0.606729 24.0997 0.818902 24.0997H21.6189C21.8311 24.0997 22.0346 24.0154 22.1846 23.8654C22.3346 23.7153 22.4189 23.5119 22.4189 23.2997V21.1669C22.4189 19.9397 21.7821 18.8613 20.8189 18.2453ZM10.9085 1.69969C10.9985 1.6359 11.1062 1.60164 11.2165 1.60164C11.3268 1.60164 11.4345 1.6359 11.5245 1.69969L20.5469 8.09969H1.8877L10.9101 1.69969H10.9085ZM19.2157 9.69969V17.7093C19.1273 17.7027 19.0387 17.6995 18.9501 17.6997H16.0157V9.70129H19.2157V9.69969ZM3.2189 17.7093V9.70129H6.4189V17.7013H3.4845C3.3949 17.7013 3.3053 17.7045 3.2173 17.7109L3.2189 17.7093ZM3.4861 19.2997H18.9533C19.9837 19.2997 20.8189 20.1349 20.8189 21.1669V22.4997H1.6189V21.1669C1.6189 20.1349 2.4557 19.2997 3.4861 19.2997ZM10.4189 17.6997H8.0189V9.70129H10.4189V17.7013V17.6997ZM12.0189 17.6997V9.70129H14.4189V17.7013H12.0189V17.6997Z" fill="white"/>
</svg>
