<svg width="28" height="28" viewBox="0 0 28 28" fill="none" xmlns="http://www.w3.org/2000/svg">
<circle cx="14" cy="14" r="14" fill="white"/>
<circle cx="14.0001" cy="14.0001" r="11.5294" fill="#005FA4"/>
<path d="M7.88286 8.88286V7H9.1381V8.88286H11.021V10.1381H9.1381V12.021H7.88286V10.1381H6V8.88286H7.88286ZM9.76571 12.6486V10.7657H11.6486V8.88286H16.0419L17.1904 10.1381H19.18C19.8704 10.1381 20.4352 10.703 20.4352 11.3933V18.9248C20.4352 19.6151 19.8704 20.18 19.18 20.18H9.1381C8.44771 20.18 7.88286 19.6151 7.88286 18.9248V12.6486H9.76571ZM14.159 18.2971C15.8913 18.2971 17.2971 16.8913 17.2971 15.159C17.2971 13.4268 15.8913 12.021 14.159 12.021C12.4268 12.021 11.021 13.4268 11.021 15.159C11.021 16.8913 12.4268 18.2971 14.159 18.2971ZM12.1507 15.159C12.1507 16.2699 13.0482 17.1674 14.159 17.1674C15.2699 17.1674 16.1674 16.2699 16.1674 15.159C16.1674 14.0482 15.2699 13.1507 14.159 13.1507C13.0482 13.1507 12.1507 14.0482 12.1507 15.159Z" fill="white"/>
</svg>
