<svg width="88" height="88" viewBox="0 0 88 88" fill="none" xmlns="http://www.w3.org/2000/svg">
<path d="M49.8667 82.1333H5.86665V26.4H23.4667C25.0859 26.4 26.4 25.0859 26.4 23.4667V5.86667H64.5333V38.1333C64.5333 39.7526 65.8448 41.0667 67.4667 41.0667C69.0885 41.0667 70.4 39.7526 70.4 38.1333V2.93333C70.4 1.3141 69.0885 0 67.4667 0H23.4667C22.6895 0 21.9411 0.307732 21.393 0.859702L0.859701 21.393C0.307732 21.9411 0 22.6895 0 23.4667V85.0667C0 86.6859 1.3141 88 2.93333 88H49.8667C51.4885 88 52.8 86.6859 52.8 85.0667C52.8 83.4474 51.4885 82.1333 49.8667 82.1333L49.8667 82.1333ZM20.5333 10.0152V20.534H10.0146L20.5333 10.0152Z" fill="#89A619"/>
<path d="M63.6802 59.5282C62.533 58.3811 60.6794 58.3811 59.5323 59.5282C58.3851 60.6754 58.3851 62.5289 59.5323 63.6761L65.3989 69.5428C65.9712 70.1144 66.7222 70.4018 67.4732 70.4018C68.2242 70.4018 68.9752 70.1144 69.5468 69.5421L84.2135 54.8755C85.3606 53.7283 85.3606 51.8747 84.2135 50.7276C83.0663 49.5804 81.2128 49.5804 80.0656 50.7276L67.4732 63.3206L63.6802 59.5282Z" fill="#89A619"/>
<path d="M85.063 61.6C83.4412 61.6 82.1297 62.9141 82.1297 64.5333C82.1297 72.6203 75.55 79.2 67.463 79.2C59.3761 79.2 52.7964 72.6203 52.7964 64.5333C52.7964 56.4464 59.3761 49.8667 67.463 49.8667C69.0849 49.8667 70.3964 48.5526 70.3964 46.9333C70.3964 45.3141 69.0849 44 67.463 44C56.1435 44 46.9297 53.2105 46.9297 64.5333C46.9297 75.8562 56.1435 85.0667 67.463 85.0667C78.7825 85.0667 87.9964 75.8562 87.9964 64.5333C87.9964 62.9141 86.6849 61.6 85.063 61.6Z" fill="#89A619"/>
<path d="M44.001 32.2656H14.6677C13.0485 32.2656 11.7344 33.5797 11.7344 35.199C11.7344 36.8182 13.0485 38.1323 14.6677 38.1323H44.001C45.6203 38.1323 46.9344 36.8182 46.9344 35.199C46.9344 33.5797 45.6203 32.2656 44.001 32.2656Z" fill="#89A619"/>
<path d="M44.001 44H14.6677C13.0485 44 11.7344 45.3141 11.7344 46.9333C11.7344 48.5526 13.0485 49.8667 14.6677 49.8667H44.001C45.6203 49.8667 46.9344 48.5526 46.9344 46.9333C46.9344 45.3141 45.6203 44 44.001 44Z" fill="#89A619"/>
</svg>
