<svg width="24" height="24" viewBox="0 0 24 24" fill="none" xmlns="http://www.w3.org/2000/svg">
<circle cx="12" cy="12" r="12" fill="#DEDBEC"/>
<path d="M17.75 9.03167V7.41667C17.75 6.6375 17.1125 6 16.3333 6H6.41667C5.63042 6 5 6.6375 5 7.41667V17.3333C5 18.1125 5.63042 18.75 6.41667 18.75H16.3333C17.1125 18.75 17.75 18.1125 17.75 17.3333V15.7183C18.1679 15.4704 18.4583 15.0242 18.4583 14.5V10.25C18.4583 9.72583 18.1679 9.27958 17.75 9.03167ZM17.0417 10.25V14.5H12.0833V10.25H17.0417ZM6.41667 17.3333V7.41667H16.3333V8.83333H12.0833C11.3042 8.83333 10.6667 9.47083 10.6667 10.25V14.5C10.6667 15.2792 11.3042 15.9167 12.0833 15.9167H16.3333V17.3333H6.41667Z" fill="black"/>
<path d="M14.2109 13.4375C14.7977 13.4375 15.2734 12.9618 15.2734 12.375C15.2734 11.7882 14.7977 11.3125 14.2109 11.3125C13.6241 11.3125 13.1484 11.7882 13.1484 12.375C13.1484 12.9618 13.6241 13.4375 14.2109 13.4375Z" fill="black"/>
</svg>
