<svg width="69" height="41" viewBox="0 0 69 41" fill="none" xmlns="http://www.w3.org/2000/svg">
<path d="M66.5362 20.4995H64.4164C64.746 19.5911 64.9718 18.6548 65.0647 17.7144C65.1049 17.3035 64.9704 16.8935 64.6929 16.5874C64.4154 16.2807 64.0211 16.1067 63.6078 16.1067H62.1938C63.648 11.8988 62.1611 7.85897 60.0233 5.25239C59.7601 4.93268 59.3757 4.73895 58.962 4.71852C58.5728 4.70626 58.1469 4.85369 57.8551 5.14616L56.7673 6.23368C54.7916 2.15205 50.809 0.317901 47.6432 0.00638384C47.2357 -0.0317496 46.8237 0.102061 46.5162 0.378182C46.2101 0.656011 46.0358 1.04994 46.0358 1.46361V2.8786C41.8258 1.42308 37.7864 2.90992 35.1824 5.04911C34.8623 5.3106 34.6676 5.69636 34.6475 6.10865C34.6274 6.52199 34.7834 6.92376 35.0751 7.21622L36.1629 8.304C32.0789 10.2787 30.2471 14.2614 29.9353 17.4264C29.8951 17.8384 30.0296 18.2473 30.3071 18.5534C30.5852 18.8605 30.9795 19.0348 31.3929 19.0348H32.8157C32.6523 19.5152 32.5266 20.0041 32.4333 20.4992H28.4644C27.6551 20.4992 27 21.1546 27 21.9636V30.7496C27 31.5589 27.6551 32.214 28.4644 32.214H29.9288V38.0712H28.4644C27.6551 38.0712 27 38.7263 27 39.5356C27 40.3449 27.6551 41 28.4644 41H34.3216C35.1309 41 35.786 40.3449 35.786 39.5356C35.786 38.7263 35.1309 38.0712 34.3216 38.0712H32.8572V32.2136H62.1437V38.0708H60.6792C59.8699 38.0708 59.2148 38.7259 59.2148 39.5352C59.2148 40.3446 59.8699 40.9997 60.6792 40.9997H66.5364C67.3458 40.9997 68.0009 40.3446 68.0009 39.5352C68.0009 38.7259 67.3458 38.0708 66.5364 38.0708H65.072L65.0724 32.2136H66.5368C67.3461 32.2136 68.0012 31.5586 68.0012 30.7492L68.0009 21.9633C68.0009 21.1543 67.3458 20.4989 66.5364 20.4989L66.5362 20.4995ZM36.3851 16.8514C36.1247 16.391 35.6368 16.1067 35.1093 16.1067H33.1605C33.8697 13.6492 35.7117 11.1726 39.1777 10.3203C39.6898 10.194 40.096 9.8004 40.2372 9.29136C40.3802 8.78235 40.2359 8.23652 39.8624 7.86268L38.3892 6.38947C40.6598 5.11098 43.7316 4.6118 46.7417 6.43305C47.1922 6.70543 47.757 6.71565 48.2187 6.45586C48.68 6.19642 48.9647 5.70886 48.9647 5.18077V3.23087C51.4229 3.9411 53.8995 5.78271 54.7518 9.24775C54.8778 9.76119 55.2707 10.1664 55.7797 10.309C56.2918 10.45 56.8335 10.3077 57.2084 9.93383L58.6816 8.46062C59.9615 10.7309 60.4606 13.8013 58.6387 16.8132C58.3653 17.2653 58.3558 17.8298 58.6159 18.2901C58.8746 18.7505 59.3622 19.0351 59.8913 19.0351H61.8262C61.6744 19.5349 61.4786 20.0276 61.243 20.4995H54.1927C54.601 19.5833 54.8219 18.5881 54.8219 17.5707C54.8219 13.5337 51.5373 10.2491 47.5003 10.2491C43.4633 10.2491 40.1787 13.5337 40.1787 17.5707C40.1787 18.5881 40.3997 19.5833 40.8079 20.4995H35.4308C35.6279 19.7535 35.9398 19.0273 36.3617 18.328C36.6364 17.8758 36.6439 17.3113 36.3852 16.8513L36.3851 16.8514ZM43.1075 17.5708C43.1075 15.1483 45.0778 13.178 47.5003 13.178C49.9228 13.178 51.8931 15.1483 51.8931 17.5708C51.8931 18.6657 51.4886 19.6886 50.7446 20.4996H44.2559C43.5119 19.6889 43.1074 18.6658 43.1074 17.5708H43.1075ZM65.0723 29.2854H29.9286V23.4282H65.0723V29.2854Z" fill="#4F5053"/>
<path d="M0 37.5695H18.45V21.0156H0V37.5695ZM8.53313 23.2918C8.9429 23.016 9.5071 23.016 9.91688 23.2918C10.4358 23.6414 14.9906 26.8095 14.9906 30.3272C14.9906 32.1752 13.8916 33.8832 12.1078 34.807C10.3241 35.7313 8.12591 35.7313 6.34219 34.807C4.55847 33.8833 3.45938 32.1752 3.45938 30.3272C3.45938 26.8095 8.01415 23.6414 8.53313 23.2918Z" fill="#4F5053"/>
<path d="M0 38.9297H18.45V40.9989H0V38.9297Z" fill="#4F5053"/>
<path d="M14.9906 16.9082H3.45931C2.54196 16.9082 1.66162 17.2352 1.0131 17.8172C0.364585 18.3992 0 19.189 0 20.012H18.45C18.45 19.1889 18.0855 18.3991 17.4369 17.8172C16.7883 17.2353 15.9079 16.9082 14.9907 16.9082H14.9906Z" fill="#4F5053"/>
<path d="M17.2961 9.16406H14.9898V11.2333H12.6836V9.16406H10.3773V11.2333H8.07109V9.16406H5.76484V11.2333H3.45859V9.16406H1.15234V13.3025H17.2961V9.16406Z" fill="#4F5053"/>
<path d="M11.5622 5.42341C11.5391 5.34165 11.5278 5.2576 11.5278 5.17307V2.06921C11.5278 1.32973 11.0881 0.646637 10.3746 0.27713C9.66113 -0.0923767 8.78187 -0.0923767 8.06838 0.27713C7.35489 0.646637 6.91526 1.32976 6.91526 2.06921V5.17307C6.91526 5.25759 6.90393 5.34165 6.88077 5.42341L6.08594 8.27695H12.3566L11.5622 5.42341Z" fill="#4F5053"/>
<path d="M5.76562 14.0703H12.6844V16.1396H5.76562V14.0703Z" fill="#4F5053"/>
<path d="M9.22506 33.431C10.1424 33.431 11.0228 33.104 11.6713 32.522C12.3198 31.94 12.6844 31.1502 12.6844 30.3272C12.6844 28.5601 10.5866 26.5301 9.225 25.457C7.86339 26.53 5.76562 28.5609 5.76562 30.3272C5.76562 31.1503 6.13009 31.9401 6.77873 32.522C7.42736 33.1039 8.3077 33.431 9.22493 33.431H9.22506Z" fill="#4F5053"/>
</svg>
