<svg width="338" height="197" viewBox="0 0 338 197" fill="none" xmlns="http://www.w3.org/2000/svg">
<g clip-path="url(#clip0_2763_20934)">
<path d="M279.204 76.4727H237.822V77.4978H279.204V76.4727Z" fill="#0F0F38"/>
<path d="M227.785 84.4684H235.775C237.004 84.4684 237.823 83.4433 237.823 82.4182V76.2676H225.736V82.4182C225.736 83.4433 226.556 84.4684 227.785 84.4684Z" fill="#F7941E"/>
<path d="M280.844 84.4684H288.833C290.062 84.4684 290.882 83.4433 290.882 82.4182V76.2676H278.795V82.4182C278.795 83.4433 279.819 84.4684 280.844 84.4684Z" fill="#F7941E"/>
<path d="M138.874 76.4727H97.4922V77.4978H138.874V76.4727Z" fill="#0F0F38"/>
<path d="M273.263 25.0127H243.354V183.494H273.263V25.0127Z" fill="#A7A9AC"/>
<path d="M300.51 115.222V175.908H266.094V115.222C266.094 112.147 267.937 109.481 270.601 108.251C271.625 107.841 272.854 107.431 273.878 107.431H292.726C293.955 107.431 295.184 107.636 296.208 108.251C298.667 109.481 300.51 112.147 300.51 115.222Z" fill="#2A2A91"/>
<path d="M300.51 111.942V132.034H266.094V111.942C266.094 109.481 268.142 107.431 270.601 107.431H270.806H296.003H296.208C298.462 107.636 300.51 109.686 300.51 111.942Z" fill="#F15A29"/>
<path d="M304.812 183.494H261.586V176.113C261.586 175.088 262.405 174.063 263.635 174.063H302.968C303.992 174.063 305.016 174.883 305.016 176.113V183.494H304.812Z" fill="#262262"/>
<path d="M296.207 112.967H270.6V120.553H296.207V112.967Z" fill="#231F20"/>
<path d="M278.59 112.967L296.208 120.553V112.967H278.59Z" fill="#414042"/>
<path d="M276.131 112.967L289.652 120.553H286.169L274.492 112.967H276.131Z" fill="#414042"/>
<path d="M300.509 111.942V174.268H296.207V107.431C298.461 107.636 300.509 109.686 300.509 111.942Z" fill="#D1D3D4"/>
<path d="M270.601 107.431V174.268H266.094V111.942C266.094 109.481 267.937 107.431 270.601 107.431Z" fill="#D1D3D4"/>
<path d="M276.336 134.699H272.443V148.845H276.336V134.699Z" fill="#262262"/>
<path d="M275.311 134.699H273.877V141.669H275.311V134.699Z" fill="#E6E7E8"/>
<path d="M275.927 141.26H273.059V147.615H275.927V141.26Z" fill="#E6E7E8"/>
<path d="M275.312 123.013H272.854V125.473H275.312V123.013Z" fill="#2A2A91"/>
<path d="M279.818 123.013H277.359V125.473H279.818V123.013Z" fill="#2A2A91"/>
<path d="M284.531 123.013H282.072V125.473H284.531V123.013Z" fill="#2A2A91"/>
<path d="M289.036 123.013H286.578V125.473H289.036V123.013Z" fill="#2A2A91"/>
<path d="M293.749 123.013H291.291V125.473H293.749V123.013Z" fill="#2A2A91"/>
<path d="M293.749 126.703H272.854V129.573H293.749V126.703Z" fill="#D1D3D4"/>
<path d="M268.755 164.017C265.273 164.017 262.609 161.147 262.609 157.866V124.653C262.609 122.603 264.248 121.167 266.092 121.167V122.193C264.658 122.193 263.429 123.423 263.429 124.858V157.866C263.429 160.737 265.887 163.197 268.755 163.197C271.623 163.197 274.082 160.737 274.082 157.866V147.615H275.106V157.866C274.901 161.352 272.238 164.017 268.755 164.017Z" fill="#0F0F38"/>
<path d="M292.931 139.414V141.055H281.663V139.414H292.931ZM293.545 138.799H280.844V141.875H293.545V138.799Z" fill="#0F0F38"/>
<path d="M293.748 134.699H281.047V137.774H293.748V134.699Z" fill="#D1D3D4"/>
<path d="M250.526 115.222V175.908H216.109V115.222C216.109 112.147 217.953 109.481 220.616 108.251C221.641 107.841 222.87 107.431 223.894 107.431H242.741C243.97 107.431 245.2 107.636 246.224 108.251C248.682 109.481 250.526 112.147 250.526 115.222Z" fill="#2A2A91"/>
<path d="M250.526 111.942V132.034H216.109V111.942C216.109 109.481 218.158 107.431 220.616 107.431H220.821H245.814H246.019C248.477 107.636 250.526 109.686 250.526 111.942Z" fill="#F15A29"/>
<path d="M254.827 183.494H211.602V176.113C211.602 175.088 212.421 174.063 213.65 174.063H252.984C254.008 174.063 255.032 174.883 255.032 176.113V183.494H254.827Z" fill="#262262"/>
<path d="M246.018 112.967H220.41V120.553H246.018V112.967Z" fill="#231F20"/>
<path d="M228.605 112.967L246.224 120.553V112.967H228.605Z" fill="#414042"/>
<path d="M226.147 112.967L239.668 120.553H236.185L224.508 112.967H226.147Z" fill="#414042"/>
<path d="M250.525 111.942V174.268H246.223V107.431C248.476 107.636 250.525 109.686 250.525 111.942Z" fill="#D1D3D4"/>
<path d="M220.411 107.431V174.268H215.904V111.942C216.109 109.481 217.953 107.431 220.411 107.431Z" fill="#D1D3D4"/>
<path d="M226.351 134.699H222.459V148.845H226.351V134.699Z" fill="#262262"/>
<path d="M225.327 134.699H223.893V141.669H225.327V134.699Z" fill="#E6E7E8"/>
<path d="M225.942 141.26H223.074V147.615H225.942V141.26Z" fill="#E6E7E8"/>
<path d="M225.327 123.013H222.869V125.473H225.327V123.013Z" fill="#2A2A91"/>
<path d="M229.833 123.013H227.375V125.473H229.833V123.013Z" fill="#2A2A91"/>
<path d="M234.546 123.013H232.088V125.473H234.546V123.013Z" fill="#2A2A91"/>
<path d="M239.052 123.013H236.594V125.473H239.052V123.013Z" fill="#2A2A91"/>
<path d="M243.765 123.013H241.307V125.473H243.765V123.013Z" fill="#2A2A91"/>
<path d="M243.765 126.703H222.869V129.573H243.765V126.703Z" fill="#D1D3D4"/>
<path d="M218.771 164.017C215.288 164.017 212.625 161.147 212.625 157.866V124.653C212.625 122.603 214.264 121.167 216.108 121.167V122.193C214.674 122.193 213.444 123.423 213.444 124.858V157.866C213.444 160.737 215.903 163.197 218.771 163.197C221.639 163.197 224.097 160.737 224.097 157.866V147.615H225.122V157.866C224.917 161.352 222.253 164.017 218.771 164.017Z" fill="#0F0F38"/>
<path d="M242.946 139.414V141.055H231.679V139.414H242.946ZM243.561 138.799H230.859V141.875H243.561V138.799Z" fill="#0F0F38"/>
<path d="M243.764 134.699H231.062V137.774H243.764V134.699Z" fill="#D1D3D4"/>
<path d="M273.058 34.0337H243.354V41.2094H273.058V34.0337Z" fill="#939598"/>
<path d="M133.548 25.0127H103.639V183.494H133.548V25.0127Z" fill="#A7A9AC"/>
<path d="M78.0319 34.0332C72.2958 34.0332 67.584 29.3178 67.584 23.5772V16.6065C67.584 10.8659 72.2958 6.15039 78.0319 6.15039H301.74C307.476 6.15039 312.188 10.8659 312.188 16.6065V23.5772C312.188 29.3178 307.476 34.0332 301.74 34.0332H78.0319Z" fill="#D1D3D4"/>
<path d="M301.739 31.3682H78.0308C73.7287 31.3682 70.2461 27.8829 70.2461 23.5774V16.6067C70.2461 12.3013 73.7287 8.81592 78.0308 8.81592H301.739C306.041 8.81592 309.524 12.3013 309.524 16.6067V23.5774C309.524 27.8829 306.041 31.3682 301.739 31.3682Z" fill="#E6E7E8"/>
<path d="M67.5831 38.5439C78.2184 38.5439 86.8401 29.9156 86.8401 19.272C86.8401 8.62835 78.2184 0 67.5831 0C56.9478 0 48.3262 8.62835 48.3262 19.272C48.3262 29.9156 56.9478 38.5439 67.5831 38.5439Z" fill="#F7941E"/>
<path d="M67.1736 8.61084C67.1736 8.61084 51.6042 29.933 66.7639 29.933C82.1285 30.138 67.1736 8.61084 67.1736 8.61084Z" fill="#2A2A91"/>
<path d="M71.0658 23.5775C70.8609 23.5775 70.656 23.3724 70.4512 23.1674C69.6317 18.2469 67.788 15.1716 67.788 15.1716C67.5831 14.9666 67.788 14.5565 67.9928 14.3515C68.1977 14.1465 68.6074 14.3515 68.8123 14.5565C68.8123 14.7616 70.656 17.6319 71.6803 22.9624C71.6803 23.3724 71.4755 23.5775 71.0658 23.5775Z" fill="white"/>
<path d="M116.954 23.7824V16.8117L116.135 16.6066V15.5815H118.388C118.593 15.5815 118.798 15.5815 119.003 15.5815C119.413 15.5815 119.822 15.5815 120.232 15.5815C121.256 15.5815 122.076 15.7866 122.485 15.9916C123.1 16.1966 123.51 16.6066 123.715 17.0167C123.919 17.4267 124.124 18.0418 124.124 18.6569C124.124 19.682 123.715 20.7071 123.1 21.1171C122.485 21.7322 121.461 21.9372 120.232 21.9372C120.027 21.9372 120.027 21.9372 119.822 21.9372C119.617 21.9372 119.617 21.9372 119.617 21.9372V23.9874L121.256 24.1924V25.2175H116.135V24.1924L116.954 23.7824ZM121.256 20.297C121.461 19.887 121.666 19.2719 121.666 18.4518C121.666 17.0167 121.256 16.4016 120.232 16.4016C120.027 16.4016 120.027 16.4016 119.822 16.4016H119.617C119.617 16.4016 119.617 16.4016 119.413 16.4016V20.7071C119.617 20.7071 119.822 20.7071 120.027 20.7071C120.642 20.9121 120.847 20.7071 121.256 20.297Z" fill="#262262"/>
<path d="M124.945 19.4771C125.15 18.862 125.559 18.452 126.174 18.247C126.788 18.0419 127.403 17.8369 128.018 17.8369C129.042 17.8369 129.656 18.0419 130.066 18.452C130.681 18.862 131.09 19.4771 131.09 20.2972C131.09 20.7072 131.09 21.1172 130.886 21.5273H126.993C126.993 22.1424 127.198 22.7574 127.403 22.9624C127.608 23.3725 128.018 23.3725 128.632 23.3725C128.837 23.3725 129.247 23.3725 129.452 23.1675C129.656 22.9624 130.066 22.9624 130.271 22.7574L130.681 23.5775C130.476 23.7825 130.271 23.7825 130.066 23.9875C129.861 24.1926 129.452 24.3976 129.042 24.3976C128.632 24.6026 128.222 24.6026 127.813 24.6026C126.584 24.6026 125.764 24.1926 125.15 23.5775C124.535 22.9624 124.33 22.1424 124.33 20.9122C124.535 20.7072 124.74 20.0921 124.945 19.4771ZM128.632 20.5022V20.0921C128.632 19.6821 128.632 19.2721 128.427 19.067C128.222 18.862 128.222 18.657 127.813 18.657C127.608 18.657 127.403 18.657 127.403 18.862C127.198 18.862 127.198 19.067 127.198 19.4771C127.198 19.6821 126.993 20.0921 126.993 20.5022H128.632Z" fill="#262262"/>
<path d="M131.5 19.067V18.2469C131.5 18.2469 131.5 18.2469 131.705 18.2469C131.91 18.2469 131.91 18.2469 131.91 18.0419H132.115C132.115 18.0419 132.115 18.0419 132.319 18.0419C132.524 17.8368 132.729 17.6318 132.729 17.2218C132.934 16.8117 133.139 16.4017 133.344 15.7866H134.778V17.8368H136.417V19.067H134.778V22.1423C134.778 22.5523 134.778 22.9624 134.778 23.1674C134.778 23.3724 134.778 23.3724 134.983 23.5774C134.983 23.5774 135.187 23.5774 135.392 23.5774C135.597 23.5774 135.802 23.5774 135.802 23.5774C136.007 23.5774 136.212 23.5774 136.212 23.3724L136.417 24.1925C136.212 24.3975 135.802 24.6025 135.392 24.8075C134.983 25.0126 134.368 25.0126 133.958 25.0126C133.344 25.0126 132.934 24.8075 132.729 24.6025C132.524 24.3975 132.319 23.9875 132.319 23.3724V19.067H131.5Z" fill="#262262"/>
<path d="M137.851 23.9875V19.4771L137.236 19.2721V18.247L139.285 17.8369L139.695 18.0419V18.452V19.4771C139.695 19.2721 139.9 19.067 140.104 18.657C140.309 18.452 140.514 18.247 140.924 18.0419C141.334 17.8369 141.538 17.8369 141.948 17.8369C142.153 17.8369 142.153 17.8369 142.358 17.8369H142.563V20.5022C142.358 20.2972 142.153 20.2972 142.153 20.2972C141.948 20.2972 141.743 20.0921 141.538 20.0921C141.334 20.0921 141.129 20.0921 140.924 20.0921C140.719 20.0921 140.514 20.2972 140.514 20.2972V23.7825L141.743 23.9875V24.8076H137.236V23.9875H137.851Z" fill="#262262"/>
<path d="M148.707 18.247C149.117 18.452 149.527 18.862 149.936 19.4771C150.141 20.0921 150.346 20.7072 150.346 21.3223C150.346 22.1424 150.141 22.7574 149.936 23.3725C149.527 23.9875 149.117 24.3976 148.707 24.6026C148.093 24.8076 147.478 25.0126 146.863 25.0126C146.249 25.0126 145.634 24.8076 145.02 24.6026C144.405 24.3976 143.995 23.9875 143.791 23.3725C143.586 22.7574 143.381 22.1424 143.381 21.5273C143.381 20.7072 143.586 20.0921 143.791 19.4771C144.2 18.862 144.61 18.452 145.02 18.247C145.634 18.0419 146.249 17.8369 146.863 17.8369C147.478 17.8369 148.093 18.0419 148.707 18.247ZM147.478 19.8871C147.478 19.4771 147.273 19.2721 147.273 19.067C147.068 18.862 146.863 18.862 146.659 18.862C146.249 18.862 146.044 19.067 146.044 19.4771C145.839 19.8871 145.839 20.5022 145.839 21.3223C145.839 21.9373 145.839 22.5524 146.044 22.7574C146.044 23.1675 146.249 23.3725 146.454 23.5775C146.659 23.7825 146.863 23.7825 147.068 23.7825C147.478 23.7825 147.683 23.5775 147.683 23.1675C147.888 22.7574 147.888 22.1424 147.888 21.3223C147.683 20.9122 147.683 20.2972 147.478 19.8871Z" fill="#262262"/>
<path d="M151.575 23.7826V15.9918L150.756 15.7868V14.7617L153.624 14.5566L154.034 14.9667V23.9876L154.648 24.1926V25.2177H150.756V24.1926L151.575 23.7826Z" fill="#262262"/>
<path d="M155.878 19.4771C156.083 18.862 156.493 18.452 157.107 18.247C157.722 18.0419 158.336 17.8369 158.951 17.8369C159.975 17.8369 160.59 18.0419 161 18.452C161.614 18.862 161.819 19.4771 161.819 20.2972C161.819 20.7072 161.819 21.1172 161.614 21.5273H157.722C157.722 22.1424 157.927 22.7574 158.132 22.9624C158.336 23.3725 158.746 23.3725 159.361 23.3725C159.566 23.3725 159.975 23.3725 160.18 23.1675C160.59 23.1675 160.795 22.9624 161 22.7574L161.409 23.5775C161.204 23.7825 161 23.7825 160.795 23.9875C160.59 24.1926 160.18 24.3976 159.77 24.3976C159.361 24.6026 158.951 24.6026 158.541 24.6026C157.312 24.6026 156.493 24.1926 155.878 23.5775C155.263 22.9624 155.059 22.1424 155.059 20.9122C155.468 20.7072 155.468 20.0921 155.878 19.4771ZM159.566 20.5022V20.0921C159.566 19.6821 159.566 19.2721 159.361 19.067C159.156 18.862 159.156 18.657 158.746 18.657C158.541 18.657 158.336 18.657 158.336 18.862C158.132 18.862 158.132 19.067 158.132 19.4771C158.132 19.6821 157.927 20.0921 157.927 20.5022H159.566Z" fill="#262262"/>
<path d="M167.35 23.9875C167.145 24.1926 167.145 24.3976 166.94 24.3976C166.735 24.6026 166.531 24.6026 166.121 24.8076C165.916 24.8076 165.506 25.0126 165.301 25.0126C164.687 25.0126 164.277 25.0126 163.867 24.8076C163.458 24.6026 163.253 24.3976 163.048 23.9875C162.843 23.5775 162.843 23.1675 162.843 22.5524V19.067L162.229 18.862V17.8369H164.892L165.097 18.0419V22.5524C165.097 22.9624 165.097 23.1675 165.097 23.3725C165.097 23.5775 165.301 23.5775 165.301 23.7825C165.506 23.7825 165.506 23.9875 165.711 23.9875C165.916 23.9875 166.121 23.9875 166.326 23.7825C166.531 23.7825 166.531 23.5775 166.735 23.5775V19.067L165.916 18.862V17.8369H168.784L169.194 18.0419V23.9875H169.808V24.8076C169.604 24.8076 169.194 25.0126 168.989 25.0126C168.784 25.0126 168.374 25.0126 167.965 25.0126C167.76 25.0126 167.35 24.6026 167.35 23.9875Z" fill="#262262"/>
<path d="M171.652 23.9875V19.477L171.037 19.272V18.0419L173.495 17.6318L173.905 17.8369V18.4519V18.6569C174.11 18.6569 174.315 18.4519 174.52 18.2469C174.929 18.0419 175.134 18.0419 175.544 17.8369C175.954 17.8369 176.159 17.6318 176.363 17.6318C176.773 17.6318 177.183 17.6318 177.388 17.8369C177.798 18.2469 178.002 18.4519 178.207 18.862C178.412 18.6569 178.822 18.2469 179.232 18.2469C179.641 18.0419 180.051 18.0419 180.461 18.0419C180.87 18.0419 181.28 18.0419 181.69 18.2469C182.1 18.2469 182.304 18.6569 182.304 19.067C182.509 19.477 182.509 19.8871 182.509 20.5021V23.7825L183.124 23.9875V24.8076H179.436V23.9875L179.846 23.7825V20.5021C179.846 20.0921 179.846 19.8871 179.846 19.682C179.846 19.477 179.641 19.272 179.641 19.272C179.436 19.272 179.436 19.067 179.232 19.067C178.822 19.067 178.617 19.272 178.207 19.477C178.207 19.682 178.207 20.0921 178.207 20.2971V23.5774L178.822 23.7825V24.6025H175.134V23.7825L175.749 23.5774V20.5021C175.749 20.0921 175.749 19.8871 175.749 19.682C175.749 19.477 175.544 19.272 175.544 19.272C175.339 19.272 175.339 19.067 175.134 19.067C174.929 19.067 174.725 19.067 174.52 19.272C174.315 19.272 174.11 19.477 174.11 19.682V23.9875L174.725 24.1925V25.0126H171.037V24.1925L171.652 23.9875Z" fill="#262262"/>
<path d="M196.441 19.4769V20.502L195.622 20.707C195.622 21.1171 195.622 21.5271 195.417 21.9371C195.212 22.3472 195.007 22.7572 194.802 22.9622C195.007 23.1673 195.212 23.3723 195.622 23.3723C195.826 23.5773 196.031 23.5773 196.441 23.5773V24.6024C196.441 24.6024 196.031 24.8074 195.826 24.8074C195.417 24.8074 195.212 24.8074 195.007 24.8074C194.597 24.8074 194.392 24.8074 193.983 24.8074C193.778 24.8074 193.368 24.6024 193.163 24.3974C192.958 24.6024 192.549 24.6024 192.139 24.8074C191.729 24.8074 191.319 25.0124 190.705 25.0124C189.476 25.0124 188.656 24.8074 187.837 24.3974C187.222 23.9873 186.812 23.3723 186.812 22.5522C186.812 22.1422 186.813 21.9371 187.017 21.5271C187.222 21.3221 187.427 20.912 187.632 20.707C187.837 20.502 188.247 20.297 188.451 20.297C188.042 19.8869 187.837 19.4769 187.632 19.0668C187.427 18.6568 187.427 18.2468 187.427 17.8367C187.427 17.4267 187.632 17.0166 187.837 16.6066C188.042 16.1965 188.451 15.9915 188.861 15.7865C189.271 15.5815 189.885 15.3765 190.5 15.3765C191.115 15.3765 191.524 15.3765 191.934 15.5815C192.344 15.7865 192.549 15.9915 192.753 16.1965C192.958 16.4016 192.958 16.8116 192.958 17.0166C192.958 17.4267 192.958 17.8367 192.753 18.0417C192.549 18.2468 192.344 18.6568 192.139 18.8618C191.729 19.0668 191.319 19.2719 190.91 19.4769C191.319 19.8869 191.729 20.297 192.139 20.912C192.549 21.3221 192.958 21.7321 193.163 21.9371L193.368 22.1422C193.573 21.7321 193.573 21.3221 193.573 20.707V20.502H193.163V19.4769H196.441ZM189.476 21.1171C189.271 21.3221 189.271 21.5271 189.271 21.5271C189.271 21.7321 189.066 21.9371 189.066 22.1422C189.066 22.5522 189.066 22.7572 189.271 23.1673C189.476 23.3723 189.681 23.5773 189.885 23.7823C190.09 23.9873 190.5 23.9873 190.91 23.9873C191.319 23.9873 191.729 23.9873 191.934 23.7823C191.319 23.1673 190.5 22.3472 189.476 21.1171ZM191.524 18.2468C191.524 17.8367 191.729 17.6317 191.729 17.2217C191.729 17.0166 191.729 16.8116 191.524 16.6066C191.524 16.4016 191.319 16.1965 190.91 16.1965C190.295 16.1965 190.09 16.6066 190.09 17.4267C190.09 17.8367 190.09 18.0417 190.295 18.2468C190.5 18.4518 190.705 18.8618 190.91 19.0668C191.319 18.8618 191.524 18.6568 191.524 18.2468Z" fill="#262262"/>
<path d="M200.333 17.6318C200.743 17.0167 201.357 16.4016 202.177 15.9916C202.791 15.5815 203.816 15.5815 204.84 15.5815C205.455 15.5815 206.069 15.5815 206.684 15.7866C207.298 15.7866 207.913 15.9916 208.118 15.9916L207.913 18.4518H206.069L205.66 16.8117C205.66 16.8117 205.455 16.6066 205.25 16.6066C205.045 16.6066 204.84 16.6066 204.635 16.6066C204.021 16.6066 203.406 17.0167 203.201 17.6318C202.996 18.0418 202.791 18.8619 202.791 20.092C202.791 21.3221 202.996 22.3472 203.201 22.9623C203.406 23.5774 204.021 23.9874 204.635 23.9874C204.84 23.9874 205.045 23.9874 205.25 23.9874C205.455 23.9874 205.66 23.7824 205.66 23.7824V21.1171L204.635 20.9121V19.887H208.732V20.9121H208.118V24.1924C207.913 24.1924 207.913 24.1924 207.708 24.1924C207.503 24.1924 207.298 24.1924 207.094 24.3974C206.479 24.6025 206.069 24.6025 205.66 24.8075C205.25 24.8075 204.84 25.0125 204.225 25.0125C203.201 25.0125 202.382 24.8075 201.767 24.3974C201.153 23.9874 200.538 23.3723 200.128 22.7573C199.719 22.1422 199.514 21.3221 199.514 20.297C199.923 19.2719 200.128 18.4518 200.333 17.6318Z" fill="#262262"/>
<path d="M213.443 20.2972C213.443 20.0922 213.443 19.8872 213.443 19.8872C213.443 19.6822 213.238 19.6822 213.033 19.6822C212.828 19.6822 212.623 19.6822 212.214 19.6822C211.804 19.6822 211.394 19.6822 210.985 19.8872C210.575 19.8872 210.37 20.0922 209.96 20.0922L209.551 19.0671C209.755 18.8621 209.96 18.8621 210.165 18.6571C210.575 18.452 210.78 18.452 211.394 18.247C211.804 18.042 212.419 18.042 212.828 18.042C213.443 18.042 214.058 18.042 214.467 18.247C214.877 18.452 215.082 18.6571 215.287 19.0671C215.492 19.4771 215.492 19.8872 215.492 20.5022V23.9876H216.106V24.8077C215.901 24.8077 215.696 24.8077 215.287 25.0127C214.877 25.0127 214.467 25.0127 214.262 25.0127C214.058 25.0127 213.853 25.0127 213.648 25.0127C213.443 25.0127 213.443 24.8077 213.443 24.8077C213.443 24.6027 213.443 24.6027 213.443 24.3976V24.1926C213.238 24.3976 213.033 24.6027 212.624 24.8077C212.214 25.0127 211.804 25.0127 211.394 25.0127C210.985 25.0127 210.575 25.0127 210.37 24.8077C209.96 24.6027 209.755 24.3976 209.551 23.9876C209.346 23.5776 209.346 23.1675 209.346 22.7575C209.346 21.9374 209.755 21.5273 210.37 20.9123C210.985 20.5022 212.009 20.2972 213.443 20.2972ZM213.443 21.3223C212.828 21.3223 212.623 21.5273 212.214 21.7324C211.804 21.9374 211.804 22.1424 211.804 22.5525C211.804 22.9625 211.804 23.1675 212.009 23.3725C212.214 23.5776 212.419 23.7826 212.624 23.7826C212.828 23.7826 212.828 23.7826 213.033 23.7826C213.238 23.7826 213.238 23.5776 213.443 23.5776V21.3223Z" fill="#262262"/>
<path d="M218.36 22.7574L218.769 23.7825C218.769 23.7825 218.974 23.9875 219.179 23.9875C219.384 23.9875 219.589 23.9875 219.794 23.9875C219.998 23.9875 220.203 23.9875 220.408 23.7825C220.613 23.5775 220.613 23.5775 220.613 23.3725C220.613 23.1675 220.613 23.1675 220.408 22.9624C220.203 22.7574 220.203 22.7574 219.998 22.7574C219.794 22.7574 219.589 22.5524 219.179 22.3474C218.974 22.1424 218.769 22.1424 218.36 21.9373C217.95 21.7323 217.54 21.3223 217.13 21.1172C216.926 20.7072 216.721 20.2972 216.721 19.8871C216.721 19.4771 216.926 19.067 217.13 18.862C217.335 18.452 217.745 18.247 218.155 18.0419C218.564 17.8369 219.179 17.8369 219.794 17.8369C220.203 17.8369 220.613 17.8369 220.818 17.8369C221.023 17.8369 221.433 17.8369 221.842 17.8369C222.047 17.8369 222.252 17.8369 222.457 17.8369V19.6821H221.228L220.818 18.862C220.818 18.862 220.613 18.862 220.613 18.657C220.408 18.657 220.408 18.657 220.203 18.657C219.998 18.657 219.794 18.657 219.589 18.862C219.179 19.067 219.179 19.2721 219.179 19.4771C219.179 19.6821 219.179 19.6821 219.384 19.8871C219.589 20.0921 219.589 20.0921 219.794 20.2972C219.998 20.2972 220.203 20.5022 220.613 20.7072L220.818 20.9122C221.228 21.1172 221.637 21.3223 221.842 21.5273C222.047 21.7323 222.457 21.9373 222.662 22.1424C222.867 22.3474 222.867 22.7574 222.867 23.1675C222.867 23.5775 222.662 23.9875 222.457 24.1926C222.252 24.6026 221.842 24.8076 221.433 25.0126C221.023 25.2177 220.408 25.2177 219.589 25.2177C219.179 25.2177 218.769 25.2177 218.36 25.2177C217.95 25.2177 217.54 25.0126 217.335 25.0126C217.13 25.0126 216.926 24.8076 216.721 24.8076V23.1675H218.36V22.7574Z" fill="#262262"/>
<path d="M226.965 21.9371H228.399L228.808 23.5773C228.808 23.7823 229.013 23.7823 229.218 23.7823C229.423 23.7823 229.628 23.9873 230.038 23.9873C230.447 23.9873 230.857 23.9873 231.062 23.7823C231.267 23.5773 231.472 23.3723 231.472 22.9622C231.472 22.7572 231.472 22.5522 231.267 22.3472C231.062 22.1422 230.857 21.9371 230.652 21.7321C230.447 21.5271 230.038 21.3221 229.423 21.1171C227.784 20.502 227.169 19.4769 227.169 18.0417C227.169 17.6317 227.374 17.2217 227.579 16.8116C227.784 16.4016 228.194 16.1965 228.808 15.7865C229.423 15.5815 230.038 15.3765 230.857 15.3765C231.267 15.3765 231.676 15.3765 232.086 15.3765C232.496 15.3765 232.906 15.3765 233.11 15.5815C233.315 15.5815 233.52 15.5815 233.52 15.5815V17.8367H232.086L231.472 16.6066C231.472 16.6066 231.267 16.4016 231.062 16.4016C230.857 16.4016 230.652 16.4016 230.447 16.4016C230.038 16.4016 229.628 16.4016 229.628 16.6066C229.423 17.0166 229.423 17.2217 229.423 17.4267C229.423 17.6317 229.423 17.8367 229.628 18.0417C229.833 18.2468 230.038 18.4518 230.242 18.6568C230.447 18.8618 230.857 19.0668 231.472 19.2719C231.472 19.2719 231.472 19.2719 231.676 19.2719C232.086 19.4769 232.496 19.6819 232.701 19.8869C232.906 20.0919 233.315 20.297 233.52 20.707C233.725 21.1171 233.93 21.5271 233.93 21.9371C233.93 22.3472 233.725 22.7572 233.52 23.3723C233.315 23.7823 232.906 24.1924 232.291 24.3974C231.676 24.6024 231.062 24.8074 230.038 24.8074C229.628 24.8074 229.013 24.8074 228.604 24.6024C228.194 24.6024 227.784 24.3974 227.374 24.3974C227.169 24.3974 226.965 24.1924 226.76 24.1924L226.965 21.9371Z" fill="#262262"/>
<path d="M234.34 19.067V18.2469C234.34 18.2469 234.34 18.2469 234.545 18.2469C234.75 18.2469 234.75 18.2469 234.75 18.0419H234.954C234.954 18.0419 234.954 18.0419 235.159 18.0419C235.364 17.8369 235.569 17.6319 235.569 17.2218C235.774 17.0168 235.774 16.6068 235.979 15.9917H237.413V18.0419H239.052V19.272H237.413V22.3473C237.413 22.7574 237.413 23.1674 237.413 23.3725C237.413 23.5775 237.413 23.5775 237.618 23.7825C237.618 23.7825 237.822 23.7825 238.027 23.7825C238.232 23.7825 238.437 23.7825 238.437 23.7825C238.642 23.7825 238.847 23.7825 238.847 23.5775L239.052 24.3976C238.847 24.6026 238.437 24.8076 238.027 25.0126C237.618 25.2176 237.003 25.2176 236.593 25.2176C235.979 25.2176 235.569 25.0126 235.364 24.8076C235.159 24.6026 234.954 24.1925 234.954 23.5775V19.067H234.34Z" fill="#262262"/>
<path d="M243.558 20.2972C243.558 20.0922 243.558 19.8872 243.558 19.8872C243.558 19.6822 243.354 19.6822 243.149 19.6822C242.944 19.6822 242.739 19.6822 242.329 19.6822C241.919 19.6822 241.51 19.6822 241.1 19.8872C240.69 19.8872 240.485 20.0922 240.076 20.0922L239.666 19.0671C239.871 18.8621 240.076 18.8621 240.281 18.6571C240.69 18.452 240.895 18.452 241.51 18.247C241.919 18.042 242.534 18.042 242.944 18.042C243.558 18.042 244.173 18.042 244.583 18.247C244.992 18.452 245.197 18.6571 245.402 19.0671C245.812 19.2721 245.812 19.6822 245.812 20.2972V23.7826H246.426V24.6027C246.222 24.6027 246.017 24.6027 245.607 24.8077C245.197 24.8077 244.788 24.8077 244.583 24.8077C244.378 24.8077 244.173 24.8077 243.968 24.8077C243.763 24.8077 243.763 24.6027 243.763 24.6027C243.763 24.3976 243.763 24.3976 243.763 24.1926V23.9876C243.558 24.1926 243.354 24.3976 242.944 24.6027C242.534 24.8077 242.124 24.8077 241.715 24.8077C241.305 24.8077 240.895 24.8077 240.69 24.6027C240.281 24.3976 240.076 24.1926 239.871 23.7826C239.666 23.3725 239.666 22.9625 239.666 22.5525C239.666 21.7324 240.076 21.3223 240.69 20.7073C241.305 20.5022 242.329 20.2972 243.558 20.2972ZM243.558 21.3223C242.944 21.3223 242.739 21.5273 242.329 21.7324C242.124 21.9374 241.919 22.1424 241.919 22.5525C241.919 22.9625 241.919 23.1675 242.124 23.3725C242.329 23.5776 242.534 23.7826 242.739 23.7826C242.944 23.7826 242.944 23.7826 243.149 23.7826C243.354 23.7826 243.354 23.5776 243.558 23.5776V21.3223Z" fill="#262262"/>
<path d="M246.836 19.067V18.2469C246.836 18.2469 246.836 18.2469 247.041 18.2469C247.246 18.2469 247.246 18.2469 247.246 18.0419H247.451C247.451 18.0419 247.451 18.0419 247.655 18.0419C247.86 17.8369 248.065 17.6319 248.065 17.2218C248.27 17.0168 248.27 16.6068 248.475 15.9917H249.909V18.0419H251.548V19.272H249.909V22.3473C249.909 22.7574 249.909 23.1674 249.909 23.3725C249.909 23.5775 249.909 23.5775 250.114 23.7825C250.114 23.7825 250.319 23.7825 250.523 23.7825C250.728 23.7825 250.933 23.7825 250.933 23.7825C251.138 23.7825 251.343 23.7825 251.343 23.5775L251.548 24.3976C251.343 24.6026 250.933 24.8076 250.523 25.0126C250.114 25.2176 249.499 25.2176 249.089 25.2176C248.475 25.2176 248.065 25.0126 247.86 24.8076C247.655 24.6026 247.451 24.1925 247.451 23.5775V19.067H246.836Z" fill="#262262"/>
<path d="M252.982 23.7825V19.4771L252.162 19.2721V18.0419L255.03 17.6319L255.44 17.8369V23.7825L256.055 23.9875V25.0127H252.162V23.9875L252.982 23.7825ZM252.777 14.9666C252.982 14.7616 252.982 14.5566 253.186 14.5566C253.391 14.3516 253.801 14.3516 254.006 14.3516C254.211 14.3516 254.62 14.3516 254.62 14.5566C254.825 14.5566 255.03 14.7616 255.03 14.9666C255.03 15.1716 255.235 15.3767 255.235 15.5817C255.235 15.7867 255.235 15.9917 255.03 16.1968C254.825 16.4018 254.825 16.6068 254.62 16.6068C254.416 16.8118 254.211 16.8118 253.801 16.8118C253.596 16.8118 253.391 16.8118 253.186 16.6068C252.982 16.6068 252.777 16.4018 252.777 16.1968C252.777 15.9917 252.572 15.7867 252.572 15.5817C252.572 15.3767 252.777 15.1716 252.777 14.9666Z" fill="#262262"/>
<path d="M262.201 18.247C262.816 18.452 263.226 18.862 263.431 19.4771C263.635 20.0921 263.84 20.7072 263.84 21.3223C263.84 22.1424 263.635 22.7574 263.431 23.3725C263.021 23.9875 262.611 24.3976 262.201 24.6026C261.587 24.8076 260.972 25.0126 260.358 25.0126C259.743 25.0126 259.128 24.8076 258.514 24.6026C257.899 24.3976 257.49 23.9875 257.285 23.3725C257.08 22.7574 256.875 22.1424 256.875 21.5273C256.875 20.7072 257.08 20.0921 257.285 19.4771C257.694 18.862 258.104 18.452 258.514 18.247C259.128 18.0419 259.743 17.8369 260.358 17.8369C261.177 17.8369 261.792 18.0419 262.201 18.247ZM261.177 19.8871C261.177 19.4771 260.972 19.2721 260.972 19.067C260.767 18.862 260.562 18.862 260.358 18.862C259.948 18.862 259.743 19.067 259.743 19.4771C259.538 19.8871 259.538 20.5022 259.538 21.3223C259.538 21.9373 259.538 22.5524 259.743 22.7574C259.743 23.1675 259.948 23.3725 260.153 23.5775C260.358 23.7825 260.563 23.7825 260.767 23.7825C261.177 23.7825 261.382 23.5775 261.382 23.1675C261.587 22.7574 261.587 22.1424 261.587 21.3223C261.382 20.9122 261.382 20.2972 261.177 19.8871Z" fill="#262262"/>
<path d="M265.478 23.9875V19.477L264.863 19.272V18.0419L267.322 17.6318L267.731 17.8369V18.4519V18.6569C267.936 18.4519 268.346 18.0419 268.756 18.0419C269.165 17.8369 269.575 17.8369 270.19 17.8369C270.599 17.8369 271.009 17.8369 271.419 18.0419C271.624 18.2469 272.033 18.4519 272.033 18.862C272.238 19.272 272.238 19.682 272.238 20.5021V23.7825L272.853 23.9875V25.0126H269.165V24.1925L269.78 23.9875V20.5021C269.78 20.0921 269.78 19.8871 269.78 19.682C269.78 19.477 269.575 19.272 269.575 19.272C269.37 19.272 269.37 19.067 269.165 19.067C268.756 19.067 268.551 19.272 268.141 19.477V23.7825L268.756 23.9875V24.8076H265.068V23.9875H265.478Z" fill="#262262"/>
<path d="M297.233 183.494H80.2847C69.6319 183.494 64.9201 184.519 54.4722 186.569L43 191.695H338L319.562 185.954C310.344 184.314 306.656 183.494 297.233 183.494Z" fill="#D1D3D4"/>
<path d="M338 191.694H43V196H338V191.694Z" fill="#A7A9AC"/>
<path d="M160.591 115.222V175.908H126.174V115.222C126.174 112.147 128.018 109.481 130.681 108.251C131.705 107.841 132.934 107.431 133.959 107.431H152.806C154.035 107.431 155.264 107.636 156.288 108.251C158.747 109.481 160.591 112.147 160.591 115.222Z" fill="#2A2A91"/>
<path d="M160.591 111.942V132.034H126.174V111.942C126.174 109.481 128.222 107.431 130.681 107.431H130.886H156.084H156.288C158.747 107.636 160.591 109.686 160.591 111.942Z" fill="#F15A29"/>
<path d="M165.097 183.494H121.666V176.113C121.666 175.088 122.485 174.063 123.715 174.063H163.048C164.072 174.063 165.097 174.883 165.097 176.113V183.494Z" fill="#262262"/>
<path d="M156.287 112.967H130.68V120.553H156.287V112.967Z" fill="#231F20"/>
<path d="M138.875 112.967L156.288 120.553V112.967H138.875Z" fill="#414042"/>
<path d="M136.211 112.967L149.732 120.553H146.249L134.572 112.967H136.211Z" fill="#414042"/>
<path d="M160.589 111.942V174.268H156.287V107.431C158.745 107.636 160.589 109.686 160.589 111.942Z" fill="#D1D3D4"/>
<path d="M130.681 107.431V174.268H126.174V111.942C126.174 109.481 128.222 107.431 130.681 107.431Z" fill="#D1D3D4"/>
<path d="M136.621 134.699H132.729V148.845H136.621V134.699Z" fill="#262262"/>
<path d="M135.391 134.699H133.957V141.669H135.391V134.699Z" fill="#E6E7E8"/>
<path d="M136.212 141.26H133.344V147.615H136.212V141.26Z" fill="#E6E7E8"/>
<path d="M135.392 123.013H132.934V125.473H135.392V123.013Z" fill="#2A2A91"/>
<path d="M140.103 123.013H137.645V125.473H140.103V123.013Z" fill="#2A2A91"/>
<path d="M144.611 123.013H142.152V125.473H144.611V123.013Z" fill="#2A2A91"/>
<path d="M149.322 123.013H146.863V125.473H149.322V123.013Z" fill="#2A2A91"/>
<path d="M153.829 123.013H151.371V125.473H153.829V123.013Z" fill="#2A2A91"/>
<path d="M153.829 126.703H132.934V129.573H153.829V126.703Z" fill="#D1D3D4"/>
<path d="M128.835 164.017C125.353 164.017 122.689 161.147 122.689 157.866V124.653C122.689 122.603 124.328 121.167 126.172 121.167V122.193C124.738 122.193 123.509 123.423 123.509 124.858V157.866C123.509 160.737 125.967 163.197 128.835 163.197C131.703 163.197 134.162 160.737 134.162 157.866V147.615H135.186V157.866C135.186 161.352 132.318 164.017 128.835 164.017Z" fill="#0F0F38"/>
<path d="M153.214 139.414V141.055H141.946V139.414H153.214ZM153.828 138.799H141.127V141.875H153.828V138.799Z" fill="#0F0F38"/>
<path d="M153.828 134.699H141.127V137.774H153.828V134.699Z" fill="#D1D3D4"/>
<path d="M110.604 115.222V175.908H76.1875V115.222C76.1875 112.147 78.0312 109.481 80.6944 108.251C81.7187 107.841 82.9479 107.431 83.9722 107.431H102.819C104.049 107.431 105.278 107.636 106.302 108.251C108.76 109.481 110.604 112.147 110.604 115.222Z" fill="#2A2A91"/>
<path d="M110.604 111.942V132.034H76.1875V111.942C76.1875 109.481 78.2361 107.431 80.6944 107.431H80.8993H106.097H106.302C108.76 107.636 110.604 109.686 110.604 111.942Z" fill="#F15A29"/>
<path d="M115.11 183.494H71.6797V176.113C71.6797 175.088 72.4991 174.063 73.7283 174.063H113.062C114.086 174.063 115.11 174.883 115.11 176.113V183.494Z" fill="#262262"/>
<path d="M106.301 112.967H80.6934V120.553H106.301V112.967Z" fill="#231F20"/>
<path d="M88.8887 112.967L106.302 120.553V112.967H88.8887Z" fill="#414042"/>
<path d="M86.2248 112.967L99.7457 120.553H96.263L84.5859 112.967H86.2248Z" fill="#414042"/>
<path d="M110.603 111.942V174.268H106.301V107.431C108.759 107.636 110.603 109.686 110.603 111.942Z" fill="#D1D3D4"/>
<path d="M80.6944 107.431V174.268H76.1875V111.942C76.1875 109.481 78.2361 107.431 80.6944 107.431Z" fill="#D1D3D4"/>
<path d="M86.6345 134.699H82.7422V148.845H86.6345V134.699Z" fill="#262262"/>
<path d="M85.4047 134.699H83.9707V141.669H85.4047V134.699Z" fill="#E6E7E8"/>
<path d="M86.0204 141.26H83.1523V147.615H86.0204V141.26Z" fill="#E6E7E8"/>
<path d="M85.4056 123.013H82.9473V125.473H85.4056V123.013Z" fill="#2A2A91"/>
<path d="M90.1165 123.013H87.6582V125.473H90.1165V123.013Z" fill="#2A2A91"/>
<path d="M94.6243 123.013H92.166V125.473H94.6243V123.013Z" fill="#2A2A91"/>
<path d="M99.3353 123.013H96.877V125.473H99.3353V123.013Z" fill="#2A2A91"/>
<path d="M103.843 123.013H101.385V125.473H103.843V123.013Z" fill="#2A2A91"/>
<path d="M103.843 126.703H82.9473V129.573H103.843V126.703Z" fill="#D1D3D4"/>
<path d="M78.849 164.017C75.3663 164.017 72.7031 161.147 72.7031 157.866V124.653C72.7031 122.603 74.342 121.167 76.1858 121.167V122.193C74.7517 122.193 73.5226 123.423 73.5226 124.858V157.866C73.5226 160.737 75.9809 163.197 78.849 163.197C81.717 163.197 84.1753 160.737 84.1753 157.866V147.615H85.1997V157.866C85.1997 161.352 82.3316 164.017 78.849 164.017Z" fill="#0F0F38"/>
<path d="M103.023 139.414V141.055H91.7552V139.414H103.023ZM103.842 138.799H91.1406V141.875H103.842V138.799Z" fill="#0F0F38"/>
<path d="M103.842 134.699H91.1406V137.774H103.842V134.699Z" fill="#D1D3D4"/>
<path d="M133.344 34.0337H103.639V41.2094H133.344V34.0337Z" fill="#939598"/>
<path d="M87.4549 84.4684H95.4444C96.6736 84.4684 97.4931 83.4433 97.4931 82.4182V76.2676H85.4062V82.4182C85.4063 83.4433 86.2257 84.4684 87.4549 84.4684Z" fill="#F7941E"/>
<path d="M140.513 84.4684H148.503C149.732 84.4684 150.552 83.4433 150.552 82.4182V76.2676H138.465V82.4182C138.465 83.4433 139.489 84.4684 140.513 84.4684Z" fill="#F7941E"/>
<path d="M264.765 107.392V176.428H300.447V107.392C300.447 104.216 298.541 101.357 295.894 100.086C294.836 99.557 293.671 99.3452 292.4 99.3452H272.918C271.647 99.3452 270.377 99.6629 269.318 100.192C266.565 101.463 264.765 104.216 264.765 107.392Z" fill="#7E9149"/>
<path d="M264.765 104.11V124.863H300.447V104.11C300.447 101.569 298.436 99.4511 295.894 99.3452C295.788 99.3452 295.788 99.3452 295.683 99.3452H269.53C269.424 99.3452 269.318 99.3452 269.212 99.3452C266.671 99.4511 264.765 101.569 264.765 104.11Z" fill="#E6E7E8"/>
<path d="M260.106 184.369H305V176.745C305 175.58 304.047 174.627 302.882 174.627H262.118C260.953 174.627 260 175.58 260 176.745V184.369H260.106Z" fill="#262262"/>
<path d="M269.213 105.063H295.789V113.004H269.213V105.063Z" fill="#231F20"/>
<path d="M287.316 105.063L269.211 112.898V105.063H287.316Z" fill="#414042"/>
<path d="M290.07 105.063L275.882 112.898H279.588L291.658 105.063H290.07Z" fill="#414042"/>
<path d="M264.764 104.11V174.733H269.211V99.3452C266.67 99.4511 264.764 101.569 264.764 104.11Z" fill="#E8E9EA"/>
<path d="M295.789 99.3452V174.733H300.342V104.11C300.448 101.463 298.33 99.4511 295.789 99.3452Z" fill="#E8E9EA"/>
<path d="M289.646 127.616H293.67V142.227H289.646V127.616Z" fill="#E8E9EA"/>
<path d="M291.024 115.545H293.459V117.981H291.024V115.545Z" fill="#F15A29"/>
<path d="M286.153 115.545H288.588V117.981H286.153V115.545Z" fill="#F15A29"/>
<path d="M281.389 115.545H283.824V117.981H281.389V115.545Z" fill="#F15A29"/>
<path d="M276.623 115.545H279.059V117.981H276.623V115.545Z" fill="#F15A29"/>
<path d="M271.752 115.545H274.188V117.981H271.752V115.545Z" fill="#F15A29"/>
<path d="M271.859 119.251H293.459V122.322H271.859V119.251Z" fill="#D1D3D4"/>
<path d="M272.495 132.486V134.286H284.248V132.486H272.495ZM271.753 131.745H284.883V134.922H271.753V131.745Z" fill="#E8E9EA"/>
<path d="M271.753 127.616H284.883V130.792H271.753V127.616Z" fill="#E8E9EA"/>
<path d="M313.399 122.35C312.899 122.25 312.299 122.05 311.799 121.95C311.999 121.55 312.199 121.25 312.499 120.95C312.999 120.35 313.499 119.85 313.999 119.25C314.199 118.95 314.099 118.45 313.699 118.25C313.299 118.05 312.899 118.15 312.699 118.55C311.599 120.05 310.499 121.65 309.599 123.25C308.999 124.35 308.499 127.15 307.199 127.65C306.499 127.95 305.199 127.85 304.399 127.95C302.999 128.15 301.599 128.55 300.299 128.95L300.199 129.05C298.599 129.15 296.999 129.45 295.499 129.95C295.399 129.85 295.199 129.75 295.099 129.65C294.899 129.65 294.799 129.65 294.599 129.55C294.599 129.65 294.499 129.75 294.499 129.85V129.95V130.05C294.399 130.25 294.399 130.45 294.399 130.55C294.399 130.65 294.399 130.65 294.399 130.75C294.399 130.95 294.399 131.15 294.399 131.25C294.399 131.35 294.399 131.35 294.399 131.45C294.399 131.65 294.499 131.85 294.499 131.95C294.499 132.05 294.599 132.25 294.599 132.35C294.899 132.35 295.199 132.35 295.499 132.25C296.399 132.15 297.099 132.15 298.099 132.25C300.399 132.55 302.599 132.55 304.899 132.35C305.899 132.25 306.999 131.85 308.099 131.35C308.499 131.35 308.899 131.25 309.199 131.15C310.099 130.85 310.799 130.25 311.399 129.55C311.899 128.95 312.499 128.35 312.899 127.75C313.199 127.35 313.499 126.95 313.699 126.45L313.799 126.35C314.799 125.05 315.599 123.65 316.199 122.15C315.399 122.65 314.399 122.65 313.399 122.35Z" fill="#F5C185"/>
<path d="M327.299 102.65C327.399 102.15 327.399 101.75 327.299 101.15C327.099 99.7501 326.199 98.0501 324.599 98.0501C324.199 98.0501 323.799 98.1501 323.399 98.1501C322.799 98.1501 322.399 97.7501 321.799 97.5501C321.199 97.4501 320.599 97.4501 320.099 97.5501C318.899 97.9501 317.799 98.5501 317.199 99.5501C316.899 99.6501 316.599 99.8501 316.399 100.15C316.299 100.25 316.199 100.25 316.099 100.45C315.399 101.55 315.499 102.95 315.799 104.15C315.999 105.15 316.399 106.15 316.799 106.95C316.899 107.75 317.199 108.65 317.899 109.05C318.499 109.45 319.599 109.25 320.299 109.25C321.899 109.15 323.399 108.65 324.999 109.05C325.599 109.25 326.199 108.95 326.499 108.45C326.699 108.25 326.699 107.95 326.799 107.65C326.999 107.25 327.199 106.65 327.299 106.25C327.499 105.15 327.499 103.85 327.299 102.65Z" fill="#7F2F24"/>
<path d="M318.699 115.15C318.699 115.05 318.699 115.05 318.699 114.95C318.899 114.35 319.099 113.85 319.199 113.25C319.199 113.15 319.199 113.15 319.199 113.05C319.299 112.45 319.399 111.75 319.399 111.05C319.499 110.95 319.699 111.05 319.699 111.15C319.699 111.25 319.699 111.35 319.699 111.45C319.999 111.35 320.399 111.35 320.699 111.45C320.999 111.45 321.399 111.55 321.599 111.75C321.699 111.75 321.899 111.75 321.999 111.85C322.199 111.65 322.399 111.55 322.699 111.45C322.999 111.05 323.699 111.05 324.099 111.25C324.099 111.45 324.099 111.65 324.199 111.85C324.199 112.15 324.299 112.45 324.399 112.75C324.599 113.35 324.799 114.05 325.199 114.55C325.199 114.75 325.299 114.85 325.299 115.05C325.599 115.35 325.699 115.95 325.299 116.35C324.999 116.65 324.599 116.75 324.099 116.85C323.899 117.15 323.599 117.35 323.199 117.35C321.699 117.55 319.699 117.65 318.499 116.45C318.099 116.25 318.199 115.55 318.699 115.15Z" fill="#F5C185"/>
<path d="M319.2 113.25C319.9 113.45 320.9 113.65 321.9 113.65C323 113.55 323.9 113.15 324.5 112.95C324.4 112.65 324.4 112.35 324.3 112.05C324.3 111.85 324.2 111.65 324.2 111.45C323.8 111.25 323.1 111.35 322.8 111.65C322.5 111.65 322.3 111.85 322.1 112.05C322 111.95 321.8 111.95 321.7 111.95C321.5 111.75 321.1 111.65 320.8 111.65C320.5 111.55 320.1 111.45 319.8 111.65C319.8 111.55 319.8 111.45 319.8 111.35C319.8 111.15 319.6 111.15 319.5 111.25C319.5 111.95 319.4 112.55 319.3 113.25C319.3 113.15 319.2 113.25 319.2 113.25Z" fill="#E2A971"/>
<path d="M318.398 109.85C318.098 109.15 317.898 108.35 317.798 107.75C317.798 107.55 317.798 107.35 317.698 107.15C317.598 106.15 317.798 105.25 317.498 104.25C317.498 103.75 317.498 103.15 317.498 102.65C317.498 101.55 317.898 100.95 318.498 100.65C319.098 100.25 319.998 100.25 320.798 100.35C321.998 100.55 323.398 100.05 324.598 100.55C325.898 101.05 326.298 102.35 326.198 103.65C326.198 104.25 326.098 104.95 325.998 105.55C325.898 106.25 325.998 106.85 325.998 107.55C325.998 108.05 325.098 111.05 324.498 111.75C323.698 112.75 322.398 112.85 321.198 112.85C320.098 112.85 319.398 111.95 318.898 111.05C318.698 110.65 318.598 110.25 318.398 109.85Z" fill="#F5C185"/>
<path d="M325.398 107.35C325.398 107.35 325.398 107.25 325.298 107.25V107.15C325.298 107.05 325.198 107.05 325.298 106.95V106.85C325.298 106.55 325.398 106.15 325.598 105.85C325.398 105.85 325.298 105.65 325.398 105.55C325.598 105.25 325.898 104.75 326.398 104.95C326.798 105.05 326.798 105.65 326.698 106.05C326.598 106.75 326.398 107.95 325.498 107.85C325.298 107.85 325.298 107.55 325.398 107.35Z" fill="#F5C185"/>
<path d="M317.399 105.05C317.399 105.05 317.499 104.95 317.599 104.95C317.899 104.95 318.099 105.25 318.099 105.55C318.199 105.75 318.099 105.85 317.999 105.85C318.099 106.35 318.199 106.75 318.199 106.95C318.199 107.15 318.199 107.25 318.099 107.25C318.199 107.35 318.199 107.45 318.299 107.55C318.499 107.85 318.199 108.15 317.999 107.95C317.699 107.55 317.299 106.95 317.199 106.35V106.25C316.999 105.95 316.999 105.25 317.399 105.05Z" fill="#F5C185"/>
<path d="M327.4 102.65C327.3 102.85 327.1 102.85 327 102.75C326.9 102.75 326.9 102.75 326.8 102.75C326.8 103.15 326.8 103.45 326.8 103.85C326.8 103.95 326.8 103.95 326.8 103.95C326.8 104.15 326.4 104.25 326.3 104.05C326.2 103.35 326 102.65 325.5 102.25C324.7 101.45 323.6 101.05 322.6 100.25C322.1 100.75 321.7 101.25 321.1 101.55C320.9 101.65 320.6 101.75 320.4 101.85C320.3 101.85 320.2 101.85 320 101.95C319.2 102.35 318 102.45 317.7 103.45C317.6 103.85 317.7 104.35 317.9 104.75C318 104.85 318.6 105.65 317.9 105.45C317.1 105.05 316.9 103.95 316.8 102.95C315.1 102.55 315.1 100.35 316 99.15C316.3 98.75 316.6 98.45 317 98.25C317.3 97.85 317.6 97.55 318 97.35C319.1 96.85 320.3 96.95 321.4 97.25C321.5 97.25 321.7 97.35 321.8 97.35C322.6 97.25 323.4 97.05 324.3 97.15C325.1 97.25 325.8 97.65 326.3 98.15C327 98.65 327.2 99.25 327.3 99.95C327.6 100.85 327.6 101.75 327.4 102.65ZM321.2 97.65C320.3 97.45 319.4 97.45 318.6 97.75C318.4 97.75 318.3 97.85 318.1 97.95C318.3 97.95 318.5 97.85 318.7 97.85C319.4 97.75 320 97.65 320.7 97.65C320.9 97.55 321 97.55 321.2 97.65Z" fill="#7F2F24"/>
<path d="M327.999 117.45C328.199 116.75 328.499 115.95 329.299 115.75C332.199 115.25 332.999 120.35 333.599 122.15C334.099 123.65 334.599 125.25 334.699 126.85C334.799 127.55 334.699 128.25 334.799 128.85C334.999 131.45 335.999 134.05 336.099 136.65C336.199 138.95 336.099 141.15 335.799 143.45C335.599 144.45 335.599 145.15 335.699 146.05C335.799 146.95 335.799 147.85 335.099 148.45L334.999 148.55C334.799 148.55 334.599 148.55 334.399 148.45C333.699 148.25 333.099 147.85 332.699 147.35C333.699 143.75 331.799 140.25 331.599 136.75C331.499 135.25 331.499 133.75 331.299 132.25C331.299 132.25 331.299 132.25 331.299 132.15C331.299 131.85 331.299 131.65 331.199 131.35C330.599 130.35 329.999 126.45 329.599 125.45C329.299 124.75 329.099 123.85 329.099 123.05C328.999 122.75 328.899 122.55 328.799 122.45H328.699C328.199 122.65 327.699 122.25 327.499 121.75C326.999 120.45 327.699 118.85 327.999 117.45Z" fill="#F5C185"/>
<path d="M311 119.15C311.1 118.85 311.2 118.65 311.4 118.35C312.2 117.05 313.2 115.95 314.6 115.25C315 115.05 318.7 114.05 318.8 114.45C319 114.85 319.2 115.35 319.5 115.65C320.1 116.25 321 116.65 321.8 116.65C323.3 116.65 324.5 115.65 325.2 114.45C325.5 113.95 329.5 115.05 330 115.35C332.4 116.45 333.9 119.15 334.6 121.55C334.7 122.05 329.9 126.35 329.7 126.35C329.7 126.35 329.7 126.35 329.7 126.45C329.6 128.65 328.9 132.75 329.1 135.05C329.2 136.85 329.5 138.55 329.6 140.25C329.7 141.85 327.2 141.15 328.9 141.45C329.9 141.65 328.7 141.55 328.7 141.55C325.3 142.95 321.6 143.45 318 143.15C316.6 143.05 315.2 142.75 314.2 141.85C314.1 141.75 314.1 141.75 314 141.65C313.3 140.95 313.6 141.35 313.6 140.65C313.6 139.75 313.5 137.65 313.6 136.65C314 134.05 314 131.35 314.2 128.75C314.3 127.75 314.3 126.65 314.3 125.65C313.8 124.65 312.8 123.95 312.1 123.25C311.1 121.95 310.5 120.65 311 119.15Z" fill="#F7941E"/>
<path d="M332.2 150.65C332.1 150.45 332.2 150.25 332.4 150.15C332.1 149.55 332 149.05 332.3 148.45C332.2 148.35 332.2 148.35 332.2 148.25C332.2 147.65 332.3 146.95 332.7 146.45C332.8 146.25 333 146.05 333.2 145.95C333.5 145.85 333.8 145.85 334 145.85C334.1 145.85 334.2 145.85 334.3 145.85C334.7 145.55 335.3 145.45 335.6 146.05C336 146.85 336 147.95 336 148.85C336 149.45 335.8 149.95 335.5 150.35C335.3 150.75 335 151.15 334.6 151.45L334.5 151.55C334 152.15 332.8 151.85 332.1 151.75C331.4 151.45 331.6 150.55 332.2 150.65ZM333.5 149.85C333.6 149.75 333.8 149.65 333.9 149.45C333.9 149.55 333.9 149.15 333.9 149.15C333.8 149.15 333.7 149.15 333.6 149.15C333.6 149.15 333.6 149.15 333.6 149.25C333.5 149.35 333.5 149.55 333.4 149.65C333.3 149.65 333.3 149.75 333.2 149.95C333.3 149.95 333.4 149.85 333.5 149.85Z" fill="#F5C185"/>
<path d="M315.799 179.15C316.099 179.05 316.399 178.95 316.699 179.05C317.099 179.05 317.799 179.05 318.199 179.35C318.799 179.75 318.499 180.35 318.399 180.95C318.399 181.25 318.299 181.45 318.199 181.75C318.099 182.05 317.799 182.25 317.499 182.25C317.199 182.25 316.599 182.05 316.499 182.15C315.799 182.65 315.399 181.85 315.299 181.25C315.199 180.95 314.999 180.45 315.099 180.15C314.999 179.65 315.399 179.35 315.799 179.15Z" fill="#8FB7B7"/>
<path d="M315.1 185.65C315.1 185.55 315.1 185.45 315.2 185.35C315.5 184.55 315.7 183.75 316.1 183.05C316.3 182.65 316.6 182.45 316.9 182.45C316.9 182.35 317 182.25 317 182.25C317 182.25 317.1 182.25 317.1 182.35C317.3 182.45 317.6 182.45 317.8 182.35C318.1 183.45 318.3 184.55 318.5 185.65C318.6 186.65 318.9 187.75 318.8 188.75C318.5 190.25 317.3 191.95 316.1 191.85C315 191.75 314.2 190.85 314.1 189.25C314.1 189.15 314.1 189.15 314.1 189.05C314.1 188.05 314.2 185.85 315.1 185.65Z" fill="#353035"/>
<path d="M314.799 181.85C314.799 181.55 314.899 181.15 315.099 180.85C315.399 180.45 315.499 180.85 315.499 181.25C315.599 181.65 315.699 182.05 315.899 182.35C316.399 182.75 316.999 182.75 317.399 182.25C317.499 182.15 317.599 181.95 317.599 181.75C317.599 181.65 317.699 181.25 317.799 181.15C317.999 181.05 318.199 181.85 318.199 182.05C318.199 182.15 318.199 182.25 318.199 182.25C318.099 183.45 318.199 184.55 318.299 185.75C318.299 185.85 318.299 185.95 318.399 186.05C318.399 186.15 318.399 186.15 318.399 186.25C318.499 187.65 318.099 189.15 317.099 189.75C316.199 190.45 314.499 190.25 314.099 188.65C313.899 186.95 314.799 183.65 314.799 181.85Z" fill="#443C44"/>
<path d="M316.499 186.85C316.499 186.85 318.999 180.45 316.799 180.45C314.599 180.45 315.699 186.65 316.499 186.85Z" fill="#353035"/>
<path d="M315.499 182.75V182.65C315.699 182.35 315.999 182.25 316.299 182.15C316.399 182.15 316.499 182.05 316.499 182.05C316.199 181.95 315.899 181.85 315.599 181.75C315.499 181.75 315.499 181.65 315.599 181.55C316.299 181.45 316.899 181.45 317.599 181.75C317.699 181.75 317.699 181.85 317.599 181.95C317.499 181.95 317.199 182.05 316.899 182.15C317.099 182.25 317.399 182.45 317.499 182.75V182.85C317.099 182.95 316.799 183.05 316.399 183.25C316.399 183.25 316.399 183.25 316.499 183.25C316.799 183.35 316.999 183.55 317.299 183.75V183.85C317.099 184.15 316.799 184.25 316.499 184.45C316.699 184.65 316.899 184.75 317.099 184.95V185.05C316.899 185.25 316.599 185.35 316.399 185.55C316.499 185.65 316.699 185.85 316.799 185.95C316.799 186.05 316.799 186.05 316.699 186.05C316.499 185.95 316.199 186.05 315.999 185.95V185.85C315.999 185.85 315.999 185.85 315.999 185.75C316.099 185.65 316.099 185.55 316.199 185.45C316.099 185.25 315.899 185.15 315.799 184.95V184.85C315.899 184.65 316.099 184.45 316.299 184.35C316.099 184.15 315.799 183.95 315.599 183.75V183.65C315.799 183.45 315.999 183.25 316.199 183.15C315.899 183.15 315.699 183.05 315.499 182.75ZM316.099 181.75C316.199 181.75 316.299 181.85 316.399 181.85C316.499 181.95 316.699 181.95 316.799 182.05C316.999 181.95 317.199 181.95 317.399 181.95C316.899 181.75 316.499 181.65 316.099 181.75ZM316.099 185.95C316.299 185.95 316.399 186.05 316.599 186.05C316.499 185.95 316.399 185.85 316.299 185.75C316.199 185.85 316.099 185.85 316.099 185.95ZM316.299 184.75C316.199 184.85 315.999 184.95 315.999 185.15C315.999 185.35 316.199 185.55 316.299 185.65C316.499 185.45 316.799 185.35 316.999 185.15C316.799 185.05 316.599 184.85 316.399 184.75C316.299 184.65 316.299 184.65 316.299 184.75ZM316.499 184.35C316.699 184.25 316.999 184.15 317.199 183.95C316.899 183.75 316.599 183.55 316.299 183.45C316.099 183.55 315.899 183.75 315.699 183.95C315.899 184.15 316.099 184.35 316.399 184.55C316.399 184.35 316.399 184.35 316.499 184.35ZM315.699 182.75C315.699 182.85 315.999 183.05 316.099 183.05C316.199 183.05 316.199 183.15 316.299 183.15C316.699 182.95 317.099 182.85 317.399 182.65C317.199 182.35 316.999 182.25 316.699 182.05C316.199 182.35 315.599 182.55 315.699 182.75Z" fill="white"/>
<path d="M326.499 179.15C326.199 179.05 325.899 178.95 325.599 179.05C325.199 179.05 324.499 179.05 324.099 179.35C323.499 179.75 323.799 180.35 323.899 180.95C323.899 181.25 323.999 181.45 324.099 181.75C324.199 182.05 324.499 182.25 324.799 182.25C325.099 182.25 325.699 182.05 325.799 182.15C326.499 182.65 326.899 181.85 326.999 181.25C327.099 180.95 327.299 180.45 327.199 180.15C327.199 179.65 326.899 179.35 326.499 179.15Z" fill="#8FB7B7"/>
<path d="M327.1 185.65C327.1 185.55 327.1 185.45 327 185.35C326.7 184.55 326.5 183.75 326.1 183.05C325.9 182.65 325.6 182.45 325.3 182.45C325.3 182.35 325.2 182.25 325.2 182.25C325.2 182.25 325.1 182.25 325.1 182.35C324.9 182.45 324.6 182.45 324.4 182.35C324.1 183.45 323.9 184.55 323.7 185.65C323.6 186.65 323.3 187.75 323.4 188.75C323.7 190.25 324.9 191.95 326.1 191.85C327.2 191.75 328 190.85 328.1 189.25C328.1 189.15 328.1 189.15 328.1 189.05C328.1 188.05 327.9 185.85 327.1 185.65Z" fill="#353035"/>
<path d="M327.3 181.85C327.3 181.55 327.2 181.15 327 180.85C326.7 180.45 326.6 180.85 326.6 181.25C326.5 181.65 326.4 182.05 326.2 182.35C325.7 182.75 325.1 182.75 324.7 182.25C324.6 182.15 324.5 181.95 324.5 181.75C324.5 181.65 324.4 181.25 324.3 181.15C324.1 181.05 323.9 181.85 323.9 182.05C323.9 182.15 323.9 182.25 323.9 182.25C324 183.45 323.9 184.55 323.8 185.75C323.8 185.85 323.8 185.95 323.7 186.05C323.7 186.15 323.7 186.15 323.7 186.25C323.6 187.65 324 189.15 325 189.75C325.9 190.45 327.6 190.25 328 188.65C328.3 186.95 327.4 183.65 327.3 181.85Z" fill="#443C44"/>
<path d="M325.7 186.85C325.7 186.85 323.2 180.45 325.4 180.45C327.6 180.45 326.4 186.65 325.7 186.85Z" fill="#353035"/>
<path d="M325.999 183.25C326.199 183.35 326.399 183.55 326.599 183.75V183.85C326.399 184.05 326.199 184.25 325.899 184.45C326.099 184.55 326.199 184.75 326.399 184.95V185.05C326.299 185.25 326.199 185.45 325.999 185.55C326.099 185.75 326.199 185.85 326.199 185.95V186.05V186.15C325.999 186.25 325.699 186.25 325.499 186.25C325.399 186.25 325.399 186.15 325.399 186.15C325.499 185.95 325.699 185.85 325.799 185.75C325.599 185.55 325.299 185.35 325.099 185.25V185.15C325.299 184.95 325.499 184.85 325.699 184.65C325.399 184.45 325.099 184.35 324.899 184.05V183.95C325.199 183.75 325.399 183.65 325.699 183.45C325.699 183.45 325.699 183.45 325.799 183.45C325.399 183.25 325.099 183.15 324.699 183.05C324.699 183.05 324.599 182.95 324.699 182.95C324.799 182.65 325.099 182.45 325.299 182.35C324.999 182.25 324.699 182.25 324.599 182.15C324.499 182.15 324.499 182.05 324.599 181.95C325.199 181.65 325.899 181.65 326.599 181.75C326.699 181.75 326.699 181.85 326.599 181.95C326.299 182.05 325.999 182.15 325.699 182.25C325.799 182.25 325.899 182.35 325.899 182.35C326.199 182.45 326.499 182.55 326.699 182.85V182.95C326.499 183.05 326.199 183.15 325.999 183.25ZM324.799 181.85C324.999 181.85 325.199 181.95 325.399 181.95C325.499 181.85 325.699 181.85 325.799 181.75C325.899 181.75 325.999 181.65 326.099 181.65C325.699 181.65 325.299 181.75 324.799 181.85ZM325.899 185.75C325.799 185.85 325.699 185.95 325.599 186.05C325.799 186.05 325.899 186.05 326.099 185.95C326.099 185.85 325.999 185.85 325.899 185.75ZM325.799 184.65C325.599 184.75 325.399 184.95 325.199 185.05C325.399 185.25 325.699 185.35 325.899 185.55C325.999 185.45 326.199 185.25 326.199 185.05C326.199 184.95 325.899 184.75 325.899 184.65H325.799ZM325.799 184.45C325.999 184.25 326.199 184.05 326.499 183.85C326.299 183.65 326.099 183.45 325.899 183.35C325.599 183.55 325.299 183.65 324.999 183.85C325.199 184.05 325.499 184.15 325.699 184.25C325.699 184.35 325.799 184.35 325.799 184.45ZM325.399 182.15C325.199 182.25 324.899 182.45 324.699 182.75C325.099 182.85 325.499 183.05 325.799 183.25C325.899 183.25 325.899 183.15 325.999 183.15C326.099 183.15 326.399 182.95 326.399 182.85C326.499 182.55 325.899 182.35 325.399 182.15Z" fill="white"/>
<path d="M329.899 135.55C329.699 137.35 329.799 139.25 329.799 141.05C329.799 142.05 329.799 143.05 329.799 144.05C329.799 146.15 329.899 148.25 329.999 150.35C330.099 154.75 330.199 159.35 330.199 163.75C330.199 169.55 330.199 175.25 329.999 181.05C329.999 181.05 329.999 181.05 329.999 181.15C329.999 182.15 329.299 182.65 328.799 182.45C328.699 182.65 328.499 182.75 328.299 182.85C327.999 182.95 328.399 181.65 327.999 181.65C326.499 182.05 324.899 182.05 323.399 181.95C323.099 181.95 322.499 182.75 322.399 182.55C321.899 181.45 321.899 180.55 321.899 178.65C321.899 175.05 322.099 153.15 322.099 149.85C321.999 149.85 320.799 149.95 320.999 149.95C321.199 149.95 320.599 177.25 320.499 178.95C320.499 179.05 320.599 181.35 320.499 181.95C320.399 182.45 319.899 182.45 319.499 182.55C318.699 182.85 317.799 181.65 317.299 181.65C316.199 181.75 314.199 182.35 312.999 181.55C312.899 181.45 312.599 182.15 312.699 181.25C312.799 180.15 312.699 168.25 312.699 166.35C312.699 164.05 312.799 161.75 312.799 159.45C312.899 156.65 312.899 153.85 312.999 151.05C313.099 149.05 312.999 146.75 312.999 144.65C312.999 143.65 313.099 142.55 313.199 141.65C313.299 141.05 313.299 140.55 313.399 140.05C313.399 139.95 313.399 139.85 313.499 139.75C313.699 137.95 313.599 136.05 313.599 134.25C313.599 133.25 313.499 132.25 313.599 131.15C313.599 130.25 314.099 129.75 314.599 129.15C315.099 128.55 315.399 127.85 315.499 127.05C315.699 126.15 315.799 125.05 316.399 124.35C317.299 123.35 319.699 123.95 320.899 124.05C322.599 124.05 324.299 124.05 325.999 124.15C326.399 124.15 326.799 124.15 327.299 124.25C328.699 124.45 328.799 125.55 328.799 126.75C328.799 128.05 329.199 128.95 329.899 129.85C330.099 130.15 330.199 130.75 330.099 131.25C330.099 131.65 329.999 132.15 329.999 132.45C330.099 133.55 329.999 134.55 329.899 135.55Z" fill="#2A2A91"/>
<path d="M326.298 180.85C327.698 180.75 329.098 180.75 330.398 180.55C330.398 181.85 330.298 183.15 330.098 184.35C327.998 184.45 325.898 184.45 323.898 184.55C323.398 184.55 322.898 184.65 322.498 184.55C321.898 184.45 321.998 184.55 321.798 183.55C321.698 182.75 321.598 181.85 321.598 180.95C323.198 180.95 324.798 180.95 326.298 180.85Z" fill="#262262"/>
<path d="M312.399 180.85C312.699 180.85 312.899 180.85 313.199 180.85C315.799 180.85 318.399 180.95 320.899 180.95C320.899 181.65 320.899 182.45 320.899 183.15C320.899 184.45 320.999 184.45 320.299 184.65C319.399 184.85 318.299 184.75 317.399 184.75C315.699 184.85 314.099 184.85 312.399 184.95C312.199 184.95 312.199 183.65 312.199 182.15C312.399 181.75 312.399 181.35 312.399 180.85Z" fill="#262262"/>
<path d="M323.699 141.95L322.299 147.35V141.95H323.699Z" fill="#262262"/>
<path d="M318.5 123.45C318.3 121.35 318.4 119.15 318.1 117.05C318.1 116.85 318 114.25 317.6 114.35C316.8 114.55 315.9 114.75 315.1 114.95C314.5 115.05 315 116.65 315 116.95C315.4 119.25 315.3 121.55 315.6 123.85C315.7 124.75 315.8 126.35 317.6 125.95C318.7 125.75 318.7 124.85 318.6 124.15C318.5 123.85 318.5 123.65 318.5 123.45Z" fill="#262262"/>
<path d="M328.499 114.55C328.099 114.45 327.799 114.45 327.399 114.35H327.299C326.999 114.45 326.699 114.45 326.499 114.35C326.299 114.55 326.199 114.75 326.199 115.05C325.899 118.35 325.399 121.75 325.399 125.05C325.399 125.65 326.099 126.25 326.899 126.25C327.699 126.25 328.399 125.75 328.399 125.05C328.399 121.75 328.899 118.35 329.199 115.05C329.199 114.95 329.199 114.75 329.099 114.65C328.799 114.65 328.599 114.55 328.499 114.55Z" fill="#262262"/>
<path d="M317.9 124.35C317.9 124.25 317.8 124.25 317.7 124.15C317.6 124.05 317.5 123.95 317.4 123.95C317.2 123.95 317.1 123.95 316.9 124.05L316.8 124.15C316.7 124.25 316.7 124.35 316.6 124.45C316.6 124.45 316.6 124.55 316.6 124.65C316.6 124.75 316.6 124.75 316.6 124.85C316.6 124.95 316.7 125.05 316.8 125.15C316.9 125.25 317 125.35 317.2 125.35C317.3 125.35 317.5 125.35 317.7 125.25C317.8 125.15 317.9 125.05 318 124.85C317.9 124.65 317.9 124.55 317.9 124.35Z" fill="#F15A29"/>
<path d="M326.699 124.35C325.899 124.35 325.899 125.55 326.699 125.55C327.499 125.55 327.499 124.35 326.699 124.35Z" fill="#F15A29"/>
<path d="M313.299 144.75C313.299 143.75 313.299 142.75 313.399 141.75C313.699 141.45 313.999 141.15 314.399 141.05C314.999 140.75 315.599 141.15 315.699 141.75C315.899 143.05 314.699 144.45 313.299 144.75Z" fill="#262262"/>
<path d="M329.799 144.15C328.899 144.05 328.199 143.25 327.699 142.55C327.399 142.15 327.599 141.65 327.999 141.45C328.099 141.35 328.199 141.35 328.199 141.35C328.299 141.35 328.299 141.25 328.399 141.25C328.799 141.15 329.299 141.05 329.699 141.05C329.799 142.15 329.799 143.15 329.799 144.15Z" fill="#262262"/>
<path d="M330.099 141.45C330.099 141.35 330.099 141.35 329.999 141.25C329.999 141.15 329.999 141.15 329.999 141.05C329.999 140.95 329.999 140.85 329.999 140.85C329.999 140.75 329.999 140.75 329.999 140.65C329.999 140.55 329.999 140.55 329.999 140.45C329.999 140.35 329.999 140.35 329.999 140.25C329.999 140.15 329.999 140.15 329.999 140.05C329.699 139.65 329.199 139.55 328.799 139.65C327.999 139.75 327.199 139.95 326.399 139.95C325.599 140.05 324.699 140.05 323.899 140.05C322.199 140.15 320.499 140.05 318.799 139.95C317.899 139.85 314.799 139.85 314.199 139.55C313.799 139.35 313.499 139.45 313.399 139.75C313.499 139.95 313.499 140.15 313.499 140.45C313.499 140.85 313.399 141.25 313.199 141.65C313.299 141.95 313.499 142.15 313.799 142.05C315.999 142.05 318.199 142.45 320.399 142.55C323.499 142.65 326.899 142.85 329.899 141.95C329.999 141.95 330.199 141.85 330.199 141.75C330.099 141.65 330.099 141.55 330.099 141.45Z" fill="#F15A29"/>
<path d="M296.098 129.85C295.598 129.55 295.098 129.35 294.598 129.25C294.098 129.15 293.498 129.15 292.898 129.15C292.498 129.15 292.298 129.35 292.198 129.65C291.898 129.65 291.598 129.75 291.398 129.95C290.998 130.25 290.898 130.65 291.098 131.05C291.098 131.15 290.998 131.15 290.998 131.25C290.798 131.55 290.898 131.95 291.098 132.15C290.798 132.65 291.298 133.35 291.898 133.35C293.598 133.45 295.698 133.35 296.398 131.55C296.498 131.45 296.398 131.25 296.398 131.05C296.598 130.75 296.598 130.25 296.098 129.85Z" fill="#F5C185"/>
<path d="M318.599 127.05L326.699 127.45C326.699 127.45 323.199 134.25 318.599 127.05Z" fill="#262262"/>
<path d="M293.299 132.45C293.199 132.15 293.099 131.95 292.899 131.75C292.999 131.65 292.999 131.35 292.899 131.25C292.699 131.05 292.599 130.85 292.299 130.75C291.899 130.45 291.599 131.05 291.799 131.35C291.699 131.45 291.699 131.65 291.799 131.85C291.899 131.95 291.999 132.05 292.099 132.25C291.799 132.15 291.599 132.45 291.599 132.75C291.499 132.85 291.499 132.95 291.599 133.15C291.899 133.65 292.399 133.65 292.899 133.65C293.199 133.65 293.199 133.25 293.099 133.05C293.299 132.75 293.399 132.55 293.299 132.45Z" fill="#F5C185"/>
<path d="M286.999 123.85L287.799 123.25L293.099 128.95L294.199 135.95L289.199 136.15L288.699 129.65L290.199 128.55L286.999 123.85ZM291.399 133.95H292.599L291.999 129.55L290.499 130.25L291.399 133.95Z" fill="#F15A29"/>
<path d="M294.899 130.35C294.299 130.35 293.799 130.55 293.299 130.85C292.899 131.05 292.299 131.35 292.199 131.75C292.099 132.35 292.999 132.45 293.399 132.45C294.099 132.45 294.499 131.95 294.999 131.65C295.199 131.55 295.199 131.25 295.099 131.15C295.399 130.75 295.299 130.25 294.899 130.35Z" fill="#F5C185"/>
<path d="M291.299 130.15C291.999 129.35 292.799 130.25 292.699 130.95C292.899 131.15 292.899 131.35 292.899 131.65C292.999 131.75 293.099 131.85 293.099 132.05C293.299 132.55 292.999 133.05 292.499 133.25C291.999 133.45 291.699 132.85 291.999 132.45C291.699 132.25 291.599 131.95 291.899 131.65C291.599 131.55 291.499 131.35 291.499 131.05C291.199 130.85 291.099 130.45 291.299 130.15Z" fill="#F5C185"/>
<path d="M288.699 129.75L292.199 127.95L287.799 123.25L286.999 123.85L290.199 128.55L288.699 129.75Z" fill="#F7941E"/>
</g>
<g clip-path="url(#clip1_2763_20934)">
<path d="M186.791 87.7485H218.379V97.643H186.791V87.7485Z" fill="#F15A29"/>
<path d="M183.372 85H221.934V89.9472H183.372V85Z" fill="#F7941E"/>
<path d="M112.266 87.7485H143.854V97.643H112.266V87.7485Z" fill="#F15A29"/>
<path d="M108.847 85H147.408V89.9472H108.847V85Z" fill="#F7941E"/>
<path d="M83.8232 112.21V144.23C83.8232 155.086 92.5748 163.744 103.241 163.744H226.583C237.248 163.744 246 155.086 246 144.23V112.21C246 101.491 237.248 92.6958 226.583 92.6958H103.241C92.438 92.6958 83.8232 101.491 83.8232 112.21Z" fill="#F15A29"/>
<path d="M83.8232 112.21V129.25C83.8232 137.908 89.4297 145.329 97.224 147.803C99.1384 148.352 101.19 148.765 103.241 148.765H226.583C237.248 148.902 246 140.107 246 129.25V112.21C246 101.491 237.248 92.6958 226.583 92.6958H103.241C92.438 92.6958 83.8232 101.491 83.8232 112.21Z" fill="#F7941E"/>
<path d="M83.8241 112.21V144.23C83.8241 155.086 92.5756 163.744 103.242 163.744H117.873C100.37 160.308 98.7291 152.75 97.4984 149.452C97.3616 149.177 97.2249 148.627 97.2249 147.803C96.6779 141.619 97.4984 133.511 97.4984 117.02C97.4984 98.605 109.942 92.6958 109.942 92.6958H103.242C92.4389 92.6958 83.8241 101.491 83.8241 112.21Z" fill="#E8E9EA"/>
<path d="M213.045 137.083C205.719 137.083 199.781 131.115 199.781 123.753C199.781 116.391 205.719 110.423 213.045 110.423C220.37 110.423 226.309 116.391 226.309 123.753C226.309 131.115 220.37 137.083 213.045 137.083Z" fill="white"/>
<path d="M213.181 116.47C213.181 116.47 223.847 131.174 213.455 131.174C202.926 131.037 213.181 116.47 213.181 116.47Z" fill="#F15A29"/>
<path d="M210.72 126.639C210.857 126.639 211.131 126.502 211.131 126.364C211.814 122.929 212.908 120.867 212.908 120.867C213.045 120.73 212.908 120.455 212.771 120.318C212.635 120.18 212.361 120.318 212.224 120.455C212.224 120.593 210.994 122.654 210.31 126.227C210.173 126.502 210.447 126.639 210.72 126.639C210.584 126.639 210.584 126.639 210.72 126.639Z" fill="white"/>
<path d="M107.617 127.738V120.317L106.66 120.18V119.081H108.985C109.122 119.081 109.395 119.081 109.668 119.081C110.215 119.081 110.626 119.081 111.036 119.081C111.993 119.081 112.814 119.218 113.361 119.355C113.908 119.63 114.318 119.905 114.591 120.317C114.865 120.73 115.001 121.279 115.001 121.966C115.001 123.066 114.728 124.028 114.044 124.577C113.361 125.265 112.403 125.539 111.036 125.539C110.899 125.539 110.762 125.539 110.626 125.539C110.489 125.539 110.352 125.539 110.352 125.539V127.738L111.993 127.876V128.838H106.66V127.876L107.617 127.738ZM111.993 124.028C112.267 123.616 112.403 122.928 112.403 122.104C112.403 120.73 111.993 120.043 111.036 120.043C110.899 120.043 110.762 120.043 110.626 120.043C110.489 120.043 110.489 120.043 110.489 120.043H110.352V124.577C110.489 124.577 110.762 124.715 111.036 124.715C111.446 124.715 111.72 124.44 111.993 124.028Z" fill="#262262"/>
<path d="M116.506 127.738V120.318L115.549 120.043V118.943H122.933L123.07 121.417H121.839L121.292 120.043H119.104V123.203H120.472L120.745 122.104H121.702V125.54H120.745L120.472 124.303H119.104V127.738L121.566 127.601L122.386 125.815L123.617 126.227L123.343 128.838H115.412V127.876L116.506 127.738Z" fill="#262262"/>
<path d="M127.446 127.738V120.18H126.078L125.531 123.203H124.164L124.438 118.943H133.326L133.463 123.203H132.095L131.411 120.18H130.181V127.738L131.958 127.876V128.838H125.805V127.876L127.446 127.738Z" fill="#262262"/>
<path d="M134.965 127.738V120.317L134.008 120.18V119.081H136.196C136.469 119.081 136.879 119.081 137.153 119.081C137.7 119.081 138.11 119.081 138.384 119.081C139.341 119.081 140.161 119.218 140.708 119.355C141.255 119.493 141.665 119.768 141.939 120.18C142.212 120.592 142.349 121.004 142.349 121.692C142.349 122.104 142.349 122.379 142.212 122.791C142.076 123.203 141.939 123.478 141.665 123.753C141.392 124.028 140.982 124.303 140.571 124.44C140.845 124.578 141.118 124.715 141.392 124.99C141.665 125.265 141.802 125.539 141.939 125.814C142.076 126.089 142.212 126.501 142.486 126.914C142.623 127.189 142.759 127.463 142.896 127.601C143.033 127.738 143.033 127.876 143.17 127.876L143.443 128.013V128.975H140.571C140.435 128.975 140.298 128.838 140.161 128.563C140.024 128.288 139.888 127.876 139.751 127.326C139.614 126.914 139.478 126.501 139.341 126.227C139.204 125.952 139.067 125.677 138.931 125.402C138.794 125.127 138.657 124.99 138.52 124.99H137.563V128.013L138.657 128.151V129.112H134.008V128.151L134.965 127.738ZM139.341 123.341C139.614 122.928 139.614 122.516 139.614 121.692C139.614 121.004 139.478 120.592 139.341 120.317C139.067 120.043 138.794 119.905 138.247 119.905C137.973 119.905 137.7 119.905 137.563 120.043V123.753C137.563 123.753 137.7 123.753 137.837 123.753C137.973 123.753 138.11 123.753 138.247 123.753C138.794 123.89 139.067 123.616 139.341 123.341Z" fill="#262262"/>
<path d="M144.264 121.417C144.674 120.73 145.221 120.043 145.905 119.768C146.588 119.356 147.409 119.218 148.366 119.218C149.87 119.218 151.101 119.631 151.785 120.455C152.468 121.28 152.879 122.379 152.879 123.891C152.879 124.853 152.742 125.815 152.332 126.502C151.921 127.326 151.374 127.876 150.691 128.288C150.007 128.7 149.187 128.975 148.229 128.975C146.725 128.975 145.494 128.563 144.811 127.739C144.127 126.914 143.717 125.677 143.717 124.166C143.717 122.929 143.854 122.104 144.264 121.417ZM146.999 127.051C147.272 127.601 147.682 128.013 148.229 128.013C148.776 128.013 149.187 127.601 149.46 126.914C149.733 126.227 149.87 125.127 149.87 123.891C149.87 122.929 149.87 122.242 149.733 121.692C149.597 121.142 149.46 120.73 149.187 120.455C148.913 120.18 148.64 120.18 148.366 120.18C147.819 120.18 147.409 120.455 147.135 121.142C146.862 121.829 146.725 122.791 146.725 124.028C146.588 125.402 146.725 126.364 146.999 127.051Z" fill="#262262"/>
<path d="M154.383 127.738V120.317L153.426 120.18V119.081H158.212V120.18L156.981 120.317V127.601H159.032L159.989 124.852L161.494 124.99L161.22 128.838H153.563V127.876L154.383 127.738Z" fill="#262262"/>
<path d="M162.862 127.738V120.318L161.904 120.043V118.943H169.288L169.425 121.417H168.194L167.648 120.043H165.46V123.203H166.827L167.101 122.104H168.058V125.54H167.101L166.827 124.44H165.46V127.876L167.921 127.738L168.741 125.952L169.972 126.364L169.699 128.975H161.768V128.013L162.862 127.738Z" fill="#262262"/>
<path d="M171.067 120.317L170.246 120.18V119.081H174.895V120.18L173.801 120.455V125.265C173.801 127.051 174.485 128.013 175.716 128.013C176.4 128.013 176.81 127.738 177.083 127.326C177.357 126.776 177.493 126.227 177.493 125.265V120.455L176.4 120.317V119.218H179.955V120.317H179.134V124.99C179.134 126.364 178.724 127.326 178.04 128.013C177.357 128.7 176.4 128.975 175.306 128.975C173.938 128.975 172.844 128.7 172.16 128.013C171.477 127.326 171.067 126.364 171.067 124.99V120.317Z" fill="#262262"/>
<path d="M181.049 127.738L181.869 120.317L180.639 120.18V119.081H185.425L186.792 124.44L187.066 125.814L187.202 124.44L188.296 119.081H193.219V120.18L191.852 120.317L192.946 127.738L194.04 127.876V128.838H189.254V127.876L190.348 127.738L189.801 122.241L189.527 120.043L189.117 121.966L187.749 128.563H185.562L183.51 122.104L183.1 119.905L182.963 122.104L182.553 127.738L183.921 127.876V128.838H179.955V127.876L181.049 127.738Z" fill="#262262"/>
<path d="M78.627 160.583H246V169.928H78.627V160.583Z" fill="#2D2D2D"/>
<path d="M78.6274 181.884H226.173L232.6 169.928H78.6274V181.884Z" fill="#414042"/>
<path d="M76.5758 98.0551C75.0716 90.7717 68.3713 85.8245 60.9871 86.3742C44.1678 87.7484 16.5458 91.0465 13.6742 97.9177C9.43518 107.675 9.43517 107.675 9.43517 107.675H78.627L76.5758 98.0551Z" fill="#262262"/>
<path d="M78.627 107.675V181.883H4.64918C2.05107 181.883 -6.10352e-05 179.822 -6.10352e-05 177.211V149.589C-6.10352e-05 144.917 9.29842 107.675 9.29842 107.675H78.627Z" fill="#2A2A91"/>
<path d="M57.5684 181.883H21.0581C21.0581 171.714 29.2626 163.469 39.3816 163.469C49.3638 163.606 57.5684 171.714 57.5684 181.883Z" fill="#231F20"/>
<path d="M39.3821 197C31.0748 197 24.3404 190.232 24.3404 181.883C24.3404 173.535 31.0748 166.767 39.3821 166.767C47.6894 166.767 54.4238 173.535 54.4238 181.883C54.4238 190.232 47.6894 197 39.3821 197Z" fill="#414042"/>
<path d="M39.3812 190.953C34.3968 190.953 30.3562 186.893 30.3562 181.883C30.3562 176.874 34.3968 172.813 39.3812 172.813C44.3656 172.813 48.4062 176.874 48.4062 181.883C48.4062 186.893 44.3656 190.953 39.3812 190.953Z" fill="#D1D3D4"/>
<path d="M39.3817 188.067C35.9833 188.067 33.2283 185.299 33.2283 181.883C33.2283 178.468 35.9833 175.699 39.3817 175.699C42.7802 175.699 45.5352 178.468 45.5352 181.883C45.5352 185.299 42.7802 188.067 39.3817 188.067Z" fill="#BCBEC0"/>
<path d="M4.51303 148.352C4.51303 149.451 4.51303 169.378 4.51303 169.378H21.0589C21.0589 169.378 25.9816 158.796 39.3824 158.796C52.7832 158.796 52.7832 158.796 52.7832 158.796V124.44L26.3919 127.601L6.01721 140.382C6.01721 140.382 4.51303 147.115 4.51303 148.352Z" fill="#262262"/>
<path d="M39.3823 184.906C37.7208 184.906 36.3739 183.553 36.3739 181.883C36.3739 180.213 37.7208 178.86 39.3823 178.86C41.0437 178.86 42.3906 180.213 42.3906 181.883C42.3906 183.553 41.0437 184.906 39.3823 184.906Z" fill="#414042"/>
<path d="M6.01711 140.382L13.8114 112.21H48.6808C51.4157 112.21 53.4668 114.409 53.4668 117.02V126.639C53.4668 129.388 51.2789 131.449 48.6808 131.449H26.802C24.2039 131.449 21.7425 133.098 20.7853 135.572L20.5118 136.259C19.5546 138.733 17.0933 140.382 14.4951 140.382H6.01711Z" fill="#231F20"/>
<path d="M51.8262 117.02V126.639C51.8262 128.426 50.4587 129.8 48.6811 129.8H26.8023C23.5204 129.8 20.5121 131.861 19.1447 134.885L18.8712 135.572C18.0507 137.358 16.4098 138.595 14.3587 138.595H8.20526L11.2136 128.013L15.0424 113.859H48.6811C49.3648 113.859 50.0485 114.134 50.5955 114.546C51.416 115.096 51.8262 116.058 51.8262 117.02Z" fill="#6D6E71"/>
<path d="M50.5938 114.546L31.7233 129.8H26.6638C23.382 129.8 20.3736 131.861 19.0062 134.885L18.7327 135.572C17.9123 137.358 16.2713 138.595 14.2202 138.595H8.06679L11.0751 128.013L31.0396 113.859H48.6793C49.3631 113.859 50.0468 114.134 50.5938 114.546Z" fill="#808285"/>
<path d="M75.5932 115.611H56.7227V113.962H75.5932V115.611Z" fill="#262262"/>
<path d="M75.5932 118.71H56.7227V117.061H75.5932V118.71Z" fill="#262262"/>
<path d="M75.5932 121.81H56.7227V120.161H75.5932V121.81Z" fill="#262262"/>
<path d="M75.5932 125.047H56.7227V123.398H75.5932V125.047Z" fill="#262262"/>
<path d="M75.5932 128.146H56.7227V126.497H75.5932V128.146Z" fill="#262262"/>
<path d="M75.5932 131.246H56.7227V129.597H75.5932V131.246Z" fill="#262262"/>
<path d="M75.5932 134.345H56.7227V132.696H75.5932V134.345Z" fill="#262262"/>
<path d="M75.5932 137.444H56.7227V135.795H75.5932V137.444Z" fill="#262262"/>
<path d="M75.5932 140.681H56.7227V139.032H75.5932V140.681Z" fill="#262262"/>
<path d="M75.5932 143.781H56.7227V142.132H75.5932V143.781Z" fill="#262262"/>
<path d="M75.5932 146.88H56.7227V145.231H75.5932V146.88Z" fill="#262262"/>
<path d="M75.5932 149.979H56.7227V148.33H75.5932V149.979Z" fill="#262262"/>
<path d="M75.5932 153.216H56.7227V151.567H75.5932V153.216Z" fill="#262262"/>
<path d="M75.5932 156.315H56.7227V154.666H75.5932V156.315Z" fill="#262262"/>
<path d="M75.5932 159.415H56.7227V157.766H75.5932V159.415Z" fill="#262262"/>
<path d="M3.03177 177.104H0.0234375L0.0234375 172.844H3.03177L3.03177 177.104Z" fill="#FEDC00"/>
<path d="M138.383 181.883H101.873C101.873 171.714 110.077 163.469 120.196 163.469C130.178 163.606 138.383 171.714 138.383 181.883Z" fill="#231F20"/>
<path d="M120.197 197C111.889 197 105.155 190.232 105.155 181.884C105.155 173.535 111.889 166.767 120.197 166.767C128.504 166.767 135.238 173.535 135.238 181.884C135.238 190.232 128.504 197 120.197 197Z" fill="#414042"/>
<path d="M120.198 190.953C115.213 190.953 111.173 186.893 111.173 181.883C111.173 176.874 115.213 172.813 120.198 172.813C125.182 172.813 129.223 176.874 129.223 181.883C129.223 186.893 125.182 190.953 120.198 190.953Z" fill="#D1D3D4"/>
<path d="M120.196 188.067C116.798 188.067 114.043 185.299 114.043 181.883C114.043 178.468 116.798 175.699 120.196 175.699C123.595 175.699 126.35 178.468 126.35 181.883C126.35 185.299 123.595 188.067 120.196 188.067Z" fill="#BCBEC0"/>
<path d="M120.197 184.907C118.535 184.907 117.188 183.553 117.188 181.884C117.188 180.214 118.535 178.86 120.197 178.86C121.858 178.86 123.205 180.214 123.205 181.884C123.205 183.553 121.858 184.907 120.197 184.907Z" fill="#414042"/>
<path d="M221.934 181.883H185.423C185.423 171.714 193.628 163.469 203.747 163.469C213.866 163.469 221.934 171.714 221.934 181.883Z" fill="#231F20"/>
<path d="M203.611 197C195.303 197 188.569 190.232 188.569 181.884C188.569 173.535 195.303 166.767 203.611 166.767C211.918 166.767 218.652 173.535 218.652 181.884C218.652 190.232 211.918 197 203.611 197Z" fill="#414042"/>
<path d="M203.61 190.953C198.625 190.953 194.585 186.893 194.585 181.883C194.585 176.874 198.625 172.813 203.61 172.813C208.594 172.813 212.635 176.874 212.635 181.883C212.635 186.893 208.594 190.953 203.61 190.953Z" fill="#D1D3D4"/>
<path d="M203.61 188.067C200.212 188.067 197.457 185.299 197.457 181.883C197.457 178.468 200.212 175.699 203.61 175.699C207.009 175.699 209.764 178.468 209.764 181.883C209.764 185.299 207.009 188.067 203.61 188.067Z" fill="#BCBEC0"/>
<path d="M203.609 184.907C201.947 184.907 200.601 183.553 200.601 181.884C200.601 180.214 201.947 178.86 203.609 178.86C205.27 178.86 206.617 180.214 206.617 181.884C206.617 183.553 205.27 184.907 203.609 184.907Z" fill="#414042"/>
</g>
<defs>
<clipPath id="clip0_2763_20934">
<rect width="295" height="196" fill="white" transform="translate(43)"/>
</clipPath>
<clipPath id="clip1_2763_20934">
<rect width="246" height="112" fill="white" transform="matrix(-1 0 0 1 246 85)"/>
</clipPath>
</defs>
</svg>
