<svg width="14" height="18" viewBox="0 0 14 18" fill="none" xmlns="http://www.w3.org/2000/svg">
<path d="M6.23393 10.8008H2.63398C2.46831 10.8008 2.33398 10.9351 2.33398 11.1008V15.9007C2.33398 15.9803 2.36559 16.0566 2.42184 16.1128C2.47809 16.1691 2.55443 16.2007 2.63398 16.2007H6.23393C6.31348 16.2007 6.38982 16.1691 6.44607 16.1128C6.50231 16.0566 6.53392 15.9803 6.53392 15.9007V11.1008C6.53392 11.0212 6.50232 10.9449 6.44607 10.8886C6.38982 10.8324 6.31348 10.8008 6.23393 10.8008ZM3.53397 15.6007H2.93398V15.0007H3.53397V15.6007ZM3.53397 14.4007H2.93398V13.8007H3.53397V14.4007ZM3.53397 13.2007H2.93398V12.6008H3.53397V13.2007ZM3.53397 12.0008H2.93398V11.4008H3.53397V12.0008ZM5.93393 15.6007H4.13396V15.0007H5.93393V15.6007ZM5.93393 14.4007H4.13396V13.8007H5.93393V14.4007ZM5.93393 13.2007H4.13396V12.6008H5.93393V13.2007ZM5.93393 12.0008H4.13396V11.4008H5.93393V12.0008Z" fill="#161614"/>
<path d="M6.23393 8.40039H2.63398C2.46831 8.40039 2.33398 8.53472 2.33398 8.70039C2.33398 8.86605 2.46831 9.00038 2.63398 9.00038H6.23393C6.39959 9.00038 6.53392 8.86605 6.53392 8.70039C6.53392 8.53472 6.39959 8.40039 6.23393 8.40039Z" fill="#161614"/>
<path d="M12.7378 15.015L10.9378 15.615C10.8165 15.6573 10.7348 15.7714 10.7338 15.9V16.2H10.4338C10.2682 16.2 10.1339 16.0657 10.1339 15.9V5.70015C10.1321 4.55468 9.69349 3.45286 8.90761 2.61956C8.12159 1.78612 7.04736 1.28391 5.90392 1.2152C5.82316 0.793184 5.56482 0.426366 5.1949 0.207935C4.825 -0.0104994 4.37901 -0.059517 3.9704 0.0736056C3.56193 0.206595 3.23032 0.508719 3.05996 0.903136L2.24688 0.0872512C2.1897 0.0319388 2.11349 0.000735853 2.03394 0.000197576H0.233969V0.600189H1.911L2.51099 1.20018H1.43395C1.34261 1.20058 1.2565 1.2425 1.19998 1.31415L0 2.81413L0.467925 3.18619L1.57791 1.80018H2.96392C3.00946 2.01901 3.10495 2.22432 3.24289 2.40017H3.23392C3.06825 2.40017 2.93392 2.5345 2.93392 2.70016V3.61808C2.27462 3.69295 1.66564 4.00753 1.22316 4.50199C0.780673 4.99659 0.535329 5.63649 0.533957 6.30008V17.0999C0.534627 17.3384 0.629716 17.5669 0.798327 17.7355C0.966942 17.9041 1.19542 17.9992 1.43394 17.9999H7.43385C7.67237 17.9992 7.90085 17.9041 8.06946 17.7355C8.23808 17.5669 8.33317 17.3384 8.33383 17.0999V6.30008C8.3325 5.63649 8.08714 4.99655 7.64463 4.50199C7.20215 4.00753 6.59317 3.69293 5.93387 3.61808V2.70016C5.93387 2.62061 5.90226 2.54427 5.84601 2.48802C5.78977 2.43178 5.71343 2.40017 5.63387 2.40017H5.6249C5.75937 2.22713 5.85365 2.02625 5.90092 1.81225C6.88584 1.88068 7.80831 2.31984 8.4825 3.0413C9.15655 3.76263 9.53221 4.71284 9.53382 5.70015V15.9C9.53449 16.1385 9.62958 16.367 9.79819 16.5356C9.9668 16.7042 10.1953 16.7993 10.4338 16.8H10.7338V17.1C10.7347 17.2286 10.8164 17.3427 10.9378 17.385L12.7377 17.985C12.7689 17.9943 12.8012 17.9994 12.8338 18C12.8964 18.0009 12.9578 17.9808 13.0077 17.9429C13.087 17.8876 13.1342 17.7968 13.1338 17.7V15.3C13.1342 15.2032 13.087 15.1124 13.0077 15.0571C12.9298 15.0004 12.8293 14.9849 12.7377 15.015H12.7378ZM5.3339 1.50013C5.3339 1.73878 5.23908 1.96781 5.07033 2.13653C4.90158 2.30525 4.67255 2.4001 4.43393 2.4001C4.1953 2.4001 3.96624 2.30528 3.79753 2.13653C3.62881 1.96778 3.53396 1.73875 3.53396 1.50013C3.53396 1.2615 3.62878 1.03244 3.79753 0.863725C3.96627 0.695008 4.1953 0.600158 4.43393 0.600158C4.67245 0.600827 4.90093 0.695916 5.06954 0.864528C5.23816 1.03314 5.33324 1.26162 5.33391 1.50014L5.3339 1.50013ZM7.13387 15.8999C7.1332 16.1384 7.03811 16.3669 6.8695 16.5355C6.70089 16.7041 6.47241 16.7992 6.23389 16.7999H2.63394C2.39542 16.7992 2.16694 16.7041 1.99833 16.5355C1.82971 16.3669 1.73463 16.1384 1.73396 15.8999V11.1C1.73463 10.8615 1.82972 10.633 1.99833 10.4644C2.16694 10.2958 2.39542 10.2007 2.63394 10.2H6.23389C6.47241 10.2007 6.70089 10.2958 6.8695 10.4644C7.03812 10.633 7.1332 10.8615 7.13387 11.1V15.8999ZM6.23388 9.60001H2.63394C2.31238 9.60001 2.01533 9.42845 1.8545 9.15001C1.69379 8.87158 1.69379 8.52846 1.8545 8.25003C2.01534 7.97159 2.31238 7.80003 2.63394 7.80003H6.23388C6.55544 7.80003 6.85249 7.97159 7.01332 8.25003C7.17404 8.52846 7.17404 8.87158 7.01332 9.15001C6.85248 9.42845 6.55544 9.60001 6.23388 9.60001ZM7.73386 6.60005V7.20004H1.13396V6.60005H7.73386Z" fill="#161614"/>
</svg>
