<svg width="30" height="41" viewBox="0 0 30 41" fill="none" xmlns="http://www.w3.org/2000/svg">
<path d="M14.2402 24.5996H6.01728C5.63887 24.5996 5.33203 24.9056 5.33203 25.2829V36.2161C5.33203 36.3973 5.40423 36.5712 5.53271 36.6993C5.66119 36.8274 5.83557 36.8994 6.01728 36.8994H14.2402C14.4219 36.8994 14.5963 36.8274 14.7248 36.6993C14.8533 36.5712 14.9255 36.3973 14.9255 36.2161V25.2829C14.9255 25.1017 14.8533 24.9278 14.7248 24.7997C14.5963 24.6716 14.4219 24.5996 14.2402 24.5996ZM8.07302 35.5328H6.70252V34.1661H8.07302V35.5328ZM8.07302 32.7995H6.70252V31.4328H8.07302V32.7995ZM8.07302 30.0662H6.70252V28.6995H8.07302V30.0662ZM8.07302 27.3329H6.70252V25.9663H8.07302V27.3329ZM13.555 35.5328H9.44351V34.1661H13.555V35.5328ZM13.555 32.7995H9.44351V31.4328H13.555V32.7995ZM13.555 30.0662H9.44351V28.6995H13.555V30.0662ZM13.555 27.3329H9.44351V25.9663H13.555V27.3329Z" fill="#4F5053"/>
<path d="M14.2402 19.1348H6.01728C5.63887 19.1348 5.33203 19.4407 5.33203 19.8181C5.33203 20.1954 5.63887 20.5014 6.01728 20.5014H14.2402C14.6186 20.5014 14.9255 20.1954 14.9255 19.8181C14.9255 19.4407 14.6186 19.1348 14.2402 19.1348Z" fill="#4F5053"/>
<path d="M29.0955 34.2009L24.984 35.5675C24.7069 35.6639 24.5203 35.9238 24.5181 36.2167V36.9H23.8329C23.4545 36.9 23.1476 36.594 23.1476 36.2167V12.9837C23.1437 10.3746 22.1418 7.86484 20.3467 5.96677C18.5512 4.06838 16.0975 2.92446 13.4857 2.76796C13.3012 1.8067 12.7111 0.971167 11.8661 0.47363C11.0212 -0.0239154 10.0025 -0.135566 9.06915 0.167657C8.13612 0.470576 7.37866 1.15875 6.98952 2.05714L5.13231 0.198739C5.00168 0.0727496 4.82762 0.00167611 4.64591 0.000450034H0.53443V1.3671H4.36508L5.73557 2.73374H3.27542C3.06678 2.73466 2.87008 2.83014 2.74099 2.99334L0 6.40996L1.06883 7.25744L3.60424 4.10041H6.77016C6.87417 4.59886 7.09229 5.06651 7.40737 5.46705H7.38688C7.00846 5.46705 6.70163 5.77302 6.70163 6.15038V8.24119C5.19566 8.41171 3.80464 9.12826 2.79392 10.2545C1.78321 11.3811 1.22279 12.8387 1.21966 14.3502V38.9498C1.22119 39.4931 1.43839 40.0135 1.82353 40.3976C2.20868 40.7817 2.73056 40.9982 3.27539 40.9998H16.9803C17.5252 40.9982 18.047 40.7817 18.4322 40.3976C18.8173 40.0135 19.0345 39.4931 19.0361 38.9498V14.3502C19.033 12.8387 18.4726 11.381 17.4618 10.2545C16.4511 9.12826 15.0601 8.41167 13.5541 8.24119V6.15038C13.5541 5.96917 13.4819 5.79529 13.3534 5.66717C13.2249 5.53905 13.0505 5.46705 12.8688 5.46705H12.8483C13.1555 5.07292 13.3708 4.61536 13.4788 4.12789C15.7285 4.28378 17.8357 5.28408 19.3756 6.92741C20.9153 8.57043 21.7734 10.7348 21.777 12.9837V36.2167C21.7786 36.76 21.9958 37.2804 22.3809 37.6645C22.7661 38.0485 23.2879 38.2651 23.8328 38.2666H24.518V38.95C24.5202 39.2428 24.7068 39.5027 24.9839 39.5991L29.0954 40.9658C29.1667 40.9871 29.2404 40.9987 29.3147 40.9999C29.4579 41.0021 29.598 40.9563 29.7121 40.87C29.8932 40.744 30.0009 40.5372 30 40.3166V34.85C30.0009 34.6295 29.8932 34.4226 29.7121 34.2967C29.5341 34.1676 29.3047 34.1322 29.0954 34.2009H29.0955ZM12.1836 3.41696C12.1836 3.96056 11.967 4.48224 11.5816 4.86654C11.1961 5.25084 10.673 5.46689 10.1279 5.46689C9.58286 5.46689 9.05965 5.25091 8.67427 4.86654C8.28888 4.48217 8.07223 3.96049 8.07223 3.41696C8.07223 2.87342 8.28881 2.35168 8.67427 1.96737C9.05972 1.58307 9.58286 1.36703 10.1279 1.36703C10.6728 1.36855 11.1946 1.58514 11.5798 1.9692C11.9649 2.35327 12.1821 2.87369 12.1837 3.41699L12.1836 3.41696ZM16.2951 36.2165C16.2936 36.7598 16.0764 37.2802 15.6912 37.6643C15.3061 38.0483 14.7842 38.2649 14.2394 38.2664H6.01642C5.47159 38.2649 4.9497 38.0483 4.56456 37.6643C4.17941 37.2802 3.96221 36.7598 3.96069 36.2165V25.2833C3.96222 24.74 4.17942 24.2196 4.56456 23.8355C4.9497 23.4514 5.47159 23.2349 6.01642 23.2333H14.2394C14.7842 23.2349 15.3061 23.4515 15.6912 23.8355C16.0764 24.2196 16.2936 24.74 16.2951 25.2833V36.2165ZM14.2394 21.8667H6.01641C5.28191 21.8667 4.60339 21.4759 4.23602 20.8417C3.86893 20.2075 3.86893 19.4259 4.23602 18.7917C4.60342 18.1575 5.2819 17.7667 6.01641 17.7667H14.2394C14.9739 17.7667 15.6524 18.1575 16.0198 18.7917C16.3869 19.4259 16.3869 20.2075 16.0198 20.8417C15.6524 21.4759 14.9739 21.8667 14.2394 21.8667ZM17.6656 15.0335V16.4001H2.59018V15.0335H17.6656Z" fill="#4F5053"/>
</svg>
