<svg width="38" height="38" viewBox="0 0 38 38" fill="none" xmlns="http://www.w3.org/2000/svg">
<path d="M19.0842 35.4057C23.6043 35.4057 27.3988 33.9473 30.1705 31.4317L24.8878 27.4212C23.4741 28.3873 21.5767 29.0618 19.0842 29.0618C14.6572 29.0618 10.8998 26.1999 9.5604 22.2441L9.36408 22.2605L4.19649 26.1798L4.12891 26.3639C6.88184 31.7233 12.5366 35.4057 19.0842 35.4057Z" fill="#34A853"/>
<path d="M35.1573 19.3649C35.1573 18.0159 35.0457 17.0316 34.8039 16.0107H19.0859V22.0992H28.312C28.1261 23.6123 27.1216 25.8909 24.8895 27.4221L24.8582 27.6259L29.8279 31.3989L30.1722 31.4326C33.3344 28.5706 35.1573 24.3596 35.1573 19.3649Z" fill="#4285F4"/>
<path d="M9.56484 22.2449C9.21142 21.2241 9.00689 20.1303 9.00689 19.0001C9.00689 17.8698 9.21142 16.7761 9.54624 15.7553L9.53688 15.5379L4.30452 11.5557L4.13333 11.6355C2.9987 13.8595 2.34766 16.3569 2.34766 19.0001C2.34766 21.6433 2.9987 24.1407 4.13333 26.3646L9.56484 22.2449Z" fill="#FBBC05"/>
<path d="M19.0843 8.93746C22.2279 8.93746 24.3484 10.2682 25.5575 11.3802L30.2822 6.85937C27.3805 4.21615 23.6044 2.59375 19.0843 2.59375C12.5366 2.59375 6.88186 6.27601 4.12891 11.6353L9.54184 15.7552C10.8999 11.7995 14.6573 8.93746 19.0843 8.93746Z" fill="#EB4335"/>
</svg>
