<svg width="23" height="41" viewBox="0 0 23 41" fill="none" xmlns="http://www.w3.org/2000/svg">
<path d="M2.1875 0H9.30655V2.73337H2.1875V0Z" fill="#4F5053"/>
<path d="M12.5938 2.73192V1.36523H15.8795V2.73192" fill="#4F5053"/>
<path d="M11.4743 28.0185C13.2328 28.0185 14.7079 26.6485 15.1981 24.61L15.5677 23.0724L12.8115 24.5465L12.38 23.2905L13.4249 22.7317L11.5007 17.9297L9.57641 22.7323L10.6213 23.2912L10.1898 24.5471L7.43359 23.073L7.80323 24.6106C8.29315 26.6485 9.76853 28.0185 11.4742 28.0185H11.4743ZM10.953 25.2851H12.0483V26.6518H10.953V25.2851Z" fill="#4F5053"/>
<path d="M0 4.09961H23V12.9831H0V4.09961Z" fill="#4F5053"/>
<path d="M23 30.7498V14.3496H0V30.7498H23ZM6.20656 21.3564C6.36547 21.1795 6.5916 21.1331 6.78693 21.238L8.56717 22.1899L11.0102 16.0938C11.1957 15.6304 11.8043 15.6304 11.9898 16.0938L14.4328 22.1899L16.213 21.238C16.4091 21.1334 16.6347 21.1801 16.7934 21.3564C16.9523 21.5333 17.0141 21.8082 16.9533 22.0623L16.2467 25.0001C15.6168 27.6221 13.7194 29.3829 11.5262 29.3829C9.28045 29.3829 7.38338 27.6221 6.75308 25.0001L6.04656 22.0623C5.98568 21.8082 6.04778 21.5334 6.20645 21.3564H6.20656Z" fill="#4F5053"/>
<path d="M0 32.1152H23V40.9987H0V32.1152Z" fill="#4F5053"/>
</svg>
