<svg width="24" height="24" viewBox="0 0 24 24" fill="none" xmlns="http://www.w3.org/2000/svg">
<mask id="mask0_3044_25048" style="mask-type:alpha" maskUnits="userSpaceOnUse" x="0" y="0" width="24" height="24">
<rect width="23.9218" height="24" fill="#8C8C8C"/>
</mask>
<g mask="url(#mask0_3044_25048)">
<path d="M11.9616 2C8.10418 2 4.98438 5.13 4.98438 9C4.98438 14.25 11.9616 22 11.9616 22C11.9616 22 18.9388 14.25 18.9388 9C18.9388 5.13 15.819 2 11.9616 2ZM11.9616 11.5C10.5861 11.5 9.46972 10.38 9.46972 9C9.46972 7.62 10.5861 6.5 11.9616 6.5C13.3371 6.5 14.4534 7.62 14.4534 9C14.4534 10.38 13.3371 11.5 11.9616 11.5Z" fill="#8C8C8C"/>
</g>
</svg>
