<svg width="84" height="41" viewBox="0 0 84 41" fill="none" xmlns="http://www.w3.org/2000/svg">
<path d="M75.6875 10.25H68V0H32.125C29.3062 0 27 2.30625 27 5.125V33.3125H32.125C32.125 37.5662 35.5588 41 39.8125 41C44.0662 41 47.5 37.5662 47.5 33.3125H62.875C62.875 37.5662 66.3088 41 70.5625 41C74.8162 41 78.25 37.5662 78.25 33.3125H83.375V20.5L75.6875 10.25ZM74.4062 14.0938L79.4287 20.5H68V14.0938H74.4062ZM39.8125 35.875C38.4031 35.875 37.25 34.7219 37.25 33.3125C37.25 31.9031 38.4031 30.75 39.8125 30.75C41.2219 30.75 42.375 31.9031 42.375 33.3125C42.375 34.7219 41.2219 35.875 39.8125 35.875ZM45.5013 28.1875C44.0919 26.6244 42.0931 25.625 39.8125 25.625C37.5319 25.625 35.5331 26.6244 34.1237 28.1875H32.125V5.125H62.875V28.1875H45.5013ZM70.5625 35.875C69.1531 35.875 68 34.7219 68 33.3125C68 31.9031 69.1531 30.75 70.5625 30.75C71.9719 30.75 73.125 31.9031 73.125 33.3125C73.125 34.7219 71.9719 35.875 70.5625 35.875Z" fill="#4F5053"/>
<path d="M0 37.5695H18.45V21.0156H0V37.5695ZM8.53313 23.2918C8.9429 23.016 9.5071 23.016 9.91688 23.2918C10.4358 23.6414 14.9906 26.8095 14.9906 30.3272C14.9906 32.1752 13.8916 33.8832 12.1078 34.807C10.3241 35.7313 8.12591 35.7313 6.34219 34.807C4.55847 33.8833 3.45938 32.1752 3.45938 30.3272C3.45938 26.8095 8.01415 23.6414 8.53313 23.2918Z" fill="#4F5053"/>
<path d="M0 38.9297H18.45V40.9989H0V38.9297Z" fill="#4F5053"/>
<path d="M14.9906 16.9082H3.45931C2.54196 16.9082 1.66162 17.2352 1.0131 17.8172C0.364585 18.3992 0 19.189 0 20.012H18.45C18.45 19.1889 18.0855 18.3991 17.4369 17.8172C16.7883 17.2353 15.9079 16.9082 14.9907 16.9082H14.9906Z" fill="#4F5053"/>
<path d="M17.2961 9.16406H14.9898V11.2333H12.6836V9.16406H10.3773V11.2333H8.07109V9.16406H5.76484V11.2333H3.45859V9.16406H1.15234V13.3025H17.2961V9.16406Z" fill="#4F5053"/>
<path d="M11.5622 5.42341C11.5391 5.34165 11.5278 5.2576 11.5278 5.17307V2.06921C11.5278 1.32973 11.0881 0.646637 10.3746 0.27713C9.66113 -0.0923767 8.78187 -0.0923767 8.06838 0.27713C7.35489 0.646637 6.91526 1.32976 6.91526 2.06921V5.17307C6.91526 5.25759 6.90393 5.34165 6.88077 5.42341L6.08594 8.27695H12.3566L11.5622 5.42341Z" fill="#4F5053"/>
<path d="M5.76562 14.0703H12.6844V16.1396H5.76562V14.0703Z" fill="#4F5053"/>
<path d="M9.22506 33.431C10.1424 33.431 11.0228 33.104 11.6713 32.522C12.3198 31.94 12.6844 31.1502 12.6844 30.3272C12.6844 28.5601 10.5866 26.5301 9.225 25.457C7.86339 26.53 5.76562 28.5609 5.76562 30.3272C5.76562 31.1503 6.13009 31.9401 6.77873 32.522C7.42736 33.1039 8.3077 33.431 9.22493 33.431H9.22506Z" fill="#4F5053"/>
</svg>
