<svg width="24" height="24" viewBox="0 0 24 24" fill="none" xmlns="http://www.w3.org/2000/svg">
<mask id="mask0_552_8571" style="mask-type:alpha" maskUnits="userSpaceOnUse" x="0" y="0" width="24" height="24">
<rect width="24" height="24" fill="#8C8C8C"/>
</mask>
<g mask="url(#mask0_552_8571)">
<path d="M15.4623 1.2002H7.33924C5.93801 1.2002 4.80078 2.29983 4.80078 3.65474V20.3456C4.80078 21.7006 5.93801 22.8002 7.33924 22.8002H15.4623C16.8636 22.8002 18.0008 21.7006 18.0008 20.3456V3.65474C18.0008 2.29983 16.8636 1.2002 15.4623 1.2002ZM11.4008 21.8184C10.558 21.8184 9.8777 21.1606 9.8777 20.3456C9.8777 19.5307 10.558 18.8729 11.4008 18.8729C12.2435 18.8729 12.9239 19.5307 12.9239 20.3456C12.9239 21.1606 12.2435 21.8184 11.4008 21.8184ZM15.97 17.8911H6.83155V4.14565H15.97V17.8911Z" fill="#8C8C8C"/>
</g>
</svg>
