<svg width="26" height="26" viewBox="0 0 26 26" fill="none" xmlns="http://www.w3.org/2000/svg">
<path d="M18.4287 4H5.57147C4.62456 4.00112 3.71683 4.37771 3.04736 5.04736C2.37772 5.71683 2.0011 6.62456 2 7.57147V15.4287C2.00112 16.3756 2.37771 17.2833 3.04736 17.9528C3.71683 18.6224 4.62456 18.9991 5.57147 19.0002H9.85722V17.5716H7.71434C7.71323 16.4352 7.26136 15.3458 6.4578 14.5424C5.65436 13.7388 4.56492 13.2869 3.42859 13.2858V9.71434C4.56492 9.71323 5.65436 9.26136 6.4578 8.4578C7.2614 7.65436 7.71324 6.56492 7.71434 5.42859H16.2859C16.287 6.56492 16.7388 7.65436 17.5424 8.4578C18.3458 9.2614 19.4353 9.71324 20.5716 9.71434V13.2858C19.4353 13.2869 18.3458 13.7388 17.5424 14.5424C16.7388 15.3458 16.287 16.4352 16.2859 17.5716H14.143V19.0002H18.4287C19.3756 18.999 20.2834 18.6224 20.9528 17.9528C21.6225 17.2833 21.9991 16.3756 22.0002 15.4287V7.57147C21.9991 6.62456 21.6225 5.71683 20.9528 5.04736C20.2834 4.37772 19.3756 4.0011 18.4287 4ZM6.28576 17.5716H5.57147C5.00305 17.5716 4.45811 17.3458 4.05614 16.944C3.65435 16.5421 3.42859 15.9971 3.42859 15.4287V14.7144C4.18639 14.7144 4.91313 15.0154 5.44885 15.5513C5.98473 16.087 6.28576 16.8138 6.28576 17.5716ZM3.42859 8.28576V7.57147C3.42859 7.00305 3.65435 6.45811 4.05614 6.05614C4.45809 5.65435 5.00305 5.42859 5.57147 5.42859H6.28576C6.28576 6.18639 5.98473 6.91313 5.44885 7.44885C4.91313 7.98473 4.18639 8.28576 3.42859 8.28576ZM17.7144 5.42859H18.4287C18.9972 5.42859 19.5421 5.65435 19.9441 6.05614C20.3459 6.45809 20.5716 7.00305 20.5716 7.57147V8.28576C19.8138 8.28576 19.0871 7.98473 18.5514 7.44885C18.0155 6.91313 17.7144 6.18639 17.7144 5.42859ZM20.5716 15.4287C20.5716 15.9971 20.3459 16.542 19.9441 16.944C19.5421 17.3458 18.9972 17.5716 18.4287 17.5716H17.7144C17.7144 16.8138 18.0155 16.087 18.5514 15.5513C19.0871 15.0154 19.8138 14.7144 20.5716 14.7144V15.4287ZM12.7144 14.583V15.4287H11.2858V14.7144H10.5715V13.2858H12.0001C12.2554 13.2858 12.4912 13.1496 12.6187 12.9287C12.7463 12.7077 12.7463 12.4354 12.6187 12.2144C12.4912 11.9934 12.2554 11.8572 12.0001 11.8572C11.3214 11.8585 10.6825 11.5375 10.2785 10.9923C9.87427 10.447 9.7531 9.74226 9.95192 9.09336C10.1506 8.44445 10.6456 7.92833 11.2858 7.70289V6.85721H12.7144V7.57151H13.4287V9.00009H12.0001C11.7448 9.00009 11.509 9.13625 11.3815 9.35724C11.2539 9.57822 11.2539 9.85055 11.3815 10.0715C11.509 10.2925 11.7448 10.4287 12.0001 10.4287C12.6788 10.4274 13.3177 10.7484 13.7218 11.2936C14.1259 11.8389 14.2471 12.5436 14.0483 13.1925C13.8496 13.8414 13.3546 14.3576 12.7144 14.583Z" fill="#6C6C6C"/>
<path d="M15.3629 20.9337L12.5057 23.7908C12.3718 23.9248 12.1902 24 12.0008 24C11.8114 24 11.6298 23.9248 11.4958 23.7908L8.63867 20.9337L9.64872 19.9236L11.2865 21.5616V16.8574H12.7151V21.5616L14.353 19.9236L15.3629 20.9337Z" fill="#6C6C6C"/>
<circle cx="22" cy="4" r="4" fill="#FF0000"/>
</svg>
