<svg width="100" height="100" viewBox="0 0 100 100" fill="none" xmlns="http://www.w3.org/2000/svg">
<mask id="mask0_552_4394" style="mask-type:alpha" maskUnits="userSpaceOnUse" x="0" y="0" width="100" height="100">
<rect width="100" height="100" fill="#C4C4C4"/>
</mask>
<g mask="url(#mask0_552_4394)">
<path d="M78.9168 52.108L94.82 44.0612C94.82 41.7685 93.6717 39.8432 91.916 38.5825L78.9168 28.9434L70.9336 40.5229L78.9168 52.108Z" fill="#E6A235"/>
<path d="M19.6454 51.4701L31.056 41.3895L19.6454 28.9434L9.15141 37.4468C8.59045 37.9027 8.00868 38.3545 7.45812 38.8159C5.95412 40.0821 5 41.9656 5 44.0612L19.6454 51.4701Z" fill="#E6A235"/>
<path d="M66.9395 5H22.8051C21.0646 5 19.6445 6.40625 19.6445 8.12355V59.8396L38.3304 69.2927L41.1088 70.6982C49.5739 74.8229 49.9095 75.1553 58.7151 70.6982L61.2418 69.417L78.9167 60.4727V19.1634C78.9167 18.4274 78.9167 17.8094 78.8855 17.2752L66.9395 5Z" fill="#ECEFF1"/>
<path d="M6.55669 92.4483L30.9617 81.4854L38.3319 60.9299L19.6454 51.4714L5 44.0625V88.1156C5 89.7553 5.58177 91.2653 6.55669 92.4483Z" fill="#FFDDA6"/>
<path d="M61.2422 61.0542L67.0813 81.4854L93.0909 92.6502C94.165 91.4362 94.8203 89.8487 94.8203 88.1163V44.0625L78.917 52.1093L61.2422 61.0542Z" fill="#FFDDA6"/>
<path d="M38.3319 60.9297L23.4188 75.7207L6.55664 92.4481C7.83597 94.004 9.78582 95.0003 11.9555 95.0003H87.8652C89.9405 95.0003 91.812 94.0871 93.0907 92.65L61.2426 61.054L58.7166 62.3353C49.9103 66.7923 49.5747 66.4544 41.1096 62.3353L38.3319 60.9297Z" fill="#FCC368"/>
<path d="M19.6445 51.4709L38.3311 60.9294L41.1088 62.335C49.5739 66.4548 49.9095 66.792 58.7158 62.335L61.2418 61.0537L78.9167 52.1095V44.7054L61.2418 53.6551L58.7158 54.9316C49.9095 59.3886 49.5739 59.0562 41.1088 54.9316L38.3311 53.5308L19.6445 44.0723V51.4709Z" fill="#C4CCCF"/>
<path d="M87.7388 47.6475V81.0857C87.7388 82.8188 87.0835 84.4064 86.0039 85.6203L93.0905 92.6502C94.1653 91.4362 94.8205 89.8487 94.8205 88.1156V44.0625L87.7388 47.6475Z" fill="#FCC368"/>
<path d="M93.0914 92.649L86.0048 85.6191C84.9771 86.7809 83.5619 87.6008 81.9629 87.8707C81.5802 87.9386 81.1821 87.9743 80.7841 87.9743H11.07L6.55664 92.4471C7.83597 94.0031 9.78582 94.9994 11.9555 94.9994H87.8652C89.9405 94.9994 91.812 94.0862 93.0914 92.649Z" fill="#E6A235"/>
<path d="M5 88.1147C5 89.7544 5.58177 91.2643 6.55669 92.4467L11.0701 87.9746H5V88.1147Z" fill="#FCC368"/>
<path d="M66.9297 14.142C66.9297 15.8641 68.3505 17.2752 70.0902 17.2752H78.886C78.7813 15.2674 78.3306 14.3645 76.4064 12.2997L72.3022 7.8846C70.2164 5.63789 70.0271 5 66.9401 5L66.9297 14.142Z" fill="#90A4AE"/>
<path d="M65.6157 30.8509H45.2518C44.4877 30.8509 43.8691 30.2384 43.8691 29.4825C43.8691 28.7265 44.4877 28.1133 45.2518 28.1133H65.6157C66.3791 28.1133 66.9983 28.7265 66.9983 29.4825C66.9983 30.2384 66.3791 30.8509 65.6157 30.8509Z" fill="#35505C"/>
<path d="M71.4333 25.2337H45.2518C44.4877 25.2337 43.8691 24.6206 43.8691 23.8646C43.8691 23.1086 44.4877 22.4961 45.2518 22.4961H71.4333C72.1975 22.4961 72.816 23.1086 72.816 23.8646C72.816 24.6206 72.1975 25.2337 71.4333 25.2337Z" fill="#35505C"/>
<path d="M31.2072 31.0636C30.866 31.0636 30.5353 30.9386 30.2801 30.7107L27.6646 28.3713C27.0981 27.8638 27.0537 26.9987 27.5661 26.4377C28.0779 25.8767 28.9522 25.8328 29.5188 26.3395L31.1053 27.7588L36.5207 21.7918C37.0318 21.2295 37.9062 21.1835 38.4741 21.6882C39.042 22.1935 39.0884 23.0587 38.5781 23.6211L32.2362 30.6097C31.9907 30.8803 31.6461 31.043 31.2793 31.0622C31.255 31.0636 31.2315 31.0636 31.2072 31.0636Z" fill="#8BC34A"/>
<path d="M65.6157 43.6615H45.2518C44.4877 43.6615 43.8691 43.049 43.8691 42.293C43.8691 41.537 44.4877 40.9238 45.2518 40.9238H65.6157C66.3791 40.9238 66.9983 41.537 66.9983 42.293C66.9983 43.049 66.3791 43.6615 65.6157 43.6615Z" fill="#35505C"/>
<path d="M71.4333 38.0423H45.2518C44.4877 38.0423 43.8691 37.4299 43.8691 36.6739C43.8691 35.9179 44.4877 35.3047 45.2518 35.3047H71.4333C72.1975 35.3047 72.816 35.9179 72.816 36.6739C72.816 37.4299 72.1975 38.0423 71.4333 38.0423Z" fill="#35505C"/>
<path d="M31.207 43.8745C30.8659 43.8745 30.5358 43.7495 30.2813 43.5223L27.6658 41.1877C27.0986 40.6816 27.0535 39.8157 27.5646 39.2541C28.0763 38.6931 28.9507 38.6484 29.5179 39.1545L31.1044 40.5704L36.5213 34.602C37.0316 34.0404 37.906 33.9937 38.4739 34.499C39.0418 35.0037 39.0889 35.8696 38.5786 36.432L32.236 43.4206C31.9906 43.6905 31.6466 43.8532 31.2798 43.8724C31.2556 43.8738 31.2313 43.8745 31.207 43.8745Z" fill="#8BC34A"/>
</g>
</svg>
