<svg width="30" height="41" viewBox="0 0 30 41" fill="none" xmlns="http://www.w3.org/2000/svg">
<path d="M29.1562 9.97045L25.0312 5.87045L23.7188 7.175L25.3125 8.75909V13.0455C25.3125 14.0705 26.1562 14.9091 27.1875 14.9091H28.125V28.8864C28.125 30.4705 26.9062 31.6818 25.3125 31.6818H22.5V1.86364C22.5 0.838636 21.6562 0 20.625 0H1.875C0.84375 0 0 0.838636 0 1.86364V40.0682C0 40.6273 0.46875 41 0.9375 41H21.5625C22.125 41 22.5 40.6273 22.5 40.0682V33.5455H25.3125C27.9375 33.5455 30 31.4955 30 28.8864V11.9273C30 11.1818 29.7188 10.5295 29.1562 9.97045ZM11.2505 30.7495C9.56304 30.7495 8.15679 29.3517 8.15679 27.6745C8.25054 25.1586 11.2505 22.3631 11.2505 22.3631C11.2505 22.3631 14.3443 25.1586 14.3443 27.6745C14.3443 29.3517 12.938 30.7495 11.2505 30.7495ZM18.7505 13.9767C18.7505 14.5358 18.3755 14.9086 17.813 14.9086H4.68804C4.12554 14.9086 3.75054 14.5358 3.75054 13.9767V4.65856C3.75054 4.09947 4.12554 3.72674 4.68804 3.72674H17.813C18.3755 3.72674 18.7505 4.09947 18.7505 4.65856V13.9767ZM28.1255 13.0449H27.188V10.6222L27.8443 11.2745C28.0318 11.4608 28.1255 11.6472 28.1255 11.9267V13.0449Z" fill="#4F5053"/>
</svg>
