<svg width="14" height="18" viewBox="0 0 14 18" fill="none" xmlns="http://www.w3.org/2000/svg">
<path d="M12.7227 4.37727L10.9227 2.57727L10.35 3.15L11.0455 3.84545V5.72727C11.0455 6.17727 11.4136 6.54545 11.8636 6.54545H12.2727V12.6818C12.2727 13.3773 11.7409 13.9091 11.0455 13.9091H9.81818V0.818182C9.81818 0.368182 9.45 0 9 0H0.818182C0.368182 0 0 0.368182 0 0.818182V17.5909C0 17.8364 0.204545 18 0.409091 18H9.40909C9.65455 18 9.81818 17.8364 9.81818 17.5909V14.7273H11.0455C12.1909 14.7273 13.0909 13.8273 13.0909 12.6818V5.23636C13.0909 4.90909 12.9682 4.62273 12.7227 4.37727ZM4.90932 13.4998C4.17296 13.4998 3.55932 12.8861 3.55932 12.1498C3.60023 11.0452 4.90932 9.81795 4.90932 9.81795C4.90932 9.81795 6.25933 11.0452 6.25933 12.1498C6.25933 12.8861 5.64569 13.4998 4.90932 13.4998ZM8.18205 6.13613C8.18205 6.38158 8.01842 6.54522 7.77296 6.54522H2.04569C1.80023 6.54522 1.6366 6.38158 1.6366 6.13613V2.04522C1.6366 1.79977 1.80023 1.63613 2.04569 1.63613H7.77296C8.01842 1.63613 8.18205 1.79977 8.18205 2.04522V6.13613ZM12.273 5.72704H11.8639V4.6634L12.1502 4.94977C12.2321 5.03158 12.273 5.1134 12.273 5.23613V5.72704Z" fill="#161614"/>
</svg>
