<svg width="24" height="24" viewBox="0 0 24 24" fill="none" xmlns="http://www.w3.org/2000/svg">
<mask id="mask0_1378_12412" style="mask-type:alpha" maskUnits="userSpaceOnUse" x="0" y="0" width="24" height="24">
<rect width="24" height="24" fill="#3E3E3E"/>
</mask>
<g mask="url(#mask0_1378_12412)">
<path d="M20.1818 20.8788C20.1818 21.3754 19.7792 21.7777 19.2829 21.7777C18.7863 21.7777 18.3837 21.3754 18.3837 20.8788C18.3837 17.4031 15.5665 14.586 12.0909 14.586C8.61535 14.586 5.79814 17.4032 5.79814 20.8788C5.79814 21.3754 5.39555 21.7777 4.89891 21.7777C4.40257 21.7777 4 21.3754 4 20.8788C4 16.4102 7.62237 12.7879 12.0909 12.7879C16.5594 12.7879 20.1818 16.4102 20.1818 20.8788ZM12.0909 11.8889C9.36023 11.8889 7.1463 9.67528 7.1463 6.94428C7.1463 4.2136 9.36023 2 12.0909 2C14.8216 2 17.0355 4.2136 17.0355 6.94428C17.0355 9.6752 14.8216 11.8889 12.0909 11.8889ZM12.0909 10.0911C13.8285 10.0911 15.2373 8.6823 15.2373 6.94436C15.2373 5.20674 13.8285 3.79798 12.0909 3.79798C10.3533 3.79798 8.94452 5.20674 8.94452 6.94436C8.94452 8.6823 10.3533 10.0911 12.0909 10.0911Z" fill="#6C6C6C"/>
</g>
</svg>
