<svg width="24" height="24" viewBox="0 0 24 24" fill="none" xmlns="http://www.w3.org/2000/svg">
<path d="M14.4414 22C14.32 22 14.1985 21.9763 14.083 21.9282C13.8517 21.8323 13.6715 21.6523 13.5762 21.421C13.2543 20.6445 12.5508 20.3679 11.9997 20.3679C11.4486 20.3679 10.745 20.6445 10.4232 21.4212C10.3273 21.6523 10.1474 21.8325 9.91606 21.928C9.68475 22.024 9.43002 22.0239 9.19869 21.928L6.95911 21.0002C6.72794 20.9044 6.54796 20.7247 6.45228 20.4934C6.35644 20.2621 6.35644 20.0076 6.45228 19.776C6.77413 18.9995 6.47223 18.3064 6.08245 17.9166C5.69295 17.5266 4.99958 17.2248 4.22292 17.5467C3.99203 17.6425 3.73712 17.6427 3.50583 17.5467C3.27452 17.4508 3.09454 17.2709 2.99872 17.0396L2.07123 14.8004C1.87369 14.323 2.10123 13.7739 2.57807 13.5762C3.35501 13.2544 3.63166 12.5508 3.63166 11.9999C3.63166 11.4489 3.35473 10.7454 2.57835 10.4237C2.10123 10.2261 1.87369 9.67699 2.07123 9.19959L2.999 6.95973C3.09457 6.72856 3.27482 6.54858 3.50583 6.4529C3.737 6.35705 3.99134 6.35705 4.22292 6.4529C4.99943 6.77475 5.69266 6.47243 6.08245 6.08293C6.47225 5.69313 6.774 5.00005 6.45242 4.22339C6.2546 3.74628 6.48214 3.19687 6.95925 2.99933L9.19912 2.07157C9.67598 1.87332 10.2256 2.10128 10.4232 2.5784C10.7453 3.35505 11.4487 3.6317 11.9998 3.6317C12.5509 3.6317 13.2544 3.35505 13.5763 2.5784C13.7739 2.10153 14.3221 1.87413 14.8004 2.07128L17.0404 2.9993C17.5172 3.19713 17.7448 3.74595 17.5472 4.22336C17.2254 5.00001 17.5273 5.6931 17.9168 6.08275C18.3063 6.47254 19.0001 6.77472 19.7763 6.453C20.2534 6.25574 20.8026 6.48258 21.0005 6.95984L21.9283 9.19941C22.1258 9.67682 21.8983 10.2259 21.4215 10.4236C20.6448 10.7455 20.3682 11.4487 20.3682 11.9998C20.3679 12.5509 20.6448 13.2545 21.4215 13.5763C21.4217 13.5763 21.4217 13.5766 21.4219 13.5766C21.8987 13.7748 22.1259 14.3241 21.9279 14.8011L21.0001 17.0405C20.8023 17.5181 20.2523 17.7448 19.7759 17.5473C18.9985 17.2258 18.3063 17.5271 17.9164 17.9172C17.5266 18.3067 17.2251 19.0001 17.5466 19.7766C17.7441 20.2541 17.5166 20.8032 17.0394 21.0008L14.8 21.9285C14.6846 21.9762 14.563 22 14.4415 22L14.4414 22ZM11.9994 19.479C13.069 19.479 13.9879 20.093 14.3972 21.081C14.4023 21.0934 14.4111 21.1021 14.4231 21.107C14.4354 21.1121 14.4475 21.1121 14.4598 21.107L16.6994 20.1792C16.7238 20.169 16.7354 20.1407 16.7253 20.1163C16.316 19.1283 16.5316 18.0444 17.2879 17.2882C18.0442 16.5318 19.1286 16.3168 20.1162 16.726C20.1399 16.7355 20.1689 16.7242 20.1788 16.7001L21.1066 14.4605C21.1168 14.4361 21.1052 14.408 21.081 14.3976C20.0927 13.9879 19.4788 13.0695 19.479 11.9999C19.479 10.9303 20.093 10.0116 21.081 9.60254C21.1055 9.59249 21.117 9.56403 21.107 9.53962L20.1792 7.30019C20.1692 7.27591 20.1414 7.26391 20.1166 7.27424C19.1288 7.68357 18.0447 7.46802 17.2881 6.7113C16.5321 5.955 16.3166 4.8714 16.7262 3.88339C16.7362 3.85911 16.7247 3.83065 16.7002 3.82075L14.4602 2.89244C14.436 2.88184 14.4075 2.89398 14.3976 2.91825C13.9883 3.9067 13.0696 4.52053 11.9999 4.52053C10.9303 4.52053 10.0116 3.90656 9.60258 2.91825C9.59253 2.89398 9.56477 2.88254 9.53966 2.89244L7.29965 3.82007C7.27524 3.83025 7.26366 3.85829 7.2737 3.88271C7.68303 4.87101 7.46749 5.95475 6.71105 6.71101C5.95475 7.46731 4.87077 7.68285 3.88275 7.27366C3.87075 7.26878 3.85805 7.26906 3.84592 7.27366C3.83364 7.27883 3.82499 7.28748 3.82011 7.29947L2.89234 9.53948C2.8823 9.56376 2.89388 9.59194 2.91829 9.60212C3.90659 10.0113 4.52028 10.9301 4.52028 11.9995C4.52028 13.0688 3.90631 13.988 2.918 14.3971C2.89373 14.4073 2.88201 14.4356 2.89219 14.4601L3.81996 16.6995C3.82512 16.7119 3.83377 16.7206 3.84591 16.7254C3.85819 16.7306 3.87033 16.7306 3.8826 16.7254C4.87105 16.3161 5.95464 16.5317 6.71105 17.288C7.46735 18.0444 7.68289 19.1282 7.27356 20.1163C7.26867 20.1285 7.26867 20.1407 7.27356 20.1529C7.27844 20.1654 7.28737 20.174 7.29937 20.1789L9.53923 21.1067C9.55123 21.1115 9.56351 21.1118 9.57592 21.1067C9.5882 21.1018 9.59685 21.0928 9.60187 21.0807C10.0111 20.093 10.9298 19.479 11.9994 19.479L11.9994 19.479Z" fill="#6C6C6C"/>
<path d="M12.0005 18.4174C8.46254 18.4174 5.58398 15.5389 5.58398 12.0009C5.58398 8.46275 8.46254 5.58398 12.0005 5.58398C15.5388 5.58398 18.4174 8.46254 18.4174 12.0005C18.4174 15.5385 15.5389 18.4174 12.0005 18.4174ZM12.0005 6.47293C8.95248 6.47293 6.47293 8.95276 6.47293 12.0005C6.47293 15.0486 8.95276 17.5281 12.0005 17.5281C15.0483 17.5281 17.5285 15.0487 17.5285 12.0005C17.5285 8.95276 15.0487 6.47293 12.0005 6.47293Z" fill="#6C6C6C"/>
<path d="M13.6225 9.73299C13.6225 10.6863 12.8642 11.4621 11.9294 11.4621C10.9946 11.4621 10.2363 10.6863 10.2363 9.73299C10.2363 8.77964 10.9945 8.00391 11.9294 8.00391C12.8642 8.00391 13.6225 8.77966 13.6225 9.73299Z" fill="#6C6C6C"/>
<path d="M14.5973 15.5538C14.4827 15.5955 14.3786 15.6371 14.2745 15.6684C14.1287 15.7205 13.9725 15.7621 13.8267 15.7933C13.5976 15.8558 13.3685 15.8975 13.1499 15.9287C13.1187 15.9287 13.077 15.9391 13.0457 15.9391C12.7125 15.9807 12.4001 16.0016 12.0877 16.0016H11.9107C11.6191 16.0016 11.3171 15.9807 11.0047 15.9495C10.9006 15.9391 10.7965 15.9183 10.6923 15.8974C10.6402 15.887 10.5881 15.8766 10.5361 15.8662C10.432 15.8453 10.3279 15.8246 10.2133 15.7932C10.1717 15.7829 10.13 15.7724 10.0884 15.762C10.0051 15.7412 9.92175 15.7204 9.84889 15.6891C9.80727 15.6787 9.76557 15.6682 9.72395 15.6475C9.61979 15.6162 9.50523 15.5745 9.40115 15.5329C9.06788 15.408 8.90132 14.981 9.00542 14.6061L9.24491 13.773C9.24491 13.7522 9.2553 13.7418 9.26576 13.7209C9.27615 13.7001 9.27615 13.6793 9.28661 13.6585C9.31784 13.5648 9.35954 13.4502 9.41155 13.3252C9.41155 13.3148 9.42193 13.3043 9.42193 13.294C9.43232 13.2627 9.44278 13.2419 9.45317 13.2106C9.4844 13.1377 9.51564 13.0648 9.54687 12.9919C9.55726 12.9711 9.56772 12.9398 9.5885 12.9086C9.65097 12.7837 9.71344 12.6691 9.78637 12.5441C9.80722 12.5129 9.81761 12.4816 9.83845 12.4608C9.84884 12.4399 9.86969 12.4191 9.88008 12.3983C9.89046 12.3879 9.89046 12.3775 9.90092 12.3671C9.92177 12.3358 9.94255 12.3046 9.96339 12.2837C9.97378 12.2629 9.99463 12.2421 10.005 12.2317C10.0259 12.2108 10.0466 12.1796 10.0675 12.1587L10.0987 12.1275C10.1196 12.1067 10.13 12.0859 10.1508 12.0754C10.1717 12.0546 10.182 12.0442 10.1924 12.0233L10.2237 11.9921C10.234 11.9817 10.2445 11.9713 10.2549 11.9609C10.2653 11.9505 10.2757 11.94 10.2861 11.9296C10.4632 11.7735 10.6506 11.6797 10.8484 11.6797H10.9214C10.9422 11.6797 10.963 11.6901 10.9943 11.6901C11.0359 11.7005 11.088 11.7213 11.1297 11.7422C11.3379 11.8463 11.6504 11.9504 12.0149 11.9609H12.0253L11.4837 12.6797L12.1085 14.7624L12.7334 12.6797L12.1918 11.9508C12.4834 11.9195 12.7229 11.8258 12.8999 11.7425C12.9832 11.7009 13.0561 11.6904 13.1394 11.6904C13.254 11.6904 13.3685 11.7321 13.4727 11.7842C13.4935 11.7945 13.5248 11.8154 13.5456 11.8258C13.6393 11.8779 13.7226 11.9507 13.7955 12.034C13.8059 12.0444 13.8164 12.0549 13.8268 12.0653L13.8372 12.0756C13.858 12.0965 13.8788 12.1173 13.8996 12.1381C13.9205 12.159 13.9413 12.1797 13.9517 12.2006C14.0247 12.2839 14.0871 12.3672 14.1391 12.4505C14.3265 12.7213 14.4724 13.0233 14.5869 13.3357C14.6493 13.4815 14.7014 13.6377 14.7535 13.7939L14.993 14.627C15.0972 15.0019 14.9201 15.4289 14.5973 15.5538L14.5973 15.5538Z" fill="#6C6C6C"/>
</svg>
